<svg xmlns="http://www.w3.org/2000/svg" viewBox="0 0 420 900" width="420" height="900">
  <defs>
    <linearGradient id="bg" x1="0%" y1="0%" x2="100%" y2="100%">
      <stop offset="0%" style="stop-color:#1a1a2e"/>
      <stop offset="100%" style="stop-color:#16213e"/>
    </linearGradient>
  </defs>
  <rect fill="url(#bg)" width="420" height="900"/>
  <!-- Car silhouette -->
  <g transform="translate(60, 350)" fill="#ffc107" opacity="0.15">
    <path d="M280 80c0-20-10-40-30-50l-40-20c-10-5-25-10-40-10H130c-15 0-30 5-40 10l-40 20c-20 10-30 30-30 50v40c0 10 5 20 15 25l10 5v20c0 10 10 20 20 20h20c10 0 20-10 20-20v-10h150v10c0 10 10 20 20 20h20c10 0 20-10 20-20v-20l10-5c10-5 15-15 15-25V80z"/>
    <circle cx="80" cy="130" r="30"/>
    <circle cx="220" cy="130" r="30"/>
  </g>
  <!-- Verificarlo text -->
  <text x="210" y="480" font-family="Inter, Arial, sans-serif" font-size="28" font-weight="700" fill="#ffc107" text-anchor="middle">VERIFICARLO</text>
  <text x="210" y="510" font-family="Inter, Arial, sans-serif" font-size="14" fill="#ffffff" opacity="0.7" text-anchor="middle">Inspección Vehicular Profesional</text>
  <!-- Decorative elements -->
  <circle cx="50" cy="100" r="80" fill="#ffc107" opacity="0.05"/>
  <circle cx="380" cy="800" r="120" fill="#ffc107" opacity="0.05"/>
</svg>
