<svg width="16" height="16" viewBox="0 0 16 16" fill="none" xmlns="http://www.w3.org/2000/svg">
<path d="M1.43644 14C1.02696 14 0.685333 13.868 0.411556 13.604C0.137778 13.34 0.000592593 13.0103 0 12.6149V3.38514C0 2.99029 0.137185 2.66086 0.411556 2.39686C0.685926 2.13286 1.02726 2.00057 1.43556 2H14.5644C14.9733 2 15.3147 2.13229 15.5884 2.39686C15.8622 2.66143 15.9994 2.99086 16 3.38514V12.6157C16 13.01 15.8628 13.3394 15.5884 13.604C15.3141 13.8686 14.9727 14.0006 14.5644 14H1.43644ZM8 8.09943L0.888889 3.61571V12.6157C0.888889 12.7694 0.940148 12.8957 1.04267 12.9946C1.14519 13.0934 1.27644 13.1429 1.43644 13.1429H14.5644C14.7239 13.1429 14.8548 13.0934 14.9573 12.9946C15.0599 12.8957 15.1111 12.7691 15.1111 12.6149V3.61486L8 8.09943ZM8 7.14286L14.8373 2.85714H1.16267L8 7.14286ZM0.888889 3.61571V2.85714V12.6157C0.888889 12.7694 0.940148 12.8957 1.04267 12.9946C1.14519 13.0934 1.27644 13.1429 1.43644 13.1429H0.888889V3.61571Z" fill="white"/>
</svg>
