<svg width="14" height="21" viewBox="0 0 14 21" fill="none" xmlns="http://www.w3.org/2000/svg">
<g clip-path="url(#clip0_919_480)">
<path d="M3.86035 15.3154C4.44078 16.0526 4.96907 16.8291 5.44142 17.6393C5.84469 18.4012 6.0128 18.9179 6.30751 19.836C6.48825 20.3432 6.6516 20.4946 7.0028 20.4946C7.38551 20.4946 7.55914 20.2371 7.69329 19.8388C7.97187 18.9717 8.19045 18.3101 8.53531 17.6848C9.21202 16.4777 10.0529 15.4051 10.8791 14.3742C11.1028 14.0824 12.5489 12.3826 13.2 11.0414C13.2 11.0414 14.0002 9.56814 14.0002 7.51054C14.0002 5.58585 13.211 4.25098 13.211 4.25098L10.939 4.8573L9.55928 8.47861L9.21792 8.97795L9.14967 9.06842L9.05889 9.18166L8.89953 9.36253L8.67181 9.5894L7.44315 10.5869L4.37135 12.3543L3.86035 15.3154Z" fill="#34A853"/>
<path d="M0.689453 10.794C1.43916 12.5005 2.88488 14.0005 3.86302 15.3169L9.05839 9.18428C9.05839 9.18428 8.32645 10.1382 6.99875 10.1382C5.51984 10.1382 4.32508 8.96134 4.32508 7.47742C4.32508 6.45982 4.93944 5.76074 4.93944 5.76074L1.4127 6.70243L0.689453 10.794Z" fill="#FBBC04"/>
<path d="M9.11641 0.81543C10.8419 1.36982 12.3188 2.53369 13.2121 4.24993L9.05998 9.18061C9.05998 9.18061 9.67434 8.46889 9.67434 7.45761C9.67434 5.93913 8.3912 4.80475 7.00504 4.80475C5.69423 4.80475 4.94141 5.75706 4.94141 5.75706V2.6508L9.11641 0.81543Z" fill="#4285F4"/>
<path d="M1.6416 2.99401C2.67219 1.76529 4.48563 0.5 6.98572 0.5C8.19869 0.5 9.11252 0.81733 9.11252 0.81733L4.93789 5.75973H1.98012L1.6416 2.99401Z" fill="#1A73E8"/>
<path d="M0.689719 10.794C0.689719 10.794 0 9.44804 0 7.49817C0 5.65529 0.718922 4.04439 1.64145 2.99414L4.94009 5.7603L0.689719 10.794Z" fill="#EA4335"/>
</g>
<defs>
<clipPath id="clip0_919_480">
<rect width="14" height="20" fill="white" transform="translate(0 0.5)"/>
</clipPath>
</defs>
</svg>
