<svg width="228" height="26" viewBox="0 0 228 26" fill="none" xmlns="http://www.w3.org/2000/svg">
<path d="M0 0.103421C2.20232 0.103421 4.40464 0.103421 6.6737 0.103421C6.75927 0.275397 6.75639 0.440774 6.76955 0.630107C6.83964 1.61396 7.01178 2.57883 7.17895 3.54952C7.25486 3.99093 7.32605 4.43304 7.39562 4.87551C7.45206 5.23406 7.50898 5.59245 7.56908 5.95039C7.64239 6.39066 7.70955 6.83183 7.77597 7.27319C7.79656 7.40985 7.8173 7.54649 7.83804 7.68312C7.90417 8.12076 7.96706 8.55839 8.02328 8.99744C8.06361 9.30646 8.11368 9.6092 8.17769 9.91396C8.26809 10.3774 8.33473 10.8455 8.4063 11.3122C8.41493 11.3682 8.42356 11.4242 8.43246 11.4819C8.5378 12.1684 8.63878 12.8533 8.6898 13.5464C8.71974 13.9498 8.78579 14.344 8.85549 14.7421C8.8732 14.8462 8.89083 14.9502 8.90838 15.0542C8.91725 15.1067 8.92612 15.1592 8.93525 15.2133C9.03715 15.8193 9.13363 16.426 9.22648 17.0335C9.23651 17.0989 9.24653 17.1644 9.25687 17.2319C9.30793 17.5654 9.35868 17.899 9.40901 18.2326C9.42795 18.3568 9.4469 18.481 9.46586 18.6051C9.47454 18.6633 9.48322 18.7216 9.49217 18.7816C9.51021 19.0401 9.51021 19.0401 9.62554 19.2563C9.65657 19.1936 9.6876 19.1309 9.71957 19.0663C9.8364 18.8303 9.95341 18.5944 10.0705 18.3585C10.1208 18.257 10.1711 18.1555 10.2213 18.054C10.478 17.5352 10.7342 17.0177 11.0184 16.5135C11.1222 16.3146 11.2064 16.1094 11.294 15.9029C11.3618 15.761 11.4307 15.6196 11.5008 15.4787C11.5201 15.4398 11.5394 15.4008 11.5594 15.3607C11.6218 15.235 11.6845 15.1095 11.7472 14.984C11.7688 14.9406 11.7904 14.8973 11.8126 14.8527C12.1377 14.2006 12.4708 13.5534 12.8108 12.9091C13.3693 11.8482 13.9094 10.7799 14.4303 9.7C15.0025 8.51374 15.5859 7.33327 16.1725 6.15411C16.2422 6.01382 16.3119 5.8735 16.3816 5.73317C16.8787 4.73243 17.3784 3.7337 17.9035 2.74742C17.9598 2.64126 18.0162 2.53509 18.0725 2.42892C18.1471 2.28835 18.2217 2.1478 18.2968 2.00748C18.4148 1.78497 18.5177 1.56317 18.6094 1.32869C18.6599 1.23378 18.7121 1.1397 18.7658 1.04655C18.8671 0.866808 18.9597 0.689219 19.0385 0.498408C19.1227 0.296884 19.1227 0.296884 19.2511 0.103421C19.3701 0.0796157 19.3701 0.0796157 19.5174 0.0801561C19.5732 0.0798901 19.629 0.0796242 19.6865 0.0793502C19.7478 0.0800457 19.8092 0.0807413 19.8724 0.0814579C19.9369 0.0814297 20.0013 0.0814014 20.0678 0.0813723C20.2817 0.0815075 20.4955 0.0830145 20.7094 0.084528C20.8574 0.0848887 21.0054 0.0851642 21.1535 0.0853575C21.5436 0.0860973 21.9337 0.0879988 22.3238 0.0901368C22.7217 0.0921135 23.1195 0.092999 23.5174 0.0939745C24.2985 0.0960513 25.0795 0.0993546 25.8606 0.103421C25.7838 0.34019 25.7058 0.55734 25.5851 0.775C25.541 0.855279 25.541 0.855279 25.496 0.93718C25.4641 0.994554 25.4322 1.05193 25.3994 1.11104C25.3302 1.23704 25.2611 1.36308 25.1921 1.48915C25.1552 1.55645 25.1182 1.62376 25.0802 1.6931C24.8891 2.04298 24.7003 2.3941 24.5123 2.74568C24.4705 2.82389 24.4285 2.90204 24.3865 2.98015C24.1541 3.41204 23.9342 3.84316 23.743 4.29512C23.7006 4.29512 23.6583 4.29512 23.6146 4.29512C23.5975 4.35078 23.5804 4.40643 23.5627 4.46377C23.4868 4.6807 23.3956 4.87506 23.2903 5.07905C23.2712 5.11619 23.2521 5.15332 23.2324 5.19159C23.1703 5.31209 23.1077 5.43237 23.0451 5.55263C23.0018 5.63642 22.9584 5.72021 22.9151 5.804C22.5051 6.59452 22.0818 7.37755 21.651 8.15677C21.5997 8.25007 21.5997 8.25007 21.5474 8.34526C21.5163 8.40161 21.4852 8.45796 21.4532 8.51602C21.3666 8.67737 21.3666 8.67737 21.3054 8.8423C21.2349 9.01614 21.146 9.16566 21.0478 9.32517C20.7895 9.78892 20.5448 10.2597 20.3019 10.7318C20.0028 11.3113 19.6959 11.8859 19.38 12.4563C19.2101 12.7654 19.0549 13.0758 18.9161 13.4003C18.8805 13.4832 18.8421 13.565 18.8019 13.6458C18.7595 13.6458 18.7172 13.6458 18.6735 13.6458C18.6561 13.7021 18.6387 13.7583 18.6207 13.8163C18.5486 14.023 18.4638 14.2075 18.3632 14.4016C18.309 14.5066 18.309 14.5066 18.2536 14.6138C18.2148 14.6881 18.1761 14.7624 18.1361 14.8389C18.0956 14.9168 18.0552 14.9947 18.0147 15.0726C17.5924 15.8842 17.1626 16.6924 16.7096 17.4871C16.4536 17.9364 16.2108 18.3776 16.0426 18.8694C16.0002 18.8694 15.9579 18.8694 15.9142 18.8694C15.8965 18.9262 15.8788 18.983 15.8605 19.0415C15.7922 19.2381 15.7137 19.4127 15.6179 19.5969C15.5846 19.6611 15.5513 19.7254 15.517 19.7916C15.4813 19.8597 15.4456 19.9278 15.4089 19.9979C15.3537 20.1039 15.3537 20.1039 15.2975 20.212C15.0148 20.7532 14.7255 21.2906 14.4301 21.8248C14.2654 22.1242 14.1166 22.4214 13.9891 22.7386C13.9468 22.7386 13.9044 22.7386 13.8608 22.7386C13.8349 22.8224 13.8349 22.8224 13.8085 22.9079C13.734 23.1211 13.6451 23.312 13.5414 23.5125C13.4847 23.6223 13.4847 23.6223 13.4269 23.7344C13.4072 23.7722 13.3874 23.8101 13.3671 23.849C13.3085 23.9616 13.2504 24.0745 13.1922 24.1873C12.9144 24.7235 12.6196 25.2438 12.3207 25.7695C9.75837 25.7695 7.19605 25.7695 4.55609 25.7695C4.43801 25.2553 4.32529 24.7484 4.23524 24.2299C4.16237 23.8177 4.08695 23.4066 4.00262 22.9966C3.94438 22.7095 3.89602 22.4245 3.85824 22.134C3.80156 21.7121 3.71893 21.2976 3.63364 20.8806C3.46721 20.0631 3.33475 19.2424 3.20851 18.4179C2.93936 16.6742 2.65413 14.9299 2.29935 13.2015C2.22603 12.8428 2.16391 12.4823 2.10189 12.1216C1.94143 11.1884 1.7734 10.2567 1.60426 9.32517C1.5601 9.082 1.51598 8.83883 1.4719 8.59565C1.46127 8.53707 1.45064 8.47848 1.43969 8.41813C1.38958 8.14137 1.34005 7.86454 1.29205 7.58741C1.28343 7.53771 1.27482 7.488 1.26594 7.43678C1.25013 7.34524 1.23444 7.25367 1.21891 7.16208C1.17566 6.91129 1.12222 6.66557 1.05881 6.41919C0.946018 5.94977 0.89458 5.47323 0.839978 4.99414C0.832699 4.93089 0.82542 4.86763 0.81792 4.80246C0.811752 4.74667 0.805584 4.69088 0.79923 4.6334C0.756281 4.32541 0.69807 4.02049 0.641702 3.71473C0.619439 3.59129 0.597251 3.46783 0.575135 3.34435C0.563789 3.2811 0.552444 3.21785 0.540754 3.15268C0.5231 3.0542 0.5231 3.0542 0.50509 2.95373C0.486362 2.84926 0.486362 2.84926 0.467256 2.74268C0.441099 2.59674 0.414946 2.4508 0.388797 2.30487C0.362112 2.15597 0.335416 2.00707 0.30871 1.85818C0.269869 1.64163 0.231061 1.42508 0.19226 1.20853C0.180361 1.14222 0.168462 1.07591 0.156202 1.0076C0.145059 0.945362 0.133915 0.883127 0.122434 0.819005C0.112704 0.764723 0.102974 0.710441 0.0929487 0.654514C0.0607824 0.471022 0.0304796 0.287204 0 0.103421Z" fill="#FFE14C"/>
<path d="M28.4274 0.103407C33.5732 0.103407 38.719 0.103407 44.0208 0.103407C44.0208 0.610854 44.0208 0.610854 43.9692 0.865672C43.9582 0.921 43.9473 0.976327 43.9361 1.03333C43.9184 1.11967 43.9184 1.11967 43.9005 1.20776C43.8765 1.32941 43.8526 1.45108 43.8288 1.57277C43.8174 1.63105 43.806 1.68934 43.7943 1.74939C43.7577 1.94303 43.7277 2.13716 43.6999 2.33226C43.6413 2.73477 43.5621 3.13221 43.4807 3.53059C43.3764 4.04247 43.2825 4.55504 43.1866 5.06896C40.0737 5.06896 36.9608 5.06896 33.7536 5.06896C33.7324 5.32433 33.7112 5.57971 33.6894 5.84282C33.6504 6.09994 33.6091 6.35524 33.5635 6.61113C33.5451 6.717 33.5451 6.717 33.5264 6.82502C33.4874 7.04851 33.4481 7.27191 33.4086 7.49531C33.3698 7.71735 33.331 7.93941 33.2923 8.16147C33.2683 8.29874 33.2442 8.436 33.2201 8.57324C33.1157 9.16721 33.018 9.76189 32.9193 10.357C35.6511 10.357 38.3828 10.357 41.1973 10.357C41.1186 10.9106 41.0377 11.4567 40.9324 12.0047C40.9199 12.0707 40.9074 12.1368 40.8945 12.2048C40.842 12.4828 40.789 12.7606 40.736 13.0385C40.697 13.2433 40.6582 13.4482 40.6195 13.6531C40.6076 13.715 40.5957 13.7769 40.5835 13.8407C40.5306 14.1205 40.4843 14.3977 40.4553 14.6812C40.4273 14.9356 40.4273 14.9356 40.3631 15.0646C37.6102 15.0646 34.8573 15.0646 32.021 15.0646C31.9892 15.3199 31.9892 15.3199 31.9568 15.5805C31.9427 15.6784 31.9282 15.7762 31.9129 15.8739C31.9051 15.9239 31.8973 15.9739 31.8892 16.0254C31.8811 16.0768 31.8729 16.1281 31.8645 16.181C31.8518 16.262 31.8518 16.262 31.8387 16.3446C31.7942 16.6252 31.7477 16.9052 31.6961 17.1846C31.6254 17.5728 31.5673 17.9633 31.5076 18.3534C31.3594 19.1621 31.2111 19.9708 31.0584 20.804C34.1501 20.804 37.2418 20.804 40.4273 20.804C40.2684 21.6978 40.2684 21.6978 40.1064 22.6096C40.0371 23.03 39.9684 23.4504 39.9019 23.8712C39.6142 25.6838 39.6142 25.6838 39.5289 25.7695C39.3285 25.7758 39.1296 25.7779 38.9292 25.7773C38.8654 25.7773 38.8017 25.7774 38.736 25.7774C38.5208 25.7776 38.3055 25.7772 38.0902 25.7768C37.9365 25.7768 37.7829 25.7768 37.6293 25.7769C37.2976 25.7769 36.9659 25.7767 36.6343 25.7763C36.1547 25.7758 35.6752 25.7757 35.1956 25.7756C34.4177 25.7754 33.6398 25.775 32.8618 25.7744C32.1059 25.7738 31.3501 25.7733 30.5942 25.7731C30.5476 25.7731 30.5011 25.773 30.4531 25.773C30.2195 25.7729 29.986 25.7729 29.7524 25.7728C27.8134 25.7721 25.8745 25.771 23.9355 25.7695C23.9326 25.4516 23.9384 25.1844 24.02 24.875C24.1387 24.3891 24.216 23.9002 24.2924 23.4062C24.4061 22.6723 24.5227 21.9405 24.6753 21.2136C24.792 20.6496 24.8815 20.0807 24.9727 19.512C25.035 19.1263 25.1015 18.7424 25.1791 18.3595C25.3049 17.7381 25.415 17.1139 25.5261 16.4897C25.5645 16.274 25.603 16.0583 25.6416 15.8426C25.7479 15.2477 25.854 14.6527 25.9584 14.0574C26.0816 13.3557 26.2094 12.6556 26.3499 11.9571C26.5229 11.0966 26.6844 10.245 26.7741 9.37144C26.823 8.90913 26.9027 8.45508 26.9873 7.99824C27.0545 7.62841 27.1164 7.25759 27.1796 6.88704C27.1949 6.79822 27.1949 6.79822 27.2104 6.70761C27.2193 6.65582 27.2282 6.60404 27.2373 6.55068C27.2667 6.38984 27.2982 6.22977 27.3307 6.06953C27.4129 5.65856 27.4845 5.24582 27.5564 4.83293C27.5712 4.74807 27.5861 4.66321 27.601 4.57835C27.6634 4.22228 27.7258 3.86617 27.7878 3.51003C27.8261 3.29057 27.8646 3.07114 27.9031 2.85173C27.9242 2.73162 27.945 2.61146 27.9659 2.49131C28.1065 1.69216 28.2689 0.899976 28.4274 0.103407Z" fill="#FFE14C"/>
<path fill-rule="evenodd" clip-rule="evenodd" d="M217.429 0.0212919C219.866 0.018861 222.282 0.778362 224.211 2.296L224.37 2.41691C224.636 2.6195 224.882 2.82401 225.109 3.06985L225.239 3.20814C226.354 4.42002 227.142 5.87807 227.612 7.45501L227.678 7.66536C228.105 9.32085 228.057 11.2897 227.825 12.9761C227.801 13.1512 227.781 13.3266 227.76 13.502C227.744 13.6292 227.728 13.7564 227.712 13.8836C227.705 13.9415 227.698 13.9994 227.691 14.0591C227.648 14.3801 227.579 14.6702 227.47 14.9748C227.413 15.1495 227.371 15.3249 227.329 15.5041C227.231 15.9081 227.093 16.2877 226.938 16.6727L226.853 16.884C226.158 18.5744 225.173 20.3212 223.826 21.5778L223.505 21.9003L223.409 22.0053C222.174 23.3239 220.337 24.456 218.628 24.9957C218.545 25.0268 218.461 25.0584 218.378 25.0904C216.742 25.7139 214.987 25.9991 213.243 25.9882C213.045 25.9872 212.848 25.9882 212.65 25.9894C211.505 25.9906 210.415 25.8687 209.323 25.5116L209.09 25.4393C206.55 24.6274 204.584 22.9366 203.349 20.5592C203.072 20.0113 202.849 19.45 202.65 18.8693L202.576 18.6635C202.207 17.568 202.167 16.424 202.176 15.2782C202.177 15.2132 202.177 15.1482 202.177 15.0812C202.195 12.0343 202.927 8.84831 204.767 6.35872C204.826 6.27688 204.884 6.19501 204.943 6.11312C205.361 5.53364 205.812 5.00198 206.307 4.48858C206.34 4.45359 206.374 4.41864 206.408 4.38259C207.702 3.01755 209.338 1.87563 211.099 1.21557C211.235 1.16451 211.37 1.11179 211.504 1.05687C212.356 0.710005 213.248 0.466464 214.148 0.280754C214.194 0.271025 214.241 0.261306 214.288 0.251281C215.178 0.0777931 216.074 0.0171677 216.978 0.0221105C217.128 0.0228053 217.279 0.0221098 217.429 0.0212919ZM220.617 4.81102C219.294 3.90966 217.527 3.86639 215.995 3.9029C213.576 3.97049 211.37 4.94256 209.68 6.70005L209.516 6.87462C208.905 7.51308 208.389 8.21999 207.957 8.99214L207.847 9.19618C207.576 9.69478 207.336 10.1976 207.141 10.7318L207.081 10.9011C206.971 11.2077 206.88 11.498 206.846 11.8233C206.832 11.986 206.813 12.1305 206.777 12.2906C206.255 14.2152 206.248 16.7589 207.146 18.5832L207.27 18.8049C207.865 20.1673 209.127 21.2323 210.486 21.7735C210.538 21.7933 210.588 21.8125 210.639 21.8317C211.468 22.1492 212.311 22.2496 213.191 22.246C213.349 22.2444 213.507 22.2429 213.665 22.2431C213.872 22.2437 214.08 22.243 214.287 22.2398C216.573 22.1812 218.903 21.0012 220.476 19.3472L220.617 19.1918C221.528 18.1892 222.201 17.0842 222.735 15.8384C223.719 13.4812 224.162 10.3672 223.183 7.93011L223.12 7.77745C222.681 6.54784 221.829 5.63883 220.766 4.90825L220.617 4.81102Z" fill="#FFE14C"/>
<path d="M82.3946 0.103407C87.8792 0.103407 93.3638 0.103407 99.0147 0.103407C98.9727 0.65176 98.9231 1.17679 98.8302 1.7156C98.813 1.81741 98.813 1.81741 98.7955 1.92128C98.7276 2.316 98.6479 2.70468 98.5519 3.09352C98.462 3.50958 98.3985 3.93056 98.3317 4.35091C98.3214 4.41579 98.311 4.48067 98.3003 4.54752C98.2911 4.60601 98.2819 4.6645 98.2724 4.72477C98.2446 4.8755 98.2446 4.8755 98.1805 5.06896C94.7499 5.06896 91.3194 5.06896 87.7849 5.06896C87.7425 5.38818 87.7002 5.70739 87.6565 6.03628C87.6061 6.3484 87.5544 6.65992 87.5001 6.97135C87.4859 7.05341 87.4718 7.13547 87.4572 7.22001C87.3753 7.6904 87.2882 8.15884 87.1916 8.62637C87.1113 9.03685 87.0427 9.44943 86.9736 9.86193C86.9632 9.92321 86.9528 9.98448 86.9421 10.0476C86.933 10.1026 86.9238 10.1576 86.9143 10.2142C86.8865 10.357 86.8865 10.357 86.8223 10.5504C89.3846 10.5504 91.947 10.5504 94.5869 10.5504C94.4424 11.4946 94.4424 11.4946 94.3804 11.8429C94.3669 11.9188 94.3534 11.9947 94.3395 12.0728C94.3259 12.149 94.3122 12.2252 94.2982 12.3037C94.2845 12.3806 94.2709 12.4576 94.2568 12.5368C94.1791 12.9722 94.0958 13.4053 94.0094 13.8393C93.9247 14.3288 93.84 14.8182 93.7527 15.3225C91.1692 15.3225 88.5857 15.3225 85.9239 15.3225C85.9028 15.6843 85.8816 16.0461 85.8598 16.4188C85.819 16.6472 85.7756 16.8641 85.7194 17.0879C85.5686 17.7359 85.449 18.3868 85.3384 19.0426C85.3301 19.0917 85.3218 19.1407 85.3133 19.1912C85.2288 19.692 85.1462 20.193 85.0746 20.6959C85.0663 20.7528 85.0581 20.8098 85.0496 20.8685C85.0436 20.9112 85.0375 20.954 85.0313 20.998C84.9819 21.3365 84.9175 21.669 84.8443 22.003C84.689 22.7285 84.5625 23.4586 84.436 24.1896C84.4019 24.3864 84.3677 24.5831 84.3333 24.7799C84.3121 24.9009 84.2912 25.022 84.2703 25.1431C84.2609 25.1973 84.2514 25.2514 84.2417 25.3072C84.2335 25.3546 84.2253 25.402 84.2168 25.4509C84.1914 25.5761 84.1913 25.5761 84.1272 25.7695C82.0731 25.7695 80.019 25.7695 77.9027 25.7695C77.9703 25.0223 77.9703 25.0223 78.1124 24.6321C78.2046 24.3328 78.2267 24.0205 78.2596 23.7099C78.3062 23.2862 78.359 22.8696 78.4465 22.4522C78.5117 22.1328 78.5625 21.8107 78.6166 21.4892C78.753 20.6861 78.8961 19.8844 79.0417 19.083C79.0525 19.0235 79.0633 18.9641 79.0744 18.9029C79.0853 18.8427 79.0963 18.7825 79.1075 18.7205C79.13 18.5965 79.1525 18.4726 79.175 18.3486C79.1864 18.2862 79.1977 18.2238 79.2094 18.1595C79.3542 17.3614 79.4968 16.563 79.6394 15.7645C79.771 15.0276 79.9034 14.2908 80.0381 13.5544C80.0616 13.4253 80.0852 13.2962 80.1088 13.1671C80.1525 12.9272 80.1966 12.6874 80.2409 12.4476C80.3436 11.8867 80.4362 11.3279 80.5011 10.7612C80.5363 10.533 80.5974 10.3204 80.662 10.099C80.6805 9.99658 80.6968 9.89369 80.7099 9.79042C80.7171 9.73546 80.7244 9.68049 80.7319 9.62387C80.7393 9.56652 80.7466 9.50918 80.7542 9.4501C80.8058 9.06757 80.8604 8.68998 80.9467 8.3135C81.0391 7.90493 81.1021 7.49454 81.1633 7.08017C81.2646 6.39656 81.3804 5.7165 81.5042 5.03672C81.5124 4.99146 81.5207 4.94621 81.5291 4.89958C81.6002 4.5093 81.6713 4.11908 81.7504 3.73034C81.8454 3.25895 81.9273 2.78503 82.0116 2.31161C82.0415 2.14366 82.0715 1.97573 82.1016 1.8078C82.121 1.69864 82.1405 1.58948 82.16 1.48032C82.1731 1.40683 82.1731 1.40683 82.1865 1.33185C82.2592 0.92284 82.3266 0.51333 82.3946 0.103407Z" fill="#FFE14C"/>
<path d="M132.289 2.41515C132.342 2.46095 132.394 2.50676 132.447 2.55395C132.541 2.63562 132.541 2.63562 132.637 2.71895C133.779 3.72824 134.787 5.12577 135.105 6.64363C135.141 6.80202 135.19 6.9423 135.251 7.09227C135.335 7.32604 135.335 7.32604 135.335 7.71297C133.683 7.71297 132.032 7.71297 130.33 7.71297C130.073 7.13258 130.073 7.13258 129.965 6.85447C129.456 5.70471 128.38 4.89718 127.25 4.42409C125.049 3.58033 122.326 3.79798 120.187 4.72638C117.64 5.88196 115.654 8.11382 114.667 10.7278C114.579 10.9684 114.495 11.2096 114.416 11.4533C114.393 11.5217 114.371 11.5901 114.348 11.6606C114.258 12.0243 114.208 12.3924 114.155 12.7632C114.144 12.8388 114.133 12.9144 114.121 12.9923C113.903 14.4944 113.589 16.7527 114.48 18.0955C114.507 18.1808 114.532 18.2669 114.556 18.3534C114.998 19.711 116.301 20.7852 117.503 21.4267C118.33 21.8329 119.223 22.0998 120.144 22.1114C120.231 22.1126 120.231 22.1126 120.32 22.1138C122.565 22.1406 122.565 22.1406 124.683 21.4489C124.766 21.409 124.849 21.3693 124.932 21.3297C126.025 20.8018 127.374 20.0148 128.007 18.9288C128.199 18.6034 128.341 18.389 128.714 18.2855C129.016 18.254 129.317 18.2663 129.62 18.2779C129.731 18.2793 129.843 18.2804 129.954 18.2812C130.246 18.2841 130.537 18.2917 130.829 18.3003C131.127 18.3083 131.425 18.3118 131.723 18.3157C132.307 18.3239 132.89 18.3371 133.474 18.3534C133.1 19.1224 132.594 19.8166 132.062 20.4815C132.019 20.5387 131.975 20.5959 131.93 20.6548C131.25 21.5258 130.446 22.2784 129.56 22.9321C129.487 22.9867 129.415 23.0414 129.342 23.0961C128.814 23.4895 128.259 23.8284 127.688 24.1548C127.59 24.2108 127.493 24.2677 127.395 24.3249C127.107 24.4921 126.816 24.6208 126.505 24.7397C126.364 24.7969 126.235 24.8622 126.103 24.9352C125.837 25.0722 125.566 25.1362 125.276 25.2035C125.063 25.2549 124.853 25.3156 124.643 25.3786C121.997 26.139 119.133 26.2739 116.508 25.3751C116.354 25.3225 116.199 25.2725 116.044 25.2231C113.687 24.4551 111.76 22.637 110.638 20.4372C109.225 17.5349 109.258 13.9674 110.246 10.9285C110.502 10.1815 110.796 9.46045 111.162 8.76165C111.249 8.59353 111.325 8.42835 111.396 8.25305C111.898 7.09631 112.821 6.06894 113.645 5.13346C113.674 5.10027 113.703 5.06708 113.733 5.03288C114.068 4.64984 114.408 4.29575 114.801 3.97268C114.874 3.91046 114.948 3.84824 115.022 3.78602C115.981 2.98567 116.969 2.29695 118.073 1.71561C118.171 1.66373 118.171 1.66373 118.27 1.61081C118.54 1.47124 118.811 1.35004 119.097 1.24757C119.245 1.19359 119.391 1.13446 119.537 1.07476C123.561 -0.547187 128.819 -0.510375 132.289 2.41515Z" fill="#FFE14C"/>
<path d="M72.1453 0.0953934C72.2323 0.0957412 72.2323 0.0957412 72.321 0.096096C72.3817 0.0960866 72.4424 0.0960771 72.505 0.0960674C72.7067 0.0961126 72.9085 0.0966152 73.1102 0.0971193C73.2497 0.0972396 73.3891 0.0973314 73.5286 0.0973959C73.8965 0.0976426 74.2643 0.0982766 74.6322 0.098989C75.0072 0.0996475 75.3823 0.0999429 75.7573 0.100268C76.4938 0.100961 77.2303 0.102062 77.9668 0.103417C77.8724 0.72161 77.777 1.33959 77.6784 1.95712C77.6623 2.05873 77.6462 2.16035 77.6303 2.26199C77.5348 2.87117 77.4259 3.47482 77.2963 4.07763C77.1591 4.72086 77.0466 5.36851 76.9321 6.01614C76.9075 6.1546 76.8828 6.29307 76.8581 6.43153C76.7922 6.80173 76.7265 7.17198 76.6609 7.54224C76.5594 8.11539 76.4577 8.68851 76.356 9.26164C76.2998 9.57825 76.2437 9.89489 76.1877 10.2115C76.1619 10.3574 76.136 10.5033 76.1102 10.6492C76.0986 10.7146 76.0871 10.78 76.0752 10.8475C75.9948 11.3006 75.908 11.7521 75.8139 12.2026C75.7808 12.3788 75.7753 12.5477 75.769 12.7269C75.736 13.2156 75.6421 13.6829 75.5426 14.1619C75.4053 14.8286 75.2872 15.4981 75.1714 16.1689C75.1617 16.2253 75.1519 16.2816 75.1419 16.3397C75.0535 16.8508 74.9659 17.362 74.8786 17.8733C74.7663 18.5302 74.6483 19.1857 74.5257 19.8407C74.5102 19.9239 74.4946 20.0071 74.4786 20.0928C74.3966 20.5318 74.3142 20.9708 74.2311 21.4097C74.1588 21.7915 74.0871 22.1735 74.0157 22.5555C73.9871 22.7077 73.9584 22.8599 73.9294 23.012C73.888 23.2295 73.8473 23.447 73.8068 23.6646C73.7946 23.7276 73.7825 23.7906 73.77 23.8554C73.6522 24.4948 73.6043 25.1143 73.5391 25.7695C71.4638 25.7695 69.3886 25.7695 67.2504 25.7695C67.2991 25.2307 67.36 24.7036 67.4389 24.1694C67.4498 24.0928 67.4607 24.0162 67.4719 23.9373C67.4827 23.8632 67.4936 23.7891 67.5048 23.7127C67.5193 23.6131 67.5193 23.6131 67.5341 23.5115C67.5713 23.319 67.5713 23.319 67.634 23.1394C67.7199 22.8678 67.7525 22.598 67.7886 22.3159C67.8757 21.6708 67.9853 21.0317 68.104 20.3918C68.161 20.0849 68.2171 19.7778 68.2731 19.4706C68.2844 19.4091 68.2956 19.3476 68.3072 19.2842C68.4319 18.5994 68.5484 17.9133 68.6627 17.2268C68.7453 16.7331 68.837 16.2422 68.9362 15.7517C69.0108 15.3758 69.0772 14.9986 69.1434 14.6212C69.1573 14.5425 69.1712 14.4638 69.1855 14.3827C69.2251 14.1586 69.2645 13.9345 69.3039 13.7103C69.322 13.6076 69.3401 13.5049 69.3582 13.4022C69.4482 12.8925 69.5365 12.3825 69.6247 11.8724C69.6468 11.7445 69.669 11.6167 69.6911 11.4888C69.7279 11.2764 69.7645 11.0639 69.8009 10.8515C69.8994 10.2798 70.0057 9.70965 70.114 9.13976C70.135 9.02862 70.135 9.02862 70.1565 8.91523C70.1698 8.84585 70.183 8.77646 70.1967 8.70497C70.2086 8.64272 70.2205 8.58047 70.2327 8.51633C70.2664 8.35785 70.2664 8.35785 70.3306 8.16438C70.3482 7.94814 70.3591 7.73189 70.3704 7.51522C70.3938 7.27104 70.436 7.04062 70.486 6.80099C70.5279 6.59263 70.5638 6.38369 70.599 6.17408C70.6122 6.09557 70.6254 6.01705 70.639 5.93616C70.6659 5.77529 70.6926 5.61441 70.7192 5.45351C70.7823 5.07951 70.8501 4.70951 70.9387 4.34071C71.0512 3.86502 71.126 3.38504 71.2009 2.90225C71.2418 2.63925 71.2837 2.37643 71.3257 2.11362C71.3339 2.06232 71.3421 2.01103 71.3506 1.95818C71.4181 1.53771 71.4908 1.11838 71.5699 0.699929C71.5801 0.645147 71.5903 0.590365 71.6008 0.533923C71.6846 0.100246 71.7041 0.0961389 72.1453 0.0953934Z" fill="#FFE14C"/>
<path d="M102.69 0.0953934C102.777 0.0957412 102.777 0.0957412 102.866 0.096096C102.927 0.0960866 102.987 0.0960771 103.05 0.0960674C103.252 0.0961126 103.453 0.0966152 103.655 0.0971193C103.795 0.0972396 103.934 0.0973314 104.074 0.0973959C104.441 0.0976426 104.809 0.0982766 105.177 0.098989C105.552 0.0996475 105.927 0.0999429 106.302 0.100268C107.039 0.100961 107.775 0.102062 108.512 0.103417C108.502 0.19535 108.492 0.287272 108.482 0.379189C108.477 0.430379 108.471 0.48157 108.465 0.534311C108.441 0.737307 108.405 0.936799 108.366 1.13749C108.35 1.22077 108.335 1.30406 108.318 1.38987C108.31 1.43312 108.302 1.47638 108.293 1.52095C108.164 2.19444 108.039 2.86827 107.93 3.54545C107.832 4.15687 107.718 4.76454 107.6 5.37244C107.496 5.90677 107.405 6.44214 107.318 6.97939C107.19 7.76252 107.057 8.54335 106.885 9.31811C106.829 9.58964 106.789 9.86261 106.749 10.1371C106.699 10.4615 106.633 10.7828 106.566 11.1044C106.524 11.342 106.51 11.5776 106.496 11.8185C106.466 12.2772 106.382 12.7105 106.282 13.1582C106.119 13.9148 105.984 14.6717 105.87 15.4372C105.804 15.8691 105.726 16.2958 105.634 16.7226C105.461 17.5308 105.322 18.3453 105.179 19.1595C105.125 19.4665 105.071 19.7735 105.017 20.0805C105.004 20.156 104.99 20.2315 104.977 20.3093C104.868 20.9218 104.756 21.5336 104.642 22.145C104.532 22.7345 104.433 23.3255 104.341 23.918C104.33 23.9854 104.32 24.0527 104.309 24.1221C104.287 24.2589 104.266 24.3958 104.245 24.5327C104.234 24.5998 104.223 24.667 104.212 24.7362C104.199 24.8251 104.199 24.8251 104.184 24.9157C104.135 25.2013 104.077 25.4853 104.02 25.7695C101.966 25.7695 99.9118 25.7695 97.7954 25.7695C97.8676 24.9718 97.8676 24.9718 97.9293 24.6486C97.9426 24.5779 97.9559 24.5072 97.9696 24.4344C97.9836 24.3616 97.9976 24.2888 98.012 24.2138C98.0411 24.0594 98.0702 23.9049 98.0992 23.7505C98.1133 23.6764 98.1273 23.6022 98.1417 23.5258C98.1996 23.2166 98.2537 22.9067 98.3071 22.5966C98.3437 22.3858 98.3817 22.1755 98.4229 21.9655C98.5259 21.4379 98.6023 20.9154 98.6537 20.38C98.6803 20.1569 98.7277 19.9434 98.7805 19.7251C98.9212 19.1312 99.0088 18.5289 99.1029 17.9262C99.2565 16.9451 99.4273 15.9685 99.6097 14.9924C99.6968 14.5253 99.7825 14.058 99.8684 13.5907C99.8871 13.4891 99.9058 13.3876 99.9244 13.2861C99.9822 12.9721 100.04 12.658 100.098 12.344C100.107 12.2903 100.117 12.2367 100.127 12.1814C100.384 10.7823 100.64 9.38323 100.879 7.98082C100.946 7.58663 101.016 7.1953 101.106 6.80569C101.15 6.59793 101.168 6.38838 101.188 6.17736C101.245 5.6496 101.344 5.1355 101.452 4.6163C101.527 4.25531 101.589 3.89248 101.649 3.5287C101.703 3.20561 101.703 3.20561 101.774 3.13434C101.792 2.96506 101.808 2.79613 101.822 2.6265C101.875 2.06732 101.965 1.51801 102.067 0.96594C102.081 0.888309 102.095 0.810677 102.11 0.730692C102.23 0.0961717 102.23 0.0961717 102.69 0.0953934Z" fill="#FFE14C"/>
<path d="M189.623 0.361358C191.021 0.361358 192.418 0.361358 193.858 0.361358C193.714 1.30225 193.714 1.30225 193.644 1.67907C193.629 1.76248 193.614 1.84589 193.598 1.93183C193.59 1.97475 193.582 2.01767 193.574 2.06189C193.434 2.8239 193.301 3.58664 193.176 4.35154C193.086 4.9076 192.987 5.4588 192.865 6.00863C192.738 6.59689 192.65 7.19269 192.559 7.78738C192.499 8.1751 192.436 8.55927 192.347 8.94141C192.3 9.1459 192.266 9.35225 192.23 9.55892C192.222 9.60444 192.214 9.64996 192.206 9.69685C192.179 9.85237 192.152 10.0079 192.126 10.1635C192.093 10.3551 192.06 10.5467 192.027 10.7383C192.005 10.8649 191.983 10.9916 191.962 11.1182C191.894 11.5107 191.82 11.9013 191.741 12.2916C191.652 12.7397 191.587 13.1885 191.532 13.642C191.471 14.1442 191.408 14.6459 191.296 15.1395C191.232 15.4265 191.177 15.7144 191.126 16.0039C191.116 16.0547 191.107 16.1056 191.098 16.1579C191.069 16.3214 191.04 16.485 191.011 16.6485C190.99 16.7622 190.97 16.8758 190.95 16.9895C190.842 17.5967 190.737 18.2042 190.638 18.8129C190.526 19.5008 190.397 20.1841 190.265 20.8685C190.159 21.4218 190.053 21.9751 189.944 22.5451C192.76 22.5451 195.577 22.5451 198.479 22.5451C198.325 23.6262 198.108 24.6975 197.901 25.7695C193.708 25.7695 189.515 25.7695 185.195 25.7695C185.34 24.6789 185.34 24.6789 185.442 24.2054C185.547 23.6948 185.639 23.1827 185.725 22.6683C185.737 22.5955 185.749 22.5227 185.762 22.4477C185.812 22.1476 185.861 21.8474 185.911 21.5473C186.154 20.0713 186.154 20.0713 186.313 19.4232C186.372 19.1614 186.399 18.8986 186.423 18.6315C186.471 18.1106 186.471 18.1106 186.543 17.9665C186.559 17.8753 186.573 17.7836 186.584 17.6917C186.592 17.636 186.599 17.5804 186.607 17.523C186.615 17.4632 186.623 17.4034 186.631 17.3418C186.696 16.8685 186.773 16.402 186.871 15.9344C186.971 15.4411 187.05 14.9435 187.133 14.4473C187.146 14.3699 187.159 14.2926 187.173 14.2129C187.184 14.1441 187.196 14.0752 187.208 14.0043C187.25 13.7693 187.296 13.5354 187.343 13.3014C187.401 13.0115 187.454 12.7208 187.507 12.4301C187.519 12.3646 187.531 12.299 187.543 12.2315C187.569 12.0931 187.594 11.9547 187.619 11.8162C187.657 11.6101 187.695 11.4039 187.733 11.1978C187.87 10.4494 188 9.70035 188.121 8.94925C188.186 8.55732 188.266 8.17298 188.36 7.78705C188.455 7.34656 188.508 6.89796 188.568 6.45142C188.595 6.25651 188.622 6.06162 188.649 5.86675C188.655 5.82004 188.662 5.77334 188.668 5.72522C188.741 5.20053 188.815 4.67604 188.945 4.1621C189.041 3.75907 189.107 3.3543 189.168 2.94488C189.297 2.08039 189.467 1.2211 189.623 0.361358Z" fill="#FFE14C"/>
<path fill-rule="evenodd" clip-rule="evenodd" d="M176.057 0.402792C177.972 0.388714 179.957 0.93844 181.409 2.2315L181.54 2.3446C182.514 3.24695 183.139 4.64047 183.221 5.95844C183.29 8.62193 182.296 10.8498 180.542 12.7929C179.404 13.9867 177.763 14.8712 176.147 15.1935H175.955L176.059 15.4192C176.181 15.6932 176.286 15.9719 176.388 16.2535C176.541 16.6704 176.711 17.0759 176.893 17.4806C177.181 18.1214 177.453 18.7686 177.728 19.415C177.845 19.6911 177.964 19.9666 178.082 20.242C178.394 20.9656 178.697 21.6891 178.97 22.4286C179.19 23.0164 179.446 23.5872 179.7 24.1606C179.851 24.5003 179.996 24.8416 180.138 25.1851C180.157 25.2301 180.175 25.2751 180.195 25.3214C180.318 25.6247 180.318 25.6247 180.318 25.7695H175.313L174.928 24.6732C174.843 24.4492 174.757 24.2263 174.667 24.0042C174.646 23.9497 174.624 23.8953 174.601 23.8392C174.488 23.5578 174.37 23.2797 174.242 23.0046C174.091 22.6797 173.974 22.3465 173.856 22.0083C173.524 21.059 173.147 20.1277 172.774 19.1945C172.653 18.8926 172.533 18.5904 172.413 18.2882C172.362 18.1619 172.312 18.0355 172.262 17.9092C172.229 17.8269 172.197 17.7445 172.164 17.6621C172.011 17.2778 171.859 16.8938 171.7 16.512C171.678 16.4605 171.657 16.4089 171.635 16.3558C171.597 16.2645 171.558 16.1732 171.519 16.0822C171.444 15.9023 171.399 15.7782 171.399 15.5805H168.19V16.0319C168.177 16.1315 168.161 16.2307 168.141 16.3291C168.13 16.3825 168.12 16.4358 168.109 16.4908C168.097 16.5468 168.086 16.6029 168.074 16.6606C167.996 17.052 167.921 17.4428 167.863 17.8375C167.854 17.8934 167.846 17.9493 167.837 18.0068C167.831 18.0514 167.824 18.0959 167.817 18.1418C167.765 18.4767 167.702 18.8066 167.629 19.1374C167.447 19.9854 167.303 20.8408 167.154 21.6953C167.094 22.0446 167.032 22.394 166.971 22.7433C166.949 22.8701 166.927 22.997 166.905 23.1238C166.808 23.6717 166.708 24.2187 166.601 24.7645C166.554 25.0026 166.514 25.2385 166.487 25.4796C166.458 25.705 166.458 25.705 166.393 25.7695C166.265 25.7756 166.137 25.7771 166.009 25.7769C165.927 25.7769 165.845 25.7768 165.76 25.7768C165.67 25.7765 165.579 25.7762 165.489 25.7758C165.397 25.7757 165.305 25.7756 165.213 25.7756C164.97 25.7753 164.728 25.7747 164.485 25.774C164.238 25.7733 163.991 25.773 163.743 25.7727C163.258 25.772 162.772 25.7709 162.287 25.7695C162.356 25.1233 162.44 24.488 162.571 23.851C162.717 23.1178 162.832 22.3837 162.928 21.6423H163.057L163.05 21.5048C163.04 21.1416 163.059 20.8123 163.143 20.4581C163.218 20.1196 163.283 19.7821 163.336 19.4394C163.343 19.3937 163.351 19.3479 163.358 19.3008C163.373 19.2052 163.388 19.1096 163.402 19.0141C163.558 18.0131 163.734 17.0173 163.926 16.0229C163.944 15.9303 163.962 15.8376 163.98 15.745C163.988 15.7003 163.997 15.6557 164.006 15.6097C164.083 15.2077 164.149 14.8043 164.213 14.4C164.269 14.0464 164.269 14.0464 164.34 13.9038C164.359 13.7958 164.376 13.6874 164.391 13.5788C164.401 13.5116 164.411 13.4444 164.421 13.3752C164.431 13.3023 164.441 13.2293 164.452 13.1541C164.535 12.5975 164.629 12.0472 164.749 11.4976C164.895 10.8252 165.01 10.1495 165.118 9.47025C165.126 9.41844 165.135 9.36663 165.143 9.31325C165.219 8.83477 165.294 8.35611 165.363 7.87644C165.371 7.81795 165.38 7.75943 165.388 7.69916C165.403 7.59869 165.416 7.49813 165.429 7.39751C165.471 7.0961 165.549 6.8175 165.639 6.52724C165.721 6.24124 165.773 5.95036 165.824 5.65741C165.841 5.56364 165.841 5.56363 165.858 5.46798C165.921 5.10161 165.968 4.74033 165.99 4.36885C166.011 4.13494 166.05 3.906 166.092 3.67517C166.1 3.62779 166.109 3.58039 166.118 3.53158C166.145 3.37764 166.173 3.22373 166.201 3.06984C166.22 2.96463 166.239 2.85941 166.258 2.7542C166.306 2.48634 166.355 2.21856 166.404 1.95081C166.424 1.84079 166.444 1.73074 166.464 1.62069C166.493 1.45902 166.523 1.29734 166.552 1.13571C166.566 1.06199 166.566 1.06198 166.579 0.986771C166.615 0.794401 166.653 0.611713 166.714 0.425841C168.034 0.421307 169.354 0.417914 170.674 0.415828C171.287 0.414834 171.9 0.413517 172.513 0.411294C173.047 0.409356 173.582 0.40807 174.117 0.407641C174.399 0.407391 174.682 0.406857 174.965 0.405437C175.232 0.404108 175.499 0.403701 175.766 0.403989C175.863 0.403936 175.96 0.403544 176.057 0.402792ZM174.598 3.62976C174.481 3.63082 174.364 3.63155 174.247 3.6319C173.939 3.6324 173.631 3.6335 173.322 3.63562C173.004 3.63783 172.685 3.63921 172.366 3.64021C171.68 3.64231 170.994 3.64572 170.308 3.65023C170.23 3.99442 170.157 4.33913 170.092 4.68606C170.081 4.7413 170.071 4.79493 170.061 4.84854C170.039 4.96714 170.017 5.08575 169.995 5.20436C169.961 5.38741 169.927 5.57047 169.893 5.75345C169.771 6.40139 169.656 7.04903 169.562 7.70162C169.513 8.05392 169.454 8.39957 169.375 8.74633C169.333 8.92817 169.333 8.92818 169.251 9.34272C169.24 9.40252 169.228 9.46057 169.217 9.51861C169.176 9.72692 169.135 9.93528 169.095 10.1438L169.052 10.365C168.967 10.7982 168.893 11.2258 168.867 11.6669C168.863 11.7363 168.863 11.7364 168.859 11.8044C168.85 11.9668 168.841 12.1292 168.832 12.2916C169.434 12.2957 170.037 12.299 170.64 12.301C170.949 12.302 171.258 12.3029 171.566 12.3049C171.867 12.307 172.168 12.3089 172.469 12.3097C172.585 12.3099 172.701 12.3101 172.817 12.3105C173.69 12.3187 174.517 12.2501 175.377 12.0981V11.9691H175.57C176.269 11.757 176.935 11.3704 177.43 10.8293L177.559 10.6794C178.472 9.67784 178.84 8.49567 178.869 7.15473L178.871 6.94313C178.879 6.12239 178.773 5.36822 178.201 4.74652C177.16 3.80068 175.946 3.6181 174.598 3.62976Z" fill="#FFE14C"/>
<path fill-rule="evenodd" clip-rule="evenodd" d="M153.816 0.361358C154.406 3.42967 154.406 3.42967 154.607 4.63802C154.687 5.1143 154.778 5.58742 154.875 6.06046C155.018 6.75899 155.134 7.46081 155.241 8.16563C155.315 8.64073 155.405 9.10853 155.508 9.578C155.556 9.81325 155.584 10.0411 155.605 10.2804C155.65 10.7296 155.731 11.1673 155.822 11.6092C155.996 12.469 156.157 13.331 156.315 14.194C156.343 14.3485 156.371 14.5031 156.4 14.6576C156.547 15.458 156.692 16.2587 156.836 17.0597C157.014 18.0521 157.204 19.0424 157.394 20.0325C157.512 20.6502 157.629 21.2681 157.742 21.8869C157.757 21.9717 157.757 21.9717 157.773 22.0582C157.88 22.6484 157.966 23.2413 158.051 23.8349C158.084 24.0633 158.118 24.2917 158.152 24.5201C158.159 24.5712 158.166 24.6224 158.174 24.6751C158.213 24.9403 158.258 25.2031 158.311 25.4659C158.322 25.523 158.334 25.5801 158.346 25.639C158.354 25.682 158.363 25.7251 158.372 25.7695C157.804 25.771 157.236 25.7722 156.669 25.7729C156.405 25.7732 156.141 25.7736 155.878 25.7744C155.623 25.7751 155.369 25.7755 155.115 25.7756C155.018 25.7758 154.921 25.776 154.823 25.7763C154.688 25.7768 154.552 25.7769 154.416 25.7768C154.339 25.777 154.262 25.7771 154.182 25.7773C154.009 25.7695 154.009 25.7695 153.944 25.705C153.91 25.5324 153.878 25.3602 153.849 25.1866C153.84 25.1334 153.831 25.0802 153.821 25.0254C153.791 24.8516 153.761 24.6778 153.732 24.504C153.711 24.3853 153.691 24.2666 153.67 24.1479C153.621 23.8585 153.571 23.569 153.522 23.2796C153.474 23.0014 153.426 22.7234 153.378 22.4453C153.358 22.3288 153.338 22.2122 153.318 22.0956C153.264 21.7821 153.204 21.4713 153.134 21.1608C153.11 20.9975 153.11 20.9974 153.11 20.546L142.522 20.6105L141.816 22.0292C141.691 22.2671 141.565 22.5035 141.435 22.7386C141.404 22.7954 141.373 22.8522 141.341 22.9107C141.207 23.1554 141.073 23.3997 140.938 23.644C140.831 23.8392 140.724 24.0345 140.617 24.2299C140.584 24.2899 140.551 24.3499 140.516 24.4118C140.486 24.4676 140.455 24.5235 140.424 24.581C140.397 24.6301 140.37 24.6792 140.342 24.7297C140.279 24.8614 140.241 24.9819 140.212 25.1246H140.084L139.891 25.7695H135.528C135.585 25.4827 135.645 25.3231 135.781 25.0728C135.821 24.9998 135.86 24.9269 135.901 24.8518C135.943 24.7735 135.986 24.6951 136.029 24.6168C136.116 24.4548 136.204 24.2927 136.291 24.1306C136.313 24.0898 136.335 24.049 136.358 24.007C136.576 23.6026 136.788 23.1952 136.999 22.787C137.032 22.7233 137.065 22.6597 137.099 22.5941C137.174 22.4488 137.249 22.3035 137.324 22.1582H137.453L137.474 22.0184C137.52 21.8234 137.59 21.6705 137.681 21.4932L137.77 21.3206L137.838 21.1909H137.966C137.972 21.1462 137.979 21.1015 137.985 21.0554C138.039 20.8322 138.13 20.6588 138.238 20.4568C138.259 20.4176 138.28 20.3784 138.302 20.338C138.37 20.211 138.439 20.0843 138.507 19.9576C138.554 19.8704 138.601 19.7831 138.648 19.6959C138.741 19.5225 138.834 19.3492 138.927 19.176C139.1 18.8547 139.269 18.5317 139.438 18.2083C139.464 18.1585 139.49 18.1088 139.517 18.0574C139.641 17.8193 139.641 17.8193 139.763 17.5796H139.891C139.902 17.5442 139.912 17.5088 139.923 17.4723C140.038 17.1055 140.186 16.7763 140.368 16.439C140.396 16.3866 140.424 16.3343 140.453 16.2803C140.698 15.8202 140.948 15.3627 141.198 14.9049C141.564 14.2326 141.915 13.5526 142.265 12.872H142.394L142.458 12.643C142.614 12.1735 142.862 11.746 143.096 11.3122C143.145 11.2202 143.194 11.1281 143.243 11.0361C143.559 10.4442 143.878 9.8537 144.201 9.26564C144.399 8.90305 144.586 8.53579 144.768 8.16437H144.896L144.916 7.99358C144.964 7.76084 145.04 7.6156 145.165 7.4147C145.314 7.16729 145.454 6.92168 145.578 6.661C145.769 6.26855 145.984 5.89142 146.2 5.51232C146.559 4.88086 146.892 4.24048 147.207 3.58574H147.335L147.355 3.40437C147.403 3.1794 147.439 3.15857 147.592 3.00536C147.655 2.87439 147.655 2.87439 147.7 2.73531L147.749 2.59551L147.784 2.48945H147.912L147.936 2.34568C147.975 2.17181 148.028 2.04435 148.112 1.8879L148.195 1.73147L148.281 1.5705L148.365 1.41256C148.553 1.05991 148.746 0.710971 148.939 0.361358H153.816ZM150.415 5.52038C150.351 5.64935 150.351 5.64935 150.283 5.85088L150.223 6.03628H150.094C149.669 6.89048 149.225 7.73614 148.773 8.57618C148.509 9.06577 148.244 9.55464 147.992 10.0505C147.969 10.0957 147.947 10.1397 147.924 10.1836C147.82 10.3872 147.728 10.5789 147.675 10.8031L147.656 10.9373H147.527C147.232 11.5363 146.932 12.1318 146.62 12.7217C146.551 12.8513 146.482 12.981 146.414 13.1107C146.212 13.4932 146.009 13.8756 145.801 14.2548L145.688 14.459C145.619 14.583 145.551 14.7069 145.482 14.8308C145.268 15.2058 145.106 15.5595 144.991 15.9772C144.981 16.0177 144.971 16.057 144.961 16.0964H144.832C144.78 16.198 144.728 16.2996 144.676 16.4015L144.612 16.5276C144.474 16.7943 144.379 17.0219 144.319 17.3216H152.533V16.8702C152.466 16.6829 152.466 16.6829 152.436 16.5077C152.424 16.4381 152.413 16.3707 152.401 16.3032C152.381 16.1873 152.381 16.1873 152.362 16.0736C152.341 15.9488 152.32 15.8239 152.298 15.6991C152.236 15.333 152.174 14.9668 152.114 14.6002C151.988 13.8301 151.856 13.0622 151.71 12.2956C151.544 11.4176 151.391 10.5376 151.246 9.65578C151.149 9.06543 151.045 8.47829 150.919 7.89332C150.837 7.52316 150.774 7.15893 150.732 6.78192C150.684 6.34928 150.598 5.93886 150.479 5.52038H150.415Z" fill="#FFE14C"/>
<path fill-rule="evenodd" clip-rule="evenodd" d="M57.0052 0.0741907C58.1432 0.0683872 59.271 0.0713365 60.4011 0.218721C60.4788 0.228836 60.5565 0.23897 60.6365 0.249391C62.4749 0.518372 64.3196 1.3821 65.4697 2.88848C65.9695 3.62407 66.2996 4.39057 66.4804 5.26243L66.524 5.46395C66.9333 7.67284 66.1915 10.04 64.969 11.8749C64.2212 12.9493 63.2715 13.8358 62.1416 14.4867C61.9788 14.5814 61.8258 14.679 61.6716 14.7865C61.0678 15.1698 60.2886 15.3622 59.6141 15.5805C59.6494 15.8349 59.7022 16.0478 59.8067 16.2818C59.9399 16.5926 60.0605 16.9056 60.1759 17.2236C60.4475 17.9698 60.7452 18.7024 61.054 19.4336C61.4229 20.3075 61.7876 21.183 62.1455 22.0615C62.1951 22.1832 62.2448 22.3048 62.2944 22.4264C62.5597 23.0756 62.8187 23.7262 63.0605 24.3846C63.1702 24.6808 63.2855 24.9747 63.4014 25.2685C63.4644 25.4471 63.4644 25.4471 63.5285 25.7695H56.534L55.4431 22.8676L55.1222 22.0937C55.0772 21.9223 55.0343 21.7504 54.9939 21.5778C54.9241 21.3658 54.8462 21.1571 54.768 20.9481C54.7462 20.8891 54.7244 20.8301 54.7019 20.7693C54.6558 20.6451 54.6095 20.5208 54.5632 20.3966C54.4932 20.209 54.4236 20.0212 54.3541 19.8334C54.1491 19.281 53.9413 18.7314 53.7116 18.1888C53.6145 17.9541 53.5313 17.7153 53.4498 17.4748C53.3262 17.1153 53.1964 16.7611 53.0472 16.4113C53.0046 16.2898 53.0046 16.2898 53.0046 16.0964H51.4645L51.4004 16.8057C51.3813 16.9347 51.3604 17.0635 51.3362 17.1916C51.3175 17.2917 51.3175 17.2917 51.2985 17.3939C51.2852 17.4635 51.2719 17.5332 51.2582 17.605C51.2444 17.6792 51.2305 17.7533 51.2162 17.8297C51.1723 18.0648 51.128 18.2998 51.0835 18.5348C51.0252 18.8442 50.9671 19.1536 50.9093 19.4631C50.8956 19.5366 50.8818 19.6102 50.8676 19.686C50.7859 20.1277 50.7119 20.5685 50.6564 21.0145C50.6268 21.2151 50.582 21.4092 50.5341 21.606C50.4412 21.9897 50.388 22.372 50.3433 22.764C50.3134 22.9694 50.2678 23.1636 50.2156 23.3641C50.1431 23.676 50.1009 23.994 50.0528 24.3105C50.0315 24.4494 50.0101 24.5883 49.9886 24.7271C49.9794 24.788 49.9701 24.8489 49.9605 24.9116C49.9119 25.1987 49.8529 25.484 49.7961 25.7695H43.5716C43.6438 25.1166 43.6438 25.1166 43.6914 24.8465L43.7229 24.6666L43.7561 24.4798L43.7908 24.2819C43.8245 24.0899 43.8585 23.8979 43.8924 23.7059C43.9093 23.6099 43.9262 23.5138 43.9431 23.4177C43.9507 23.3743 43.9583 23.3308 43.9662 23.286C43.9812 23.2005 43.9962 23.115 44.0112 23.0294C44.0463 22.8293 44.0815 22.6291 44.1171 22.429C44.1521 22.2326 44.1867 22.0362 44.2213 21.8398L44.2545 21.6547C44.3146 21.3124 44.3613 20.9726 44.3905 20.6263C44.4119 20.4241 44.4533 20.228 44.4955 20.0294C44.5268 19.8735 44.5547 19.7181 44.5808 19.5613C44.589 19.5125 44.5972 19.4636 44.6056 19.4132C44.6219 19.3156 44.6379 19.2179 44.6535 19.1201C44.7134 18.7635 44.7133 18.7635 44.7906 18.6289C44.8853 18.4134 44.8898 18.1921 44.9079 17.96C44.9823 17.1492 45.14 16.3553 45.2922 15.5563C45.3504 15.2463 45.4084 14.9363 45.4664 14.6263C45.4804 14.5514 45.4944 14.4765 45.5089 14.3993C45.6146 13.8347 45.7147 13.2693 45.8095 12.7027C45.8881 12.2348 45.9705 11.7688 46.0662 11.3041C46.1989 10.659 46.3106 10.0103 46.4232 9.36143C46.4328 9.30555 46.4426 9.24966 46.4525 9.19209C46.5519 8.61854 46.6504 8.04482 46.7475 7.47088C46.7621 7.38498 46.7767 7.29908 46.7913 7.21318C46.8177 7.057 46.844 6.90076 46.8701 6.74451C46.9192 6.45435 46.9688 6.16751 47.0438 5.88287C47.1137 5.59742 47.1255 5.32555 47.1368 5.03294C47.1607 4.84592 47.1964 4.70574 47.2579 4.53014C47.3589 4.24118 47.41 3.96121 47.4499 3.6583C47.4658 3.54528 47.4818 3.43225 47.4978 3.31923C47.5061 3.25878 47.5145 3.19832 47.5231 3.13604C47.9453 0.0957764 47.9453 0.0957548 48.4842 0.0939023C48.5287 0.0936652 48.5732 0.0934538 48.619 0.0932095C48.7694 0.0924949 48.9198 0.0922581 49.0701 0.092013C49.1775 0.0916092 49.2849 0.0911421 49.3923 0.0906905C49.747 0.0893286 50.1017 0.0886862 50.4564 0.0880455C50.5789 0.0877844 50.7015 0.0874966 50.8241 0.0872268C51.4018 0.0859955 51.9795 0.0851179 52.5572 0.0845818C53.2199 0.0839565 53.8825 0.0822317 54.5451 0.0796067C55.0592 0.0776414 55.5734 0.0767325 56.0875 0.0765208C56.3934 0.0763711 56.6993 0.0758401 57.0052 0.0741907ZM56.9631 5.24876C56.864 5.24947 56.7648 5.24998 56.6656 5.25021C56.4043 5.25055 56.143 5.25126 55.8817 5.25267C55.6115 5.25414 55.3413 5.25508 55.071 5.25575C54.4892 5.25715 53.9073 5.25943 53.3255 5.26243C53.2766 5.54417 53.2277 5.82591 53.1788 6.10764C53.1581 6.22626 53.1375 6.34489 53.1169 6.46351C53.0012 7.13018 52.8857 7.79685 52.7626 8.46219C52.6678 8.97292 52.5853 9.48345 52.5153 9.99825C52.4888 10.2044 52.4631 10.4102 52.4271 10.6149C52.3653 10.817 52.3012 11.0032 52.293 11.2151C52.2937 11.2679 52.2944 11.3192 52.295 11.3705C52.296 11.4626 52.2971 11.5547 52.2987 11.6467C52.8541 11.6494 53.4094 11.6516 53.9648 11.653C54.2483 11.6537 54.5318 11.6543 54.8152 11.6556C55.0926 11.657 55.3699 11.6583 55.6472 11.6587C55.7531 11.6589 55.8589 11.6591 55.9647 11.6593C56.1164 11.6603 56.2681 11.6613 56.4199 11.6614C56.4676 11.6614 56.514 11.6613 56.5604 11.6613C57.0723 11.6631 57.5016 11.5306 57.9703 11.3366C58.902 10.9104 59.4924 10.2337 59.8767 9.27988C59.8965 9.2295 59.9157 9.1806 59.935 9.13169C60.2195 8.43658 60.2054 7.67884 60.1275 6.93911C60.0319 6.50202 59.7807 6.12886 59.4239 5.86247L59.2933 5.77833C58.5469 5.29388 57.8318 5.24287 56.9631 5.24876Z" fill="#FFE14C"/>
</svg>
