<svg width="16" height="16" viewBox="0 0 16 16" fill="none" xmlns="http://www.w3.org/2000/svg">
<path d="M12.6995 3.27329C12.0883 2.65603 11.3602 2.1666 10.5579 1.83353C9.75554 1.50046 8.89493 1.33041 8.02621 1.33329C4.38621 1.33329 1.41954 4.29995 1.41954 7.93995C1.41954 9.10662 1.72621 10.24 2.29954 11.24L1.36621 14.6666L4.86621 13.7466C5.83288 14.2733 6.91954 14.5533 8.02621 14.5533C11.6662 14.5533 14.6329 11.5866 14.6329 7.94662C14.6329 6.17996 13.9462 4.51995 12.6995 3.27329ZM8.02621 13.4333C7.03954 13.4333 6.07288 13.1666 5.22621 12.6666L5.02621 12.5466L2.94621 13.0933L3.49954 11.0666L3.36621 10.86C2.81791 9.98466 2.52683 8.9728 2.52621 7.93995C2.52621 4.91329 4.99288 2.44662 8.01954 2.44662C9.48621 2.44662 10.8662 3.01995 11.8995 4.05995C12.4113 4.5692 12.8168 5.17498 13.0926 5.84217C13.3684 6.50936 13.509 7.22468 13.5062 7.94662C13.5195 10.9733 11.0529 13.4333 8.02621 13.4333ZM11.0395 9.32662C10.8729 9.24662 10.0595 8.84662 9.91288 8.78662C9.75954 8.73329 9.65288 8.70662 9.53954 8.86662C9.42621 9.03329 9.11288 9.40662 9.01954 9.51329C8.92621 9.62662 8.82621 9.63996 8.65954 9.55329C8.49288 9.47329 7.95954 9.29329 7.33288 8.73329C6.83954 8.29329 6.51288 7.75329 6.41288 7.58662C6.31954 7.41996 6.39954 7.33329 6.48621 7.24662C6.55954 7.17329 6.65288 7.05329 6.73288 6.95995C6.81288 6.86662 6.84621 6.79329 6.89954 6.68662C6.95288 6.57329 6.92621 6.47995 6.88621 6.39995C6.84621 6.31995 6.51288 5.50662 6.37954 5.17329C6.24621 4.85329 6.10621 4.89329 6.00621 4.88662H5.68621C5.57288 4.88662 5.39954 4.92662 5.24621 5.09329C5.09954 5.25995 4.67288 5.65995 4.67288 6.47329C4.67288 7.28662 5.26621 8.07329 5.34621 8.17996C5.42621 8.29329 6.51288 9.95996 8.16621 10.6733C8.55954 10.8466 8.86621 10.9466 9.10621 11.02C9.49954 11.1466 9.85954 11.1266 10.1462 11.0866C10.4662 11.04 11.1262 10.6866 11.2595 10.3C11.3995 9.91329 11.3995 9.58662 11.3529 9.51329C11.3062 9.43996 11.2062 9.40662 11.0395 9.32662Z" fill="#242424"/>
</svg>
