<svg width="176" height="20" viewBox="0 0 176 20" fill="none" xmlns="http://www.w3.org/2000/svg">
<path fill-rule="evenodd" clip-rule="evenodd" d="M167.84 0.0163784C169.721 0.0145085 171.586 0.59874 173.075 1.76615L173.198 1.85916C173.403 2.015 173.593 2.17232 173.769 2.36142L173.869 2.4678C174.729 3.40002 175.338 4.52159 175.7 5.73463L175.752 5.89643C176.081 7.16989 176.044 8.68439 175.865 9.98165C175.847 10.1163 175.831 10.2512 175.815 10.3862C175.802 10.484 175.79 10.5819 175.778 10.6797C175.772 10.7242 175.767 10.7688 175.761 10.8147C175.728 11.0616 175.675 11.2848 175.591 11.5191C175.547 11.6535 175.514 11.7884 175.482 11.9263C175.406 12.237 175.3 12.529 175.18 12.8252L175.115 12.9877C174.578 14.288 173.818 15.6317 172.778 16.5983L172.53 16.8464L172.457 16.9272C171.503 17.9415 170.085 18.8123 168.766 19.2274C168.701 19.2514 168.637 19.2757 168.573 19.3003C167.31 19.7799 165.955 19.9993 164.609 19.991C164.456 19.9902 164.304 19.9909 164.151 19.9919C163.267 19.9928 162.426 19.899 161.583 19.6243L161.403 19.5687C159.442 18.9441 157.925 17.6435 156.971 15.8148C156.757 15.3933 156.586 14.9615 156.431 14.5149L156.374 14.3566C156.089 13.5138 156.059 12.6339 156.066 11.7524C156.066 11.7024 156.067 11.6524 156.067 11.6009C156.08 9.25712 156.646 6.80639 158.066 4.89133C158.111 4.82837 158.156 4.76539 158.201 4.7024C158.524 4.25665 158.872 3.84768 159.255 3.45275C159.28 3.42584 159.306 3.39895 159.332 3.37122C160.332 2.32119 161.594 1.44279 162.954 0.935057C163.059 0.895777 163.163 0.855221 163.266 0.81298C163.924 0.546158 164.613 0.358819 165.307 0.215965C165.343 0.20848 165.379 0.201004 165.416 0.193293C166.102 0.0598408 166.794 0.0132059 167.492 0.0170081C167.608 0.0175425 167.724 0.0170076 167.84 0.0163784ZM170.301 3.70078C169.279 3.00743 167.916 2.97415 166.733 3.00223C164.866 3.05422 163.163 3.80197 161.858 5.15389L161.732 5.28817C161.26 5.77929 160.862 6.32307 160.528 6.91703L160.444 7.07399C160.234 7.45752 160.049 7.84433 159.899 8.25523L159.852 8.38544C159.767 8.62128 159.697 8.84463 159.671 9.09485C159.66 9.22003 159.645 9.33115 159.617 9.4543C159.214 10.9347 159.209 12.8915 159.902 14.2948L159.998 14.4653C160.457 15.5133 161.431 16.3326 162.48 16.7488C162.52 16.7641 162.559 16.7789 162.598 16.7937C163.238 17.0379 163.89 17.1151 164.569 17.1123C164.691 17.1111 164.813 17.1099 164.935 17.1101C165.095 17.1105 165.255 17.11 165.414 17.1076C167.18 17.0625 168.978 16.1548 170.192 14.8825L170.301 14.7629C171.004 13.9917 171.524 13.1417 171.936 12.1834C172.696 10.3702 173.037 7.97473 172.282 6.10008L172.233 5.98266C171.894 5.0368 171.236 4.33756 170.416 3.77558L170.301 3.70078Z" fill="#242424"/>
<path d="M102.118 1.85781C102.159 1.89304 102.199 1.92827 102.24 1.96457C102.313 2.0274 102.313 2.0274 102.387 2.0915C103.268 2.86788 104.046 3.9429 104.292 5.11048C104.319 5.23232 104.357 5.34023 104.404 5.45559C104.469 5.63542 104.469 5.63542 104.469 5.93305C103.194 5.93305 101.919 5.93305 100.606 5.93305C100.407 5.4866 100.407 5.4866 100.324 5.27267C99.9309 4.38824 99.1005 3.76706 98.2278 3.40315C96.5292 2.7541 94.4268 2.92152 92.7759 3.63568C90.8101 4.52458 89.2771 6.2414 88.5149 8.25214C88.4471 8.43721 88.3819 8.62276 88.3209 8.81019C88.3036 8.86282 88.2863 8.91545 88.2684 8.96967C88.1989 9.24945 88.1604 9.53261 88.1196 9.81782C88.111 9.87597 88.1025 9.93413 88.0936 9.99405C87.9255 11.1496 87.6828 12.8867 88.3704 13.9196C88.3916 13.9853 88.411 14.0515 88.4292 14.118C88.7706 15.1623 89.776 15.9886 90.7045 16.4821C91.3422 16.7946 92.0322 16.9999 92.7428 17.0087C92.8101 17.0097 92.8101 17.0097 92.8787 17.0106C94.6118 17.0312 94.6118 17.0312 96.2465 16.4991C96.3105 16.4685 96.3745 16.4379 96.4386 16.4075C97.2825 16.0014 98.3241 15.396 98.8125 14.5606C98.9604 14.3103 99.0702 14.1454 99.3579 14.0658C99.5913 14.0415 99.8237 14.051 100.058 14.0599C100.144 14.061 100.23 14.0619 100.316 14.0625C100.541 14.0647 100.766 14.0705 100.991 14.0772C101.221 14.0833 101.451 14.086 101.681 14.089C102.132 14.0953 102.582 14.1055 103.033 14.118C102.744 14.7096 102.353 15.2435 101.943 15.755C101.909 15.799 101.875 15.843 101.841 15.8883C101.316 16.5583 100.695 17.1372 100.011 17.6401C99.9552 17.6821 99.8993 17.7241 99.8433 17.7662C99.4354 18.0689 99.007 18.3295 98.5659 18.5806C98.4905 18.6237 98.4154 18.6674 98.3405 18.7114C98.1181 18.8401 97.8929 18.9391 97.653 19.0306C97.5444 19.0746 97.445 19.1248 97.3424 19.1809C97.1376 19.2863 96.9281 19.3355 96.7046 19.3873C96.5396 19.4268 96.3781 19.4735 96.2155 19.522C94.1734 20.1069 91.9622 20.2107 89.9358 19.5193C89.8169 19.4789 89.6976 19.4404 89.578 19.4024C87.7581 18.8116 86.2709 17.4131 85.4048 15.7209C84.3144 13.4884 84.3395 10.7442 85.1023 8.40652C85.2997 7.83196 85.5268 7.27727 85.8097 6.73973C85.8768 6.61041 85.9352 6.48334 85.9896 6.3485C86.3776 5.4587 87.09 4.66841 87.7264 3.94881C87.7488 3.92328 87.7712 3.89775 87.7942 3.87145C88.0527 3.5768 88.3153 3.30442 88.6181 3.05591C88.6752 3.00805 88.7322 2.96018 88.7893 2.91232C89.5289 2.29667 90.292 1.76689 91.1444 1.3197C91.2197 1.2798 91.2197 1.2798 91.2966 1.23909C91.505 1.13172 91.7137 1.03849 91.9344 0.959667C92.0489 0.91815 92.1615 0.87266 92.2744 0.826738C95.3807 -0.420913 99.4395 -0.392596 102.118 1.85781Z" fill="#242424"/>
<path d="M146.376 0.277968C147.455 0.277968 148.534 0.277968 149.645 0.277968C149.534 1.00173 149.534 1.00173 149.48 1.2916C149.468 1.35576 149.456 1.41992 149.444 1.48602C149.438 1.51904 149.432 1.55205 149.426 1.58607C149.317 2.17223 149.215 2.75895 149.119 3.34734C149.049 3.77508 148.973 4.19908 148.878 4.62202C148.78 5.07453 148.713 5.53284 148.642 5.99029C148.596 6.28854 148.547 6.58405 148.478 6.87801C148.442 7.03531 148.416 7.19404 148.388 7.35302C148.382 7.38803 148.376 7.42304 148.37 7.45912C148.349 7.57875 148.328 7.69841 148.308 7.81807C148.282 7.96547 148.257 8.11286 148.231 8.26024C148.215 8.35765 148.198 8.45506 148.181 8.5525C148.129 8.85442 148.072 9.15487 148.01 9.45507C147.942 9.79976 147.892 10.145 147.849 10.4938C147.803 10.8801 147.753 11.2661 147.667 11.6458C147.618 11.8666 147.575 12.088 147.536 12.3107C147.529 12.3498 147.522 12.3889 147.514 12.4292C147.492 12.555 147.469 12.6808 147.447 12.8066C147.431 12.894 147.416 12.9814 147.4 13.0688C147.317 13.5359 147.236 14.0032 147.159 14.4715C147.073 15.0006 146.973 15.5262 146.871 16.0527C146.789 16.4783 146.708 16.9039 146.623 17.3424C148.798 17.3424 150.972 17.3424 153.212 17.3424C153.093 18.174 152.926 18.9981 152.766 19.8227C149.529 19.8227 146.293 19.8227 142.958 19.8227C143.07 18.9837 143.07 18.9837 143.148 18.6196C143.229 18.2267 143.301 17.8328 143.367 17.4372C143.376 17.3812 143.385 17.3251 143.395 17.2674C143.434 17.0366 143.472 16.8057 143.51 16.5748C143.698 15.4395 143.698 15.4395 143.821 14.9409C143.866 14.7395 143.887 14.5374 143.905 14.332C143.943 13.9312 143.943 13.9312 143.998 13.8204C144.011 13.7502 144.021 13.6797 144.03 13.609C144.036 13.5662 144.042 13.5234 144.048 13.4793C144.054 13.4332 144.06 13.3872 144.066 13.3398C144.116 12.9758 144.176 12.617 144.251 12.2572C144.329 11.8778 144.389 11.495 144.454 11.1133C144.464 11.0538 144.474 10.9943 144.484 10.933C144.493 10.88 144.502 10.8271 144.511 10.7726C144.544 10.5918 144.58 10.4119 144.616 10.2318C144.66 10.0088 144.701 9.78524 144.742 9.56164C144.752 9.51122 144.761 9.46079 144.77 9.40884C144.79 9.30237 144.81 9.19589 144.829 9.08942C144.858 8.93083 144.888 8.77227 144.917 8.6137C145.023 8.03802 145.123 7.46181 145.217 6.88404C145.266 6.58255 145.328 6.28691 145.401 5.99004C145.474 5.6512 145.515 5.30612 145.562 4.96263C145.582 4.8127 145.603 4.66278 145.624 4.51288C145.629 4.47696 145.634 4.44103 145.639 4.40402C145.695 4.00041 145.752 3.59695 145.853 3.20162C145.926 2.89159 145.977 2.58023 146.025 2.26529C146.124 1.6003 146.256 0.939307 146.376 0.277968Z" fill="#242424"/>
<path fill-rule="evenodd" clip-rule="evenodd" d="M135.904 0.30984C137.382 0.299011 138.914 0.721877 140.035 1.71654L140.136 1.80354C140.888 2.49765 141.371 3.56959 141.434 4.58341C141.487 6.63225 140.72 8.34599 139.366 9.84067C138.487 10.759 137.221 11.4394 135.973 11.6873H135.825L135.905 11.861C135.999 12.0717 136.08 12.2861 136.159 12.5027C136.277 12.8234 136.409 13.1353 136.549 13.4466C136.771 13.9395 136.982 14.4374 137.193 14.9346C137.284 15.147 137.375 15.3589 137.467 15.5707C137.708 16.1274 137.942 16.684 138.153 17.2527C138.322 17.7049 138.52 18.144 138.716 18.5851C138.832 18.8464 138.945 19.1089 139.054 19.3732C139.068 19.4078 139.083 19.4424 139.098 19.478C139.193 19.7113 139.193 19.7113 139.193 19.8227H135.33L135.032 18.9794C134.966 18.8071 134.9 18.6356 134.831 18.4647C134.814 18.4229 134.797 18.381 134.78 18.3378C134.693 18.1213 134.602 17.9075 134.503 17.6959C134.386 17.446 134.295 17.1896 134.205 16.9295C133.949 16.1993 133.657 15.4828 133.369 14.765C133.276 14.5328 133.183 14.3003 133.091 14.0678C133.052 13.9707 133.013 13.8735 132.974 13.7763C132.949 13.713 132.924 13.6496 132.899 13.5863C132.781 13.2906 132.663 12.9952 132.54 12.7015C132.524 12.6619 132.507 12.6223 132.49 12.5814C132.461 12.5111 132.431 12.441 132.401 12.3709C132.343 12.2326 132.308 12.1371 132.308 11.985H129.831V12.3322C129.821 12.4088 129.809 12.4852 129.793 12.5609C129.785 12.6019 129.777 12.6429 129.768 12.6852C129.759 12.7283 129.75 12.7714 129.741 12.8159C129.682 13.1169 129.624 13.4175 129.578 13.7212C129.572 13.7641 129.565 13.8071 129.559 13.8514C129.554 13.8857 129.548 13.92 129.543 13.9553C129.503 14.2129 129.454 14.4666 129.398 14.721C129.257 15.3734 129.146 16.0314 129.032 16.6887C128.985 16.9574 128.937 17.2261 128.89 17.4948C128.873 17.5924 128.856 17.69 128.839 17.7876C128.765 18.209 128.687 18.6298 128.604 19.0496C128.568 19.2327 128.537 19.4142 128.516 19.5997C128.494 19.7731 128.494 19.7731 128.444 19.8227C128.345 19.8274 128.246 19.8286 128.148 19.8284C128.084 19.8284 128.021 19.8283 127.955 19.8283C127.885 19.8281 127.816 19.8278 127.746 19.8276C127.675 19.8275 127.604 19.8274 127.533 19.8274C127.346 19.8272 127.158 19.8267 126.971 19.8261C126.78 19.8256 126.589 19.8254 126.398 19.8251C126.024 19.8246 125.649 19.8238 125.274 19.8227C125.327 19.3256 125.393 18.8369 125.494 18.3469C125.606 17.7829 125.695 17.2182 125.769 16.6479H125.868L125.863 16.5421C125.855 16.2628 125.871 16.0094 125.935 15.737C125.993 15.4766 126.043 15.217 126.084 14.9534C126.09 14.9182 126.095 14.883 126.101 14.8468C126.113 14.7732 126.124 14.6997 126.135 14.6262C126.255 13.8562 126.391 13.0902 126.54 12.3253C126.553 12.2541 126.567 12.1828 126.581 12.1115C126.588 12.0772 126.594 12.0428 126.601 12.0074C126.66 11.6983 126.712 11.3879 126.761 11.0769C126.804 10.8049 126.804 10.8049 126.859 10.6952C126.874 10.6122 126.887 10.5288 126.899 10.4452C126.906 10.3936 126.914 10.3419 126.921 10.2886C126.929 10.2325 126.937 10.1764 126.946 10.1185C127.009 9.69037 127.082 9.26704 127.175 8.84429C127.287 8.32711 127.376 7.80727 127.46 7.2848C127.466 7.24495 127.472 7.2051 127.479 7.16404C127.538 6.79597 127.596 6.42778 127.649 6.0588C127.655 6.0138 127.662 5.96879 127.668 5.92243C127.679 5.84515 127.69 5.76779 127.7 5.69039C127.732 5.45854 127.792 5.24423 127.862 5.02095C127.925 4.80095 127.965 4.5772 128.005 4.35185C128.017 4.27973 128.017 4.27972 128.031 4.20614C128.08 3.92431 128.116 3.64641 128.133 3.36065C128.149 3.18073 128.179 3.00461 128.211 2.82705C128.218 2.79061 128.224 2.75415 128.231 2.7166C128.253 2.59818 128.274 2.47979 128.296 2.36141C128.31 2.28048 128.325 2.19955 128.339 2.11862C128.377 1.91257 128.414 1.70658 128.452 1.50063C128.468 1.41599 128.483 1.33134 128.499 1.24669C128.521 1.12232 128.544 0.997957 128.567 0.873623C128.577 0.816915 128.577 0.816906 128.588 0.759055C128.615 0.611078 128.644 0.470549 128.692 0.32757C129.711 0.324082 130.729 0.321472 131.748 0.319868C132.221 0.319103 132.695 0.31809 133.168 0.31638C133.58 0.314889 133.993 0.3139 134.406 0.31357C134.624 0.313377 134.842 0.312967 135.061 0.311875C135.267 0.310852 135.473 0.310539 135.679 0.31076C135.754 0.31072 135.829 0.310419 135.904 0.30984ZM134.778 2.79212C134.687 2.79293 134.597 2.7935 134.507 2.79377C134.269 2.79415 134.031 2.795 133.793 2.79663C133.547 2.79833 133.301 2.79939 133.055 2.80017C132.525 2.80177 131.995 2.8044 131.466 2.80787C131.405 3.07263 131.349 3.3378 131.299 3.60466C131.291 3.64715 131.283 3.68841 131.276 3.72965C131.258 3.82088 131.241 3.91212 131.224 4.00335C131.198 4.14416 131.172 4.28498 131.146 4.42573C131.052 4.92414 130.962 5.42233 130.89 5.92432C130.852 6.19532 130.807 6.4612 130.745 6.72795C130.713 6.86782 130.713 6.86783 130.65 7.18671C130.641 7.23271 130.632 7.27736 130.624 7.32201C130.592 7.48225 130.56 7.64252 130.529 7.80295L130.497 7.97309C130.43 8.30631 130.374 8.63521 130.354 8.97456C130.351 9.02794 130.351 9.02797 130.348 9.08031C130.34 9.20522 130.333 9.33013 130.326 9.45506C130.792 9.45822 131.257 9.46075 131.722 9.46233C131.96 9.46308 132.199 9.46374 132.437 9.46529C132.67 9.46695 132.902 9.46841 133.134 9.46897C133.224 9.46912 133.313 9.46932 133.403 9.4696C134.077 9.47591 134.715 9.42315 135.379 9.30625V9.20704H135.528C136.067 9.04387 136.582 8.74645 136.964 8.33021L137.063 8.21492C137.768 7.44449 138.052 6.53513 138.074 5.50364L138.076 5.34087C138.082 4.70953 138 4.1294 137.559 3.65117C136.755 2.9236 135.818 2.78315 134.778 2.79212Z" fill="#242424"/>
<path fill-rule="evenodd" clip-rule="evenodd" d="M118.735 0.277968C119.19 2.6382 119.19 2.63821 119.346 3.5677C119.408 3.93408 119.478 4.29802 119.553 4.66189C119.663 5.19923 119.753 5.73908 119.836 6.28126C119.892 6.64672 119.962 7.00656 120.041 7.36769C120.079 7.54865 120.1 7.72396 120.116 7.90798C120.151 8.25354 120.214 8.59024 120.284 8.93014C120.418 9.59154 120.542 10.2546 120.664 10.9184C120.686 11.0373 120.708 11.1562 120.73 11.2751C120.843 11.8908 120.956 12.5067 121.067 13.1228C121.204 13.8862 121.35 14.648 121.497 15.4096C121.589 15.8847 121.679 16.3601 121.766 16.8361C121.778 16.9013 121.778 16.9013 121.79 16.9678C121.872 17.4218 121.939 17.8779 122.005 18.3345C122.03 18.5103 122.056 18.6859 122.082 18.8616C122.088 18.9009 122.093 18.9403 122.099 18.9808C122.129 19.1848 122.164 19.387 122.205 19.5891C122.214 19.6331 122.223 19.677 122.232 19.7223C122.239 19.7554 122.245 19.7886 122.252 19.8227C121.814 19.8239 121.376 19.8247 120.937 19.8253C120.734 19.8255 120.53 19.8259 120.327 19.8264C120.131 19.827 119.934 19.8273 119.738 19.8274C119.663 19.8275 119.588 19.8277 119.513 19.8279C119.408 19.8283 119.303 19.8284 119.199 19.8283C119.139 19.8284 119.079 19.8286 119.018 19.8287C118.884 19.8227 118.884 19.8227 118.834 19.7731C118.808 19.6403 118.783 19.5079 118.761 19.3743C118.754 19.3334 118.746 19.2925 118.739 19.2503C118.716 19.1166 118.693 18.9829 118.67 18.8492C118.655 18.7579 118.639 18.6666 118.623 18.5753C118.584 18.3527 118.546 18.13 118.508 17.9074C118.471 17.6934 118.434 17.4795 118.397 17.2656C118.382 17.176 118.366 17.0863 118.351 16.9966C118.31 16.7554 118.263 16.5164 118.209 16.2775C118.19 16.1519 118.19 16.1519 118.19 15.8046L110.017 15.8542L109.472 16.9456C109.376 17.1285 109.279 17.3104 109.178 17.4912C109.154 17.5349 109.13 17.5786 109.106 17.6236C109.002 17.8118 108.898 17.9997 108.795 18.1877C108.712 18.3378 108.629 18.4881 108.547 18.6384C108.521 18.6845 108.495 18.7307 108.469 18.7783C108.445 18.8212 108.422 18.8642 108.397 18.9085C108.377 18.9462 108.356 18.984 108.334 19.0229C108.285 19.1242 108.257 19.2168 108.234 19.3267H108.135L107.986 19.8227H104.618C104.662 19.6021 104.709 19.4793 104.814 19.2867C104.844 19.2306 104.875 19.1745 104.906 19.1167C104.939 19.0565 104.972 18.9963 105.005 18.936C105.072 18.8114 105.14 18.6867 105.207 18.562C105.224 18.5306 105.241 18.4993 105.259 18.4669C105.427 18.1558 105.591 17.8425 105.754 17.5284C105.779 17.4795 105.805 17.4305 105.831 17.3801C105.889 17.2683 105.947 17.1566 106.005 17.0448H106.104L106.121 16.9372C106.156 16.7873 106.21 16.6696 106.28 16.5332L106.349 16.4005L106.401 16.3007H106.5C106.505 16.2663 106.51 16.2319 106.515 16.1965C106.556 16.0248 106.626 15.8914 106.711 15.736C106.727 15.7059 106.743 15.6757 106.76 15.6446C106.812 15.5469 106.865 15.4494 106.918 15.352C106.954 15.2849 106.99 15.2178 107.026 15.1507C107.098 15.0173 107.17 14.884 107.242 14.7507C107.375 14.5036 107.506 14.2552 107.636 14.0064C107.656 13.9681 107.677 13.9298 107.697 13.8903C107.793 13.7072 107.793 13.7072 107.887 13.5228H107.986C107.994 13.4955 108.003 13.4683 108.011 13.4403C108.1 13.1581 108.214 12.9049 108.355 12.6454C108.376 12.6051 108.398 12.5648 108.42 12.5233C108.609 12.1694 108.802 11.8174 108.995 11.4653C109.278 10.9482 109.549 10.4251 109.819 9.90152H109.918L109.968 9.72538C110.088 9.3642 110.279 9.03542 110.46 8.70168C110.498 8.6309 110.536 8.56011 110.574 8.4893C110.818 8.03402 111.064 7.57977 111.313 7.12742C111.466 6.8485 111.611 6.56599 111.751 6.28029H111.85L111.865 6.14891C111.902 5.96987 111.961 5.85815 112.057 5.70362C112.172 5.5133 112.28 5.32437 112.376 5.12385C112.524 4.82196 112.69 4.53187 112.856 4.24024C113.133 3.75451 113.39 3.26191 113.633 2.75827H113.732L113.748 2.61875C113.785 2.4457 113.813 2.42967 113.93 2.31181C113.979 2.21107 113.979 2.21107 114.014 2.10409L114.052 1.99654L114.079 1.91496H114.178L114.196 1.80437C114.227 1.67063 114.268 1.57258 114.332 1.45223L114.396 1.3319L114.463 1.20808L114.528 1.08658C114.672 0.815317 114.821 0.5469 114.971 0.277968H118.735ZM116.11 4.24644C116.06 4.34565 116.06 4.34565 116.008 4.50067L115.961 4.64329H115.862C115.534 5.30037 115.191 5.95088 114.843 6.59706C114.639 6.97367 114.434 7.34973 114.239 7.73112C114.222 7.76595 114.204 7.79977 114.187 7.83357C114.107 7.99019 114.036 8.13765 113.995 8.31006L113.98 8.41334H113.881C113.653 8.87405 113.422 9.33215 113.18 9.78594C113.127 9.88565 113.074 9.98536 113.021 10.0852C112.865 10.3794 112.709 10.6735 112.548 10.9652L112.461 11.1223C112.408 11.2177 112.355 11.313 112.302 11.4083C112.137 11.6968 112.012 11.9688 111.923 12.2901C111.915 12.3213 111.907 12.3516 111.899 12.3818H111.8C111.76 12.46 111.72 12.5382 111.68 12.6166L111.63 12.7136C111.524 12.9187 111.45 13.0938 111.404 13.3243H117.745V12.9771C117.693 12.833 117.693 12.833 117.67 12.6982C117.661 12.6447 117.652 12.5928 117.643 12.5409C117.628 12.4517 117.628 12.4517 117.613 12.3643C117.596 12.2683 117.58 12.1723 117.564 12.0762C117.516 11.7946 117.468 11.5129 117.421 11.231C117.325 10.6385 117.222 10.0479 117.11 9.45817C116.981 8.78279 116.864 8.10581 116.751 7.42752C116.676 6.97341 116.596 6.52176 116.499 6.07179C116.436 5.78704 116.387 5.50687 116.355 5.21686C116.317 4.88406 116.251 4.56835 116.159 4.24644H116.11Z" fill="#242424"/>
<path d="M0 0.0795955C1.70004 0.0795955 3.40008 0.0795955 5.15163 0.0795955C5.21768 0.211885 5.21546 0.339097 5.22562 0.484739C5.27972 1.24155 5.4126 1.98375 5.54164 2.73044C5.60025 3.06999 5.6552 3.41007 5.7089 3.75044C5.75247 4.02624 5.79641 4.30192 5.8428 4.57727C5.89939 4.91594 5.95123 5.2553 6.00251 5.59481C6.0184 5.69993 6.0344 5.80503 6.05042 5.91014C6.10147 6.24678 6.15001 6.58342 6.19341 6.92115C6.22454 7.15885 6.26319 7.39173 6.31261 7.62617C6.38239 7.98266 6.43383 8.34274 6.48907 8.70173C6.49574 8.74481 6.5024 8.7879 6.50926 8.83229C6.59058 9.36033 6.66854 9.88719 6.70792 10.4204C6.73103 10.7306 6.78201 11.0339 6.83582 11.3401C6.84949 11.4202 6.8631 11.5002 6.87665 11.5802C6.88349 11.6206 6.89034 11.661 6.89739 11.7026C6.97604 12.1688 7.05052 12.6354 7.12219 13.1027C7.12993 13.1531 7.13768 13.2034 7.14565 13.2553C7.18507 13.5119 7.22425 13.7685 7.26309 14.0252C7.27772 14.1207 7.29234 14.2162 7.30698 14.3117C7.31368 14.3565 7.32038 14.4013 7.32729 14.4474C7.34121 14.6463 7.34121 14.6463 7.43024 14.8126C7.45419 14.7643 7.47814 14.7161 7.50282 14.6664C7.59301 14.4849 7.68333 14.3034 7.77369 14.1219C7.81254 14.0439 7.85135 13.9658 7.89013 13.8877C8.08828 13.4887 8.28603 13.0906 8.50547 12.7027C8.58552 12.5498 8.65059 12.3919 8.71815 12.2331C8.77049 12.1239 8.82373 12.0151 8.87778 11.9067C8.89271 11.8768 8.90763 11.8468 8.92301 11.8159C8.97122 11.7193 9.01959 11.6227 9.06799 11.5262C9.08466 11.4928 9.10133 11.4595 9.1185 11.4252C9.36946 10.9236 9.6266 10.4257 9.88904 9.93008C10.3202 9.11407 10.7371 8.29231 11.1392 7.46158C11.5809 6.54907 12.0312 5.64102 12.484 4.73397C12.5379 4.62605 12.5917 4.51811 12.6455 4.41017C13.0292 3.64037 13.4149 2.87212 13.8202 2.11344C13.8637 2.03178 13.9072 1.95011 13.9507 1.86844C14.0083 1.76031 14.0659 1.6522 14.1238 1.54426C14.2149 1.37309 14.2944 1.20248 14.3651 1.02211C14.4042 0.9491 14.4444 0.876735 14.4859 0.805082C14.5641 0.666816 14.6355 0.53021 14.6964 0.383432C14.7614 0.228413 14.7614 0.228413 14.8605 0.0795955C14.9523 0.0612838 14.9523 0.0612838 15.0661 0.0616994C15.1092 0.0614949 15.1522 0.0612903 15.1966 0.0610795C15.2439 0.0616146 15.2913 0.0621496 15.3401 0.0627009C15.3899 0.0626791 15.4396 0.0626574 15.4909 0.062635C15.656 0.062739 15.8211 0.0638982 15.9862 0.0650625C16.1005 0.0653399 16.2147 0.0655518 16.329 0.0657006C16.6301 0.0662696 16.9313 0.0677323 17.2324 0.069377C17.5395 0.0708975 17.8467 0.0715786 18.1538 0.072329C18.7567 0.0739265 19.3596 0.0764675 19.9626 0.0795955C19.9033 0.261726 19.8431 0.428764 19.7499 0.596195C19.7159 0.657948 19.7159 0.657948 19.6811 0.720949C19.6565 0.765083 19.6319 0.809217 19.6065 0.854688C19.5532 0.951613 19.4998 1.04857 19.4465 1.14554C19.418 1.19731 19.3895 1.24909 19.3601 1.30243C19.2126 1.57156 19.0669 1.84166 18.9218 2.1121C18.8895 2.17226 18.8571 2.23238 18.8247 2.29246C18.6453 2.62469 18.4755 2.95632 18.3279 3.30398C18.2952 3.30398 18.2625 3.30398 18.2289 3.30398C18.2156 3.34679 18.2024 3.3896 18.1888 3.43371C18.1301 3.60058 18.0598 3.75009 17.9785 3.907C17.9637 3.93557 17.949 3.96414 17.9338 3.99357C17.8858 4.08627 17.8375 4.17879 17.7892 4.2713C17.7558 4.33575 17.7223 4.4002 17.6888 4.46466C17.3724 5.07275 17.0456 5.67508 16.713 6.27448C16.6735 6.34625 16.6735 6.34625 16.6331 6.41947C16.6091 6.46281 16.5851 6.50616 16.5603 6.55082C16.4936 6.67494 16.4936 6.67494 16.4463 6.80181C16.3919 6.93553 16.3233 7.05055 16.2475 7.17325C16.048 7.52998 15.8591 7.89216 15.6716 8.25528C15.4408 8.70103 15.2038 9.14302 14.96 9.58181C14.8289 9.81959 14.7091 10.0584 14.6019 10.3079C14.5744 10.3718 14.5448 10.4347 14.5137 10.4968C14.481 10.4968 14.4483 10.4968 14.4147 10.4968C14.4012 10.5401 14.3878 10.5834 14.3739 10.6279C14.3182 10.7869 14.2527 10.9289 14.1751 11.0782C14.1332 11.159 14.1332 11.159 14.0905 11.2415C14.0606 11.2986 14.0306 11.3557 13.9998 11.4146C13.9686 11.4745 13.9373 11.5344 13.9061 11.5943C13.5801 12.2186 13.2484 12.8404 12.8986 13.4517C12.701 13.7972 12.5136 14.1367 12.3837 14.5149C12.351 14.5149 12.3183 14.5149 12.2847 14.5149C12.271 14.5586 12.2573 14.6023 12.2432 14.6474C12.1905 14.7985 12.1299 14.9329 12.0559 15.0745C12.0302 15.124 12.0045 15.1734 11.978 15.2244C11.9505 15.2767 11.923 15.3291 11.8946 15.383C11.852 15.4645 11.852 15.4645 11.8086 15.5477C11.5904 15.964 11.3671 16.3774 11.139 16.7884C11.0119 17.0187 10.897 17.2472 10.7986 17.4913C10.7659 17.4913 10.7332 17.4913 10.6995 17.4913C10.6796 17.5557 10.6796 17.5557 10.6592 17.6215C10.6017 17.7855 10.533 17.9324 10.453 18.0866C10.4093 18.1711 10.4093 18.1711 10.3646 18.2573C10.3494 18.2864 10.3342 18.3155 10.3185 18.3455C10.2732 18.4321 10.2283 18.5189 10.1835 18.6057C9.96899 19.0181 9.74146 19.4184 9.5107 19.8228C7.53278 19.8228 5.55485 19.8228 3.51698 19.8228C3.42583 19.4272 3.33882 19.0373 3.2693 18.6384C3.21306 18.3213 3.15484 18.0051 3.08974 17.6897C3.04479 17.4689 3.00746 17.2496 2.97829 17.0262C2.93454 16.7016 2.87076 16.3828 2.80491 16.062C2.67644 15.4332 2.5742 14.8019 2.47675 14.1677C2.26898 12.8264 2.0488 11.4846 1.77494 10.155C1.71834 9.87915 1.67038 9.60184 1.62251 9.32434C1.49865 8.60654 1.36894 7.88984 1.23837 7.17325C1.20429 6.9862 1.17023 6.79914 1.13621 6.61208C1.128 6.56702 1.11979 6.52195 1.11134 6.47552C1.07266 6.26264 1.03442 6.04969 0.997374 5.83651C0.990721 5.79828 0.984069 5.76004 0.977214 5.72064C0.965013 5.65022 0.952903 5.57979 0.94091 5.50933C0.907523 5.31642 0.866275 5.12741 0.817326 4.93788C0.730259 4.57679 0.690553 4.21022 0.648404 3.84169C0.642785 3.79303 0.637166 3.74437 0.631377 3.69424C0.626616 3.65133 0.621855 3.60841 0.616949 3.5642C0.583796 3.32728 0.538861 3.09273 0.495349 2.85753C0.478163 2.76257 0.461036 2.6676 0.443964 2.57262C0.435206 2.52397 0.426448 2.47531 0.417424 2.42518C0.403797 2.34943 0.403797 2.34942 0.389894 2.27214C0.375438 2.19178 0.375438 2.19178 0.360689 2.10979C0.340498 1.99753 0.32031 1.88528 0.300124 1.77302C0.279525 1.65848 0.258918 1.54394 0.238302 1.42941C0.20832 1.26283 0.178363 1.09626 0.148411 0.929679C0.139226 0.878673 0.130041 0.827668 0.120577 0.775117C0.111975 0.727243 0.103373 0.679369 0.0945106 0.630045C0.0869996 0.588289 0.0794885 0.546534 0.0717499 0.503513C0.0469198 0.362365 0.0235281 0.220967 0 0.0795955Z" fill="#242424"/>
<path d="M21.944 0.0795849C25.9162 0.0795849 29.8884 0.0795849 33.981 0.0795849C33.981 0.469928 33.981 0.469928 33.9411 0.665943C33.9327 0.708502 33.9242 0.751062 33.9156 0.794911C33.902 0.861328 33.902 0.861328 33.8881 0.929087C33.8696 1.02266 33.8511 1.11625 33.8327 1.20986C33.824 1.2547 33.8152 1.29953 33.8061 1.34572C33.7779 1.49468 33.7547 1.64401 33.7333 1.79409C33.688 2.10371 33.6269 2.40944 33.5641 2.71588C33.4836 3.10963 33.411 3.50392 33.337 3.89924C30.9341 3.89924 28.5311 3.89924 26.0554 3.89924C26.039 4.09568 26.0227 4.29212 26.0058 4.49451C25.9757 4.6923 25.9439 4.88868 25.9087 5.08552C25.8945 5.16697 25.8945 5.16697 25.88 5.25005C25.85 5.42197 25.8196 5.59382 25.7891 5.76567C25.7591 5.93647 25.7292 6.10728 25.6993 6.27809C25.6808 6.38369 25.6622 6.48927 25.6436 6.59484C25.563 7.05174 25.4876 7.50919 25.4114 7.96693C27.5201 7.96693 29.6288 7.96693 31.8014 7.96693C31.7407 8.39281 31.6782 8.81287 31.5969 9.2344C31.5873 9.28521 31.5776 9.33602 31.5677 9.38837C31.5271 9.60218 31.4862 9.81592 31.4453 10.0297C31.4152 10.1872 31.3853 10.3448 31.3554 10.5025C31.3462 10.5501 31.3371 10.5977 31.3276 10.6467C31.2868 10.862 31.2511 11.0752 31.2287 11.2933C31.207 11.489 31.207 11.489 31.1575 11.5882C29.0324 11.5882 26.9074 11.5882 24.7179 11.5882C24.6934 11.7846 24.6934 11.7846 24.6684 11.985C24.6576 12.0603 24.6464 12.1356 24.6345 12.2108C24.6285 12.2492 24.6225 12.2877 24.6162 12.3273C24.61 12.3668 24.6037 12.4063 24.5972 12.447C24.5873 12.5093 24.5873 12.5093 24.5773 12.5728C24.5429 12.7887 24.507 13.0041 24.4672 13.219C24.4126 13.5176 24.3678 13.818 24.3217 14.1181C24.2072 14.7401 24.0928 15.3622 23.9749 16.0031C26.3615 16.0031 28.7481 16.0031 31.207 16.0031C31.0844 16.6906 31.0844 16.6906 30.9593 17.3921C30.9058 17.7154 30.8528 18.0388 30.8014 18.3625C30.5794 19.7568 30.5794 19.7568 30.5135 19.8228C30.3589 19.8276 30.2053 19.8292 30.0506 19.8287C30.0014 19.8288 29.9522 19.8288 29.9015 19.8288C29.7353 19.8289 29.5691 19.8287 29.4029 19.8284C29.2843 19.8284 29.1657 19.8284 29.0471 19.8284C28.7911 19.8284 28.5351 19.8283 28.2791 19.828C27.9089 19.8276 27.5387 19.8275 27.1686 19.8274C26.5681 19.8273 25.9675 19.827 25.367 19.8265C24.7835 19.826 24.2001 19.8257 23.6166 19.8255C23.5806 19.8255 23.5447 19.8254 23.5077 19.8254C23.3274 19.8254 23.1471 19.8253 22.9668 19.8252C21.47 19.8247 19.9733 19.8239 18.4765 19.8228C18.4743 19.5782 18.4788 19.3726 18.5417 19.1347C18.6334 18.7609 18.693 18.3848 18.752 18.0048C18.8398 17.4403 18.9298 16.8773 19.0476 16.3182C19.1377 15.8843 19.2067 15.4467 19.2771 15.0092C19.3253 14.7126 19.3766 14.4173 19.4365 14.1227C19.5336 13.6447 19.6186 13.1646 19.7044 12.6844C19.734 12.5185 19.7637 12.3526 19.7935 12.1866C19.8756 11.729 19.9574 11.2714 20.038 10.8135C20.1332 10.2736 20.2319 9.73509 20.3403 9.19778C20.4738 8.53589 20.5985 7.8808 20.6677 7.20884C20.7055 6.85322 20.767 6.50395 20.8323 6.15253C20.8842 5.86805 20.932 5.58281 20.9807 5.29776C20.9925 5.22944 20.9925 5.22944 21.0046 5.15974C21.0114 5.1199 21.0182 5.08007 21.0253 5.03903C21.048 4.9153 21.0723 4.79217 21.0974 4.66891C21.1608 4.35278 21.2161 4.03529 21.2716 3.71768C21.2831 3.6524 21.2945 3.58713 21.306 3.52185C21.3542 3.24795 21.4023 2.97402 21.4503 2.70006C21.4798 2.53125 21.5095 2.36246 21.5393 2.19368C21.5555 2.10128 21.5716 2.00886 21.5877 1.91643C21.6962 1.3017 21.8216 0.69233 21.944 0.0795849Z" fill="#242424"/>
<path d="M63.6028 0.0795849C67.8366 0.0795849 72.0703 0.0795849 76.4324 0.0795849C76.4 0.501395 76.3617 0.905263 76.29 1.31973C76.2767 1.39805 76.2767 1.39805 76.2632 1.47795C76.2108 1.78158 76.1492 2.08057 76.0752 2.37967C76.0058 2.69972 75.9568 3.02355 75.9052 3.34689C75.8972 3.3968 75.8892 3.44671 75.8809 3.49813C75.8738 3.54313 75.8667 3.58812 75.8594 3.63448C75.838 3.75042 75.838 3.75042 75.7884 3.89924C73.1403 3.89924 70.4922 3.89924 67.7638 3.89924C67.7311 4.14479 67.6984 4.39034 67.6647 4.64333C67.6257 4.88342 67.5859 5.12305 67.544 5.36262C67.533 5.42574 67.5221 5.48886 67.5108 5.5539C67.4476 5.91573 67.3804 6.27607 67.3058 6.63571C67.2438 6.95146 67.1909 7.26883 67.1375 7.58614C67.1295 7.63328 67.1215 7.68041 67.1132 7.72898C67.1061 7.77126 67.099 7.81354 67.0917 7.85711C67.0703 7.96693 67.0703 7.96693 67.0207 8.11575C68.9987 8.11575 70.9766 8.11575 73.0145 8.11575C72.9029 8.84204 72.9029 8.84204 72.855 9.11C72.8446 9.16835 72.8342 9.2267 72.8235 9.28682C72.813 9.34542 72.8024 9.40403 72.7916 9.46441C72.781 9.52359 72.7705 9.58277 72.7596 9.64375C72.6997 9.97869 72.6353 10.3118 72.5687 10.6457C72.5033 11.0222 72.4379 11.3987 72.3705 11.7866C70.3762 11.7866 68.382 11.7866 66.3273 11.7866C66.3109 12.0649 66.2946 12.3432 66.2777 12.6299C66.2462 12.8056 66.2127 12.9724 66.1694 13.1446C66.0529 13.643 65.9606 14.1437 65.8753 14.6482C65.8689 14.686 65.8625 14.7237 65.8559 14.7625C65.7907 15.1478 65.7269 15.5331 65.6716 15.9199C65.6652 15.9637 65.6589 16.0076 65.6523 16.0527C65.6477 16.0856 65.643 16.1185 65.6382 16.1524C65.6 16.4127 65.5504 16.6685 65.4939 16.9255C65.3739 17.4835 65.2763 18.0451 65.1787 18.6074C65.1523 18.7588 65.1259 18.9102 65.0994 19.0615C65.0831 19.1546 65.0669 19.2477 65.0508 19.3409C65.0435 19.3825 65.0362 19.4242 65.0287 19.4671C65.0223 19.5036 65.016 19.54 65.0095 19.5776C64.9898 19.6739 64.9898 19.6739 64.9403 19.8228C63.3547 19.8228 61.7691 19.8228 60.1354 19.8228C60.1876 19.2479 60.1876 19.2479 60.2973 18.9478C60.3685 18.7176 60.3856 18.4774 60.4109 18.2385C60.4469 17.9125 60.4877 17.592 60.5552 17.271C60.6055 17.0253 60.6447 16.7775 60.6865 16.5302C60.7918 15.9124 60.9023 15.2957 61.0146 14.6792C61.023 14.6335 61.0313 14.5878 61.0399 14.5407C61.0483 14.4944 61.0568 14.4481 61.0655 14.4004C61.0828 14.3051 61.1002 14.2097 61.1176 14.1144C61.1263 14.0664 61.1351 14.0183 61.1441 13.9689C61.2559 13.355 61.366 12.7408 61.476 12.1266C61.5776 11.5597 61.6798 10.993 61.7838 10.4265C61.802 10.3272 61.8202 10.2279 61.8383 10.1286C61.8721 9.94406 61.9062 9.75959 61.9403 9.57515C62.0196 9.14365 62.0911 8.71383 62.1412 8.27788C62.1684 8.10237 62.2156 7.93882 62.2654 7.76851C62.2797 7.68972 62.2922 7.61057 62.3024 7.53113C62.308 7.48885 62.3136 7.44658 62.3194 7.40301C62.3251 7.3589 62.3307 7.31479 62.3366 7.26935C62.3764 6.97509 62.4185 6.68464 62.4852 6.39504C62.5565 6.08076 62.6052 5.76507 62.6524 5.44633C62.7306 4.92048 62.82 4.39735 62.9155 3.87444C62.9219 3.83963 62.9282 3.80481 62.9348 3.76895C62.9896 3.46873 63.0445 3.16856 63.1056 2.86953C63.1789 2.50692 63.2422 2.14237 63.3072 1.7782C63.3303 1.64901 63.3535 1.51983 63.3766 1.39065C63.3917 1.30669 63.4067 1.22272 63.4217 1.13875C63.4319 1.08222 63.4319 1.08222 63.4422 1.02454C63.4983 0.709918 63.5504 0.39491 63.6028 0.0795849Z" fill="#242424"/>
<path d="M55.6911 0.0734205C55.7583 0.073688 55.7583 0.073688 55.8267 0.0739609C55.8736 0.0739537 55.9205 0.0739464 55.9688 0.0739389C56.1245 0.0739737 56.2802 0.0743603 56.4359 0.0747481C56.5436 0.0748406 56.6513 0.0749112 56.7589 0.0749608C57.0429 0.0751506 57.3268 0.0756383 57.6108 0.0761863C57.9003 0.0766928 58.1898 0.0769201 58.4794 0.0771703C59.0479 0.077703 59.6164 0.0785502 60.1849 0.0795924C60.1121 0.555125 60.0384 1.03049 59.9623 1.50552C59.9498 1.58368 59.9374 1.66185 59.9251 1.74004C59.8514 2.20864 59.7674 2.67298 59.6674 3.13668C59.5614 3.63147 59.4746 4.12966 59.3862 4.62784C59.3672 4.73435 59.3481 4.84086 59.3291 4.94737C59.2782 5.23214 59.2275 5.51695 59.1769 5.80176C59.0985 6.24265 59.02 6.68351 58.9415 7.12438C58.8981 7.36793 58.8548 7.61149 58.8116 7.85507C58.7916 7.96729 58.7717 8.0795 58.7517 8.19172C58.7428 8.24205 58.7339 8.29238 58.7247 8.34424C58.6626 8.6928 58.5956 9.04014 58.5231 9.38667C58.4974 9.5222 58.4932 9.65209 58.4884 9.78996C58.4629 10.1659 58.3904 10.5254 58.3136 10.8938C58.2076 11.4067 58.1164 11.9217 58.0271 12.4377C58.0195 12.481 58.012 12.5244 58.0043 12.569C57.9361 12.9622 57.8684 13.3554 57.8011 13.7487C57.7143 14.254 57.6233 14.7583 57.5286 15.2621C57.5166 15.3261 57.5046 15.3901 57.4923 15.456C57.4289 15.7938 57.3654 16.1314 57.3012 16.469C57.2454 16.7627 57.1901 17.0565 57.1349 17.3504C57.1129 17.4675 57.0907 17.5846 57.0683 17.7016C57.0364 17.8688 57.005 18.0362 56.9737 18.2036C56.9643 18.252 56.9549 18.3005 56.9452 18.3504C56.8544 18.8422 56.8173 19.3187 56.767 19.8228C55.1651 19.8228 53.5631 19.8228 51.9126 19.8228C51.9502 19.4082 51.9972 19.0028 52.0581 18.5919C52.0665 18.533 52.0749 18.4741 52.0835 18.4133C52.0919 18.3563 52.1003 18.2993 52.109 18.2406C52.1202 18.164 52.1202 18.164 52.1316 18.0858C52.1603 17.9377 52.1603 17.9377 52.2087 17.7996C52.275 17.5906 52.3002 17.3831 52.328 17.1661C52.3953 16.6699 52.4799 16.1783 52.5716 15.686C52.6155 15.4499 52.6588 15.2137 52.7021 14.9775C52.7107 14.9301 52.7194 14.8828 52.7284 14.834C52.8246 14.3073 52.9145 13.7795 53.0028 13.2514C53.0666 12.8717 53.1373 12.494 53.2139 12.1167C53.2715 11.8276 53.3228 11.5374 53.3739 11.2471C53.3846 11.1866 53.3953 11.1261 53.4064 11.0637C53.4369 10.8913 53.4673 10.7189 53.4977 10.5464C53.5117 10.4675 53.5257 10.3885 53.5397 10.3095C53.6091 9.91735 53.6773 9.52503 53.7454 9.13268C53.7625 9.03431 53.7796 8.93593 53.7967 8.83756C53.8251 8.67417 53.8533 8.51076 53.8814 8.34731C53.9574 7.90755 54.0395 7.469 54.1231 7.03063C54.1393 6.94513 54.1393 6.94513 54.1559 6.85791C54.1661 6.80454 54.1764 6.75116 54.1869 6.69617C54.1961 6.64829 54.2053 6.6004 54.2147 6.55106C54.2407 6.42915 54.2407 6.42915 54.2903 6.28034C54.3039 6.11399 54.3123 5.94765 54.321 5.78098C54.3391 5.59315 54.3716 5.4159 54.4103 5.23157C54.4426 5.07129 54.4703 4.91057 54.4975 4.74933C54.5077 4.68894 54.5179 4.62854 54.5284 4.56631C54.5491 4.44257 54.5697 4.31882 54.5903 4.19505C54.639 3.90736 54.6913 3.62274 54.7597 3.33905C54.8465 2.97314 54.9043 2.60392 54.9621 2.23254C54.9936 2.03023 55.026 1.82807 55.0585 1.6259C55.0648 1.58644 55.0711 1.54698 55.0776 1.50633C55.1298 1.18289 55.1859 0.860336 55.2469 0.538447C55.2548 0.496308 55.2627 0.454168 55.2708 0.410751C55.3355 0.0771534 55.3506 0.0739939 55.6911 0.0734205Z" fill="#242424"/>
<path d="M79.2698 0.0734205C79.3369 0.073688 79.3369 0.073688 79.4054 0.0739609C79.4522 0.0739537 79.4991 0.0739464 79.5474 0.0739389C79.7031 0.0739737 79.8588 0.0743603 80.0146 0.0747481C80.1222 0.0748406 80.2299 0.0749112 80.3375 0.0749608C80.6215 0.0751506 80.9055 0.0756383 81.1894 0.0761863C81.479 0.0766928 81.7685 0.0769201 82.058 0.0771703C82.6265 0.077703 83.195 0.0785502 83.7635 0.0795924C83.756 0.15031 83.7483 0.221019 83.7406 0.291725C83.7364 0.331102 83.7321 0.370479 83.7278 0.411049C83.7091 0.5672 83.681 0.720655 83.6511 0.875032C83.6389 0.939097 83.6267 1.00316 83.6141 1.06917C83.6076 1.10244 83.6012 1.13572 83.5946 1.17C83.4947 1.68807 83.3988 2.2064 83.3146 2.72731C83.2385 3.19763 83.1507 3.66507 83.0595 4.13269C82.9797 4.54371 82.9088 4.95553 82.8417 5.3688C82.7429 5.97121 82.6402 6.57185 82.5078 7.16782C82.4643 7.37669 82.4336 7.58666 82.4031 7.79777C82.364 8.04737 82.3128 8.29448 82.2618 8.54186C82.229 8.72464 82.2179 8.9059 82.2073 9.09121C82.1842 9.44402 82.1198 9.77736 82.0422 10.1217C81.9162 10.7038 81.8124 11.286 81.724 11.8748C81.6732 12.207 81.6134 12.5353 81.5424 12.8636C81.4082 13.4853 81.3009 14.1118 81.1908 14.7381C81.1492 14.9743 81.1074 15.2105 81.0656 15.4466C81.0554 15.5047 81.0451 15.5627 81.0345 15.6226C80.951 16.0937 80.8645 16.5643 80.7764 17.0347C80.6917 17.4881 80.6151 17.9428 80.5438 18.3985C80.5356 18.4503 80.5274 18.5021 80.519 18.5555C80.5024 18.6608 80.4859 18.766 80.4695 18.8713C80.4613 18.923 80.4531 18.9747 80.4447 19.0279C80.434 19.0963 80.434 19.0963 80.423 19.166C80.3849 19.3857 80.3398 19.6041 80.2961 19.8228C78.7105 19.8228 77.1249 19.8228 75.4912 19.8228C75.5469 19.2091 75.5469 19.2091 75.5945 18.9605C75.6048 18.9061 75.6151 18.8517 75.6256 18.7957C75.6364 18.7397 75.6473 18.6837 75.6584 18.626C75.6809 18.5072 75.7033 18.3885 75.7257 18.2697C75.7366 18.2126 75.7474 18.1556 75.7585 18.0968C75.8032 17.8589 75.845 17.6206 75.8862 17.3821C75.9144 17.2199 75.9438 17.0581 75.9755 16.8966C76.0551 16.4908 76.1141 16.0888 76.1537 15.677C76.1743 15.5053 76.2109 15.3411 76.2517 15.1732C76.3602 14.7164 76.4278 14.253 76.5005 13.7894C76.6191 13.0347 76.7509 12.2835 76.8917 11.5326C76.9589 11.1733 77.0251 10.8139 77.0914 10.4544C77.1058 10.3763 77.1203 10.2982 77.1347 10.2201C77.1792 9.97856 77.2238 9.73699 77.2683 9.49542C77.2759 9.45414 77.2835 9.41285 77.2913 9.37032C77.4897 8.29414 77.6873 7.21791 77.8712 6.13914C77.923 5.83591 77.9776 5.53488 78.0471 5.23518C78.0804 5.07537 78.0945 4.91418 78.1104 4.75185C78.1537 4.34589 78.2307 3.95043 78.3139 3.55104C78.3716 3.27336 78.4198 2.99426 78.4657 2.71442C78.5076 2.4659 78.5076 2.4659 78.5624 2.41107C78.5765 2.28086 78.5884 2.15091 78.5995 2.02042C78.6401 1.59029 78.7096 1.16774 78.7884 0.743072C78.7994 0.683355 78.8104 0.623638 78.8217 0.562112C78.9142 0.0740192 78.9142 0.0740191 79.2698 0.0734205Z" fill="#242424"/>
<path fill-rule="evenodd" clip-rule="evenodd" d="M44.004 0.0571107C44.8825 0.0526465 45.7531 0.0549151 46.6254 0.168288C46.6854 0.176068 46.7454 0.183864 46.8072 0.19188C48.2263 0.398789 49.6502 1.0632 50.538 2.22195C50.9238 2.78779 51.1787 3.37741 51.3182 4.04806L51.3518 4.20308C51.6678 5.90222 51.0952 7.72308 50.1515 9.13456C49.5743 9.96103 48.8412 10.6429 47.969 11.1437C47.8433 11.2165 47.7252 11.2916 47.6062 11.3742C47.14 11.6692 46.5386 11.8171 46.0179 11.985C46.0451 12.1807 46.0859 12.3445 46.1665 12.5245C46.2694 12.7636 46.3625 13.0044 46.4516 13.249C46.6612 13.823 46.891 14.3865 47.1294 14.949C47.4142 15.6212 47.6957 16.2947 47.972 16.9705C48.0103 17.064 48.0486 17.1576 48.0869 17.2511C48.2917 17.7505 48.4916 18.2509 48.6783 18.7574C48.7629 18.9853 48.8519 19.2113 48.9415 19.4373C48.99 19.5747 48.99 19.5747 49.0396 19.8228H43.6403L42.7982 17.5905L42.5505 16.9952C42.5158 16.8634 42.4826 16.7311 42.4514 16.5984C42.3976 16.4353 42.3374 16.2747 42.2771 16.1139C42.2602 16.0686 42.2434 16.0232 42.226 15.9765C42.1904 15.8809 42.1547 15.7853 42.119 15.6898C42.0649 15.5454 42.0112 15.401 41.9575 15.2565C41.7993 14.8316 41.6389 14.4088 41.4616 13.9914C41.3867 13.8109 41.3224 13.6272 41.2595 13.4422C41.1641 13.1656 41.0639 12.8932 40.9487 12.6241C40.9158 12.5307 40.9158 12.5307 40.9158 12.3819H39.727L39.6775 12.9275C39.6628 13.0268 39.6466 13.1258 39.6279 13.2243C39.6135 13.3014 39.6135 13.3014 39.5989 13.3799C39.5886 13.4335 39.5783 13.4871 39.5678 13.5424C39.5571 13.5994 39.5464 13.6565 39.5353 13.7152C39.5014 13.8961 39.4672 14.0768 39.4329 14.2576C39.3879 14.4956 39.343 14.7336 39.2984 14.9716C39.2878 15.0282 39.2772 15.0848 39.2662 15.1431C39.2031 15.4829 39.146 15.822 39.1032 16.165C39.0803 16.3193 39.0458 16.4686 39.0088 16.6201C38.9371 16.9152 38.896 17.2093 38.8615 17.5108C38.8384 17.6688 38.8032 17.8182 38.7629 17.9724C38.707 18.2124 38.6744 18.457 38.6372 18.7004C38.6208 18.8073 38.6043 18.9141 38.5877 19.0209C38.5806 19.0677 38.5734 19.1146 38.566 19.1628C38.5285 19.3836 38.483 19.6031 38.4391 19.8228H33.6342C33.6899 19.3205 33.6899 19.3205 33.7267 19.1128L33.751 18.9743L33.7766 18.8306L33.8034 18.6784C33.8295 18.5307 33.8557 18.383 33.8819 18.2354C33.8949 18.1615 33.908 18.0876 33.921 18.0137C33.9269 17.9802 33.9328 17.9468 33.9388 17.9123C33.9504 17.8466 33.962 17.7808 33.9736 17.715C34.0006 17.561 34.0278 17.407 34.0553 17.2531C34.0823 17.1021 34.109 16.951 34.1358 16.7999L34.1614 16.6575C34.2077 16.3942 34.2438 16.1328 34.2664 15.8664C34.2829 15.7109 34.3148 15.5601 34.3474 15.4072C34.3715 15.2874 34.3931 15.1678 34.4132 15.0472C34.4196 15.0096 34.4259 14.972 34.4324 14.9333C34.445 14.8582 34.4573 14.783 34.4693 14.7078C34.5156 14.4335 34.5156 14.4335 34.5752 14.33C34.6483 14.1642 34.6518 13.994 34.6657 13.8154C34.7232 13.1917 34.8449 12.581 34.9624 11.9664C35.0074 11.728 35.0521 11.4895 35.0968 11.251C35.1077 11.1934 35.1185 11.1358 35.1297 11.0765C35.2113 10.6421 35.2885 10.2072 35.3617 9.77135C35.4224 9.41144 35.486 9.05294 35.5599 8.69552C35.6623 8.1993 35.7486 7.70028 35.8354 7.20114C35.8429 7.15816 35.8504 7.11517 35.8581 7.07088C35.9348 6.62968 36.0108 6.18836 36.0858 5.74687C36.0971 5.6808 36.1083 5.61472 36.1196 5.54864C36.14 5.42851 36.1603 5.30832 36.1804 5.18813C36.2183 4.96493 36.2566 4.74428 36.3145 4.52533C36.3684 4.30575 36.3776 4.09662 36.3863 3.87154C36.4047 3.72767 36.4323 3.61984 36.4798 3.48477C36.5578 3.26248 36.5972 3.04712 36.628 2.81412C36.6403 2.72718 36.6526 2.64024 36.6649 2.5533C36.6714 2.50679 36.6778 2.46029 36.6845 2.41238C37.0104 0.0737147 37.0104 0.0736985 37.4264 0.0722734C37.4607 0.0720911 37.4951 0.0719285 37.5305 0.0717406C37.6465 0.0711908 37.7626 0.0710087 37.8787 0.0708202C37.9616 0.0705095 38.0445 0.0701502 38.1274 0.0698028C38.4012 0.0687552 38.675 0.0682611 38.9488 0.0677682C39.0434 0.0675674 39.138 0.067346 39.2326 0.0671385C39.6786 0.0661913 40.1246 0.0655163 40.5705 0.0651038C41.082 0.0646229 41.5935 0.0632961 42.105 0.0612768C42.5019 0.0597651 42.8988 0.0590659 43.2957 0.0589031C43.5318 0.058788 43.7679 0.0583795 44.004 0.0571107ZM43.9715 4.03755C43.895 4.03809 43.8184 4.03848 43.7419 4.03867C43.5402 4.03892 43.3385 4.03947 43.1368 4.04056C42.9282 4.04169 42.7196 4.04241 42.511 4.04293C42.0618 4.044 41.6127 4.04575 41.1635 4.04806C41.1258 4.26478 41.0881 4.48151 41.0503 4.69822C41.0344 4.78947 41.0184 4.88072 41.0025 4.97197C40.9132 5.4848 40.8241 5.99761 40.729 6.50942C40.6559 6.90229 40.5922 7.295 40.5381 7.691C40.5177 7.84954 40.4979 8.00792 40.47 8.16536C40.4223 8.32082 40.3729 8.46404 40.3666 8.62702C40.3671 8.66766 40.3676 8.70714 40.3681 8.74658C40.3688 8.81741 40.3697 8.88823 40.371 8.95905C40.7996 8.96114 41.2283 8.96284 41.657 8.9639C41.8759 8.9644 42.0947 8.96487 42.3135 8.96588C42.5276 8.96698 42.7417 8.96793 42.9558 8.96831C43.0375 8.9684 43.1192 8.96856 43.2008 8.96874C43.318 8.96952 43.4351 8.97027 43.5522 8.97034C43.5891 8.97033 43.6249 8.97031 43.6607 8.97029C44.0558 8.97165 44.3872 8.86975 44.749 8.72052C45.4682 8.39263 45.924 7.87214 46.2206 7.13841C46.2359 7.09965 46.2508 7.06204 46.2656 7.02442C46.4852 6.48972 46.4744 5.90684 46.4142 5.33782C46.3404 5.0016 46.1465 4.71455 45.8711 4.50963L45.7703 4.44491C45.1941 4.07226 44.6421 4.03302 43.9715 4.03755Z" fill="#242424"/>
</svg>
