<svg width="16" height="16" viewBox="0 0 16 16" fill="none" xmlns="http://www.w3.org/2000/svg">
<path d="M8.00135 5.16659C7.47092 5.16659 6.96221 5.3773 6.58714 5.75237C6.21206 6.12744 6.00135 6.63615 6.00135 7.16659C6.00135 7.69702 6.21206 8.20573 6.58714 8.5808C6.96221 8.95587 7.47092 9.16659 8.00135 9.16659C8.53178 9.16659 9.04049 8.95587 9.41556 8.5808C9.79064 8.20573 10.0013 7.69702 10.0013 7.16659C10.0013 6.63615 9.79064 6.12744 9.41556 5.75237C9.04049 5.3773 8.53178 5.16659 8.00135 5.16659ZM6.83468 7.16659C6.83468 6.85717 6.9576 6.56042 7.17639 6.34163C7.39518 6.12283 7.69193 5.99992 8.00135 5.99992C8.31077 5.99992 8.60752 6.12283 8.82631 6.34163C9.0451 6.56042 9.16802 6.85717 9.16802 7.16659C9.16802 7.476 9.0451 7.77275 8.82631 7.99154C8.60752 8.21034 8.31077 8.33325 8.00135 8.33325C7.69193 8.33325 7.39518 8.21034 7.17639 7.99154C6.9576 7.77275 6.83468 7.476 6.83468 7.16659ZM12.333 10.6666L8.97035 14.2366C8.84569 14.369 8.69528 14.4744 8.52835 14.5465C8.36142 14.6186 8.18151 14.6558 7.99968 14.6558C7.81785 14.6558 7.63794 14.6186 7.47102 14.5465C7.30409 14.4744 7.15368 14.369 7.02902 14.2366L3.66635 10.6666H3.67902L3.67335 10.6599L3.66635 10.6516C2.8032 9.63084 2.33066 8.33669 2.33302 6.99992C2.33302 3.87025 4.87002 1.33325 7.99968 1.33325C11.1294 1.33325 13.6664 3.87025 13.6664 6.99992C13.6687 8.33669 13.1962 9.63084 12.333 10.6516L12.326 10.6599L12.3204 10.6666H12.333ZM11.6854 10.1269C12.4281 9.25454 12.8351 8.14567 12.833 6.99992C12.833 4.33059 10.669 2.16659 7.99968 2.16659C5.33035 2.16659 3.16635 4.33059 3.16635 6.99992C3.16427 8.14567 3.57124 9.25454 4.31402 10.1269L4.41668 10.2479L7.63568 13.6649C7.68243 13.7146 7.73884 13.7541 7.80143 13.7811C7.86403 13.8082 7.9315 13.8221 7.99968 13.8221C8.06787 13.8221 8.13534 13.8082 8.19793 13.7811C8.26053 13.7541 8.31694 13.7146 8.36368 13.6649L11.5827 10.2479L11.6854 10.1269Z" fill="#242424"/>
</svg>
