<svg width="124" height="14" viewBox="0 0 124 14" fill="none" xmlns="http://www.w3.org/2000/svg">
<path d="M0 0.0961709C1.19775 0.0961709 2.39551 0.0961709 3.62956 0.0961709C3.67609 0.188774 3.67453 0.277822 3.68168 0.379771C3.7198 0.909536 3.81342 1.42908 3.90434 1.95176C3.94563 2.18945 3.98434 2.42751 4.02218 2.66576C4.05287 2.85882 4.08383 3.0518 4.11651 3.24454C4.15639 3.48161 4.19291 3.71916 4.22904 3.95682C4.24023 4.0304 4.25151 4.10398 4.26279 4.17755C4.29876 4.4132 4.33296 4.64885 4.36354 4.88526C4.38547 5.05165 4.4127 5.21467 4.44752 5.37877C4.49668 5.62832 4.53292 5.88037 4.57185 6.13166C4.57654 6.16182 4.58123 6.19198 4.58607 6.22306C4.64336 6.59269 4.69828 6.96148 4.72603 7.33471C4.74231 7.55189 4.77823 7.76415 4.81614 7.97856C4.82577 8.03457 4.83536 8.09059 4.84491 8.14662C4.84973 8.17488 4.85455 8.20314 4.85952 8.23226C4.91494 8.55858 4.96741 8.88525 5.01791 9.21235C5.02336 9.2476 5.02881 9.28286 5.03443 9.31918C5.0622 9.49878 5.08981 9.6784 5.11718 9.85806C5.12748 9.92491 5.13778 9.99176 5.1481 10.0586C5.15282 10.09 5.15754 10.1213 5.1624 10.1536C5.17222 10.2929 5.17222 10.2929 5.23494 10.4092C5.25181 10.3755 5.26869 10.3417 5.28608 10.3069C5.34962 10.1799 5.41325 10.0528 5.47692 9.92581C5.50429 9.87117 5.53163 9.81652 5.55895 9.76186C5.69856 9.48253 5.83788 9.20388 5.99249 8.93236C6.04889 8.82529 6.09473 8.7148 6.14233 8.60359C6.17921 8.52716 6.21672 8.45102 6.2548 8.37517C6.26531 8.35419 6.27583 8.33322 6.28667 8.31161C6.32063 8.24395 6.35471 8.17636 6.3888 8.10877C6.40055 8.08544 6.41229 8.06211 6.42439 8.03808C6.60121 7.68697 6.78238 7.33847 6.96727 6.99151C7.27103 6.4203 7.56474 5.84507 7.84804 5.26356C8.15924 4.6248 8.47656 3.98916 8.79555 3.35424C8.83349 3.27869 8.87141 3.20313 8.90931 3.12757C9.17965 2.58872 9.4514 2.05094 9.73698 1.51986C9.76762 1.4627 9.79826 1.40553 9.82888 1.34836C9.86945 1.27267 9.91004 1.19699 9.95086 1.12144C10.0151 1.00162 10.071 0.88219 10.1209 0.75593C10.1484 0.704824 10.1767 0.654169 10.2059 0.604012C10.2611 0.507225 10.3114 0.411601 10.3543 0.308856C10.4001 0.200343 10.4001 0.200343 10.4699 0.0961709C10.5346 0.0833527 10.5346 0.0833527 10.6147 0.0836437C10.6451 0.0835005 10.6754 0.0833573 10.7067 0.0832098C10.74 0.0835843 10.7734 0.0839588 10.8078 0.0843447C10.8428 0.0843295 10.8779 0.0843143 10.9141 0.0842986C11.0304 0.0843714 11.1467 0.0851829 11.263 0.0859978C11.3435 0.0861921 11.424 0.0863404 11.5045 0.0864445C11.7167 0.0868428 11.9288 0.0878667 12.141 0.089018C12.3574 0.0900823 12.5738 0.0905591 12.7902 0.0910844C13.2149 0.0922027 13.6397 0.0939814 14.0645 0.0961709C14.0228 0.223662 13.9803 0.340589 13.9147 0.457791C13.8907 0.501018 13.8907 0.501018 13.8662 0.545118C13.8489 0.576012 13.8316 0.606906 13.8137 0.638736C13.7761 0.706583 13.7385 0.77445 13.7009 0.842334C13.6809 0.878574 13.6608 0.914814 13.6401 0.952152C13.5362 1.14055 13.4335 1.32961 13.3313 1.51893C13.3085 1.56104 13.2857 1.60312 13.2628 1.64518C13.1364 1.87774 13.0168 2.10987 12.9128 2.35324C12.8898 2.35324 12.8668 2.35324 12.843 2.35324C12.8337 2.38321 12.8244 2.41318 12.8148 2.44405C12.7735 2.56086 12.7239 2.66552 12.6666 2.77536C12.6563 2.79535 12.6459 2.81535 12.6352 2.83595C12.6014 2.90084 12.5674 2.96561 12.5333 3.03036C12.5097 3.07548 12.4861 3.1206 12.4626 3.16572C12.2396 3.59138 12.0094 4.01301 11.7751 4.43259C11.7472 4.48283 11.7472 4.48283 11.7188 4.53408C11.7018 4.56442 11.6849 4.59477 11.6675 4.62603C11.6204 4.71291 11.6204 4.71291 11.5871 4.80172C11.5488 4.89533 11.5005 4.97584 11.4471 5.06173C11.3066 5.31144 11.1735 5.56496 11.0414 5.81915C10.8787 6.13117 10.7118 6.44057 10.54 6.74772C10.4476 6.91417 10.3632 7.08131 10.2877 7.25601C10.2683 7.30069 10.2474 7.34473 10.2256 7.38824C10.2025 7.38824 10.1795 7.38824 10.1558 7.38824C10.1463 7.41853 10.1368 7.44881 10.1271 7.48001C10.0878 7.59132 10.0417 7.69065 9.98701 7.79517C9.9575 7.85175 9.9575 7.85175 9.92739 7.90947C9.9063 7.94946 9.88522 7.98944 9.86349 8.03064C9.84149 8.07259 9.81949 8.11454 9.79749 8.15649C9.56781 8.5935 9.33406 9.0287 9.08766 9.45664C8.94842 9.69853 8.81637 9.93613 8.7249 10.2009C8.70186 10.2009 8.67883 10.2009 8.6551 10.2009C8.64546 10.2315 8.63583 10.2621 8.62591 10.2936C8.58874 10.3994 8.54605 10.4935 8.49396 10.5926C8.47585 10.6272 8.45773 10.6618 8.43907 10.6975C8.41966 10.7342 8.40026 10.7708 8.38026 10.8086C8.35028 10.8656 8.35027 10.8656 8.31968 10.9239C8.16596 11.2153 8.00861 11.5046 7.84792 11.7923C7.75839 11.9535 7.67744 12.1135 7.60811 12.2844C7.58508 12.2844 7.56204 12.2844 7.53831 12.2844C7.52425 12.3295 7.52425 12.3295 7.5099 12.3755C7.46935 12.4903 7.42099 12.5931 7.36463 12.701C7.33379 12.7602 7.33379 12.7602 7.30233 12.8205C7.2916 12.8409 7.28088 12.8613 7.26983 12.8823C7.23794 12.9429 7.20633 13.0037 7.17473 13.0644C7.0236 13.3531 6.8633 13.6333 6.70072 13.9164C5.30718 13.9164 3.91364 13.9164 2.47787 13.9164C2.41365 13.6395 2.35235 13.3666 2.30337 13.0873C2.26375 12.8654 2.22272 12.644 2.17686 12.4232C2.14519 12.2687 2.11889 12.1152 2.09834 11.9588C2.06751 11.7316 2.02258 11.5084 1.97619 11.2839C1.88567 10.8437 1.81364 10.4018 1.74498 9.95783C1.5986 9.01892 1.44347 8.07965 1.25052 7.14897C1.21065 6.95586 1.17686 6.76174 1.14313 6.56749C1.05586 6.06503 0.964483 5.56334 0.87249 5.06173C0.848477 4.93079 0.824483 4.79985 0.800509 4.66891C0.794727 4.63736 0.788944 4.60582 0.782987 4.57332C0.755736 4.4243 0.728798 4.27524 0.702695 4.12601C0.698008 4.09925 0.693321 4.07248 0.688491 4.0449C0.679895 3.99561 0.671363 3.94631 0.662913 3.89699C0.639391 3.76195 0.61033 3.62964 0.575843 3.49697C0.514501 3.2442 0.486525 2.98761 0.45683 2.72964C0.452871 2.69558 0.448912 2.66152 0.444833 2.62642C0.441479 2.59638 0.438125 2.56634 0.434668 2.53539C0.41131 2.36955 0.379652 2.20536 0.348996 2.04072C0.336888 1.97425 0.32482 1.90777 0.312793 1.84129C0.306622 1.80723 0.300452 1.77317 0.294094 1.73808C0.284493 1.68505 0.284493 1.68505 0.274698 1.63095C0.264513 1.5747 0.264513 1.5747 0.254122 1.51731C0.239896 1.43873 0.225673 1.36015 0.211451 1.28157C0.196938 1.20139 0.182419 1.12121 0.167895 1.04104C0.146771 0.924438 0.125665 0.807834 0.104562 0.691229C0.098091 0.655525 0.0916197 0.619821 0.0849522 0.583036C0.0788917 0.549524 0.0728311 0.516012 0.066587 0.481485C0.0612951 0.452257 0.0560033 0.423028 0.050551 0.392913C0.0330571 0.29411 0.0165766 0.195131 0 0.0961709Z" fill="#242424"/>
<path d="M15.4605 0.0961635C18.2591 0.0961635 21.0577 0.0961635 23.9411 0.0961635C23.9411 0.369404 23.9411 0.369404 23.913 0.506614C23.9071 0.536406 23.9012 0.566197 23.895 0.596892C23.8855 0.643384 23.8855 0.643384 23.8757 0.690815C23.8626 0.756317 23.8496 0.821832 23.8367 0.887359C23.8305 0.918742 23.8243 0.950126 23.8179 0.98246C23.798 1.08673 23.7817 1.19126 23.7666 1.29632C23.7347 1.51305 23.6916 1.72706 23.6474 1.94157C23.5907 2.2172 23.5396 2.4932 23.4874 2.76992C21.7944 2.76992 20.1015 2.76992 18.3572 2.76992C18.3457 2.90743 18.3342 3.04494 18.3223 3.18661C18.3011 3.32506 18.2786 3.46253 18.2539 3.60032C18.2438 3.65733 18.2438 3.65733 18.2336 3.71549C18.2125 3.83583 18.191 3.95613 18.1696 4.07642C18.1485 4.19598 18.1274 4.31555 18.1063 4.43512C18.0933 4.50904 18.0802 4.58294 18.067 4.65684C18.0103 4.97667 17.9572 5.29689 17.9035 5.61731C19.3892 5.61731 20.8748 5.61731 22.4055 5.61731C22.3627 5.91542 22.3187 6.20946 22.2614 6.50453C22.2547 6.5401 22.2479 6.57567 22.2409 6.61231C22.2123 6.76198 22.1835 6.9116 22.1546 7.06121C22.1334 7.17152 22.1124 7.28184 22.0913 7.39217C22.0848 7.42549 22.0784 7.45881 22.0717 7.49314C22.043 7.64385 22.0178 7.79311 22.002 7.94575C21.9867 8.08272 21.9867 8.08272 21.9518 8.15217C20.4547 8.15217 18.9575 8.15217 17.4149 8.15217C17.3976 8.28968 17.3976 8.28968 17.38 8.42996C17.3724 8.48268 17.3645 8.53537 17.3561 8.58798C17.3519 8.6149 17.3476 8.64182 17.3432 8.66956C17.3388 8.6972 17.3344 8.72485 17.3298 8.75333C17.3229 8.79695 17.3229 8.79695 17.3158 8.84145C17.2915 8.99253 17.2663 9.14329 17.2382 9.29373C17.1998 9.50279 17.1682 9.71304 17.1357 9.9231C17.0551 10.3585 16.9745 10.794 16.8914 11.2426C18.5729 11.2426 20.2543 11.2426 21.9867 11.2426C21.9004 11.7239 21.9004 11.7239 21.8122 12.2149C21.7745 12.4412 21.7372 12.6676 21.701 12.8942C21.5446 13.8702 21.5446 13.8702 21.4981 13.9164C21.3892 13.9198 21.281 13.9209 21.172 13.9206C21.1373 13.9206 21.1027 13.9206 21.067 13.9206C20.9499 13.9207 20.8328 13.9205 20.7157 13.9203C20.6321 13.9203 20.5486 13.9203 20.465 13.9203C20.2846 13.9203 20.1043 13.9202 19.9239 13.9201C19.6631 13.9198 19.4023 13.9197 19.1415 13.9196C18.7184 13.9196 18.2953 13.9193 17.8722 13.919C17.4611 13.9187 17.05 13.9184 16.6389 13.9183C16.6136 13.9183 16.5883 13.9183 16.5622 13.9183C16.4352 13.9182 16.3081 13.9182 16.1811 13.9181C15.1266 13.9178 14.0721 13.9172 13.0175 13.9164C13.016 13.7452 13.0191 13.6013 13.0635 13.4347C13.1281 13.1731 13.1701 12.9098 13.2116 12.6438C13.2735 12.2486 13.3369 11.8546 13.4199 11.4632C13.4834 11.1595 13.532 10.8531 13.5816 10.5469C13.6155 10.3392 13.6517 10.1325 13.6939 9.92636C13.7623 9.59175 13.8222 9.25565 13.8826 8.91953C13.9035 8.80338 13.9245 8.68724 13.9454 8.57111C14.0032 8.25076 14.0609 7.9304 14.1177 7.60988C14.1847 7.23201 14.2543 6.85502 14.3306 6.4789C14.4247 6.01558 14.5126 5.55701 14.5614 5.08664C14.5879 4.83771 14.6313 4.59322 14.6773 4.34723C14.7138 4.14809 14.7475 3.94842 14.7819 3.74889C14.7902 3.70106 14.7902 3.70106 14.7987 3.65227C14.8035 3.62439 14.8083 3.5965 14.8133 3.56777C14.8292 3.48116 14.8464 3.39498 14.864 3.30869C14.9088 3.0874 14.9477 2.86516 14.9868 2.64283C14.9949 2.59713 15.003 2.55144 15.0111 2.50575C15.045 2.31402 15.0789 2.12227 15.1127 1.9305C15.1335 1.81233 15.1544 1.69418 15.1754 1.57603C15.1868 1.51135 15.1982 1.44666 15.2095 1.38196C15.286 0.951646 15.3743 0.525085 15.4605 0.0961635Z" fill="#242424"/>
<path d="M44.8111 0.0961635C47.7939 0.0961635 50.7768 0.0961635 53.8501 0.0961635C53.8272 0.39143 53.8003 0.674138 53.7497 0.964268C53.7404 1.01909 53.7404 1.01909 53.7308 1.07502C53.6939 1.28756 53.6506 1.49685 53.5984 1.70623C53.5495 1.93026 53.515 2.15694 53.4786 2.38328C53.473 2.41821 53.4673 2.45315 53.4615 2.48915C53.4565 2.52064 53.4515 2.55214 53.4464 2.58459C53.4313 2.66575 53.4313 2.66575 53.3964 2.76992C51.5306 2.76992 49.6649 2.76992 47.7426 2.76992C47.7196 2.94181 47.6966 3.11369 47.6728 3.29079C47.6454 3.45885 47.6173 3.62659 47.5878 3.79429C47.58 3.83847 47.5723 3.88266 47.5644 3.92818C47.5199 4.18147 47.4725 4.4337 47.4199 4.68545C47.3763 4.90648 47.339 5.12864 47.3014 5.35075C47.2958 5.38375 47.2901 5.41674 47.2843 5.45074C47.2793 5.48034 47.2743 5.50994 47.2691 5.54043C47.254 5.61731 47.254 5.61731 47.2191 5.72148C48.6127 5.72148 50.0062 5.72148 51.442 5.72148C51.3634 6.22988 51.3634 6.22988 51.3297 6.41745C51.3223 6.4583 51.315 6.49914 51.3074 6.54123C51.3 6.58225 51.2926 6.62327 51.2849 6.66554C51.2775 6.70697 51.2701 6.74839 51.2624 6.79108C51.2202 7.02554 51.1749 7.25875 51.1279 7.49241C51.0818 7.75597 51.0358 8.01952 50.9883 8.29107C49.5832 8.29107 48.1782 8.29107 46.7305 8.29107C46.719 8.48587 46.7075 8.68067 46.6956 8.88138C46.6734 9.00438 46.6499 9.12117 46.6193 9.24164C46.5373 9.59057 46.4722 9.94104 46.4121 10.2942C46.4076 10.3206 46.4031 10.347 46.3984 10.3742C46.3525 10.6439 46.3076 10.9136 46.2686 11.1844C46.2641 11.2151 46.2596 11.2457 46.255 11.2773C46.2517 11.3004 46.2484 11.3234 46.245 11.3471C46.2182 11.5294 46.1832 11.7084 46.1434 11.8883C46.0589 12.2789 45.9901 12.672 45.9213 13.0656C45.9027 13.1716 45.8841 13.2776 45.8654 13.3835C45.854 13.4487 45.8425 13.5139 45.8312 13.5791C45.8261 13.6082 45.8209 13.6374 45.8156 13.6674C45.8112 13.6929 45.8067 13.7185 45.8021 13.7448C45.7883 13.8122 45.7882 13.8122 45.7533 13.9164C44.6362 13.9164 43.5191 13.9164 42.3681 13.9164C42.4049 13.514 42.4049 13.514 42.4822 13.3039C42.5323 13.1427 42.5443 12.9746 42.5622 12.8074C42.5876 12.5792 42.6163 12.3549 42.6639 12.1301C42.6993 11.9581 42.7269 11.7847 42.7564 11.6116C42.8306 11.1792 42.9084 10.7475 42.9876 10.3159C42.9934 10.2839 42.9993 10.2519 43.0053 10.219C43.0113 10.1866 43.0172 10.1541 43.0234 10.1207C43.0356 10.054 43.0478 9.98727 43.0601 9.92052C43.0663 9.88691 43.0724 9.85329 43.0788 9.81865C43.1575 9.38894 43.2351 8.95901 43.3126 8.52908C43.3842 8.13226 43.4562 7.73552 43.5295 7.339C43.5423 7.26948 43.5551 7.19997 43.5679 7.13045C43.5917 7.0013 43.6157 6.87217 43.6397 6.74306C43.6956 6.44101 43.746 6.14014 43.7813 5.83497C43.8004 5.71211 43.8337 5.59763 43.8688 5.47841C43.8789 5.42326 43.8877 5.36785 43.8948 5.31225C43.8988 5.28265 43.9027 5.25306 43.9068 5.22256C43.9108 5.19169 43.9148 5.16081 43.9189 5.129C43.947 4.92302 43.9767 4.7197 44.0236 4.51698C44.0739 4.29698 44.1082 4.07601 44.1414 3.85288C44.1965 3.48479 44.2595 3.1186 44.3268 2.75256C44.3313 2.72819 44.3358 2.70382 44.3404 2.67872C44.379 2.46857 44.4177 2.25845 44.4607 2.04913C44.5124 1.7953 44.5569 1.54011 44.6028 1.28519C44.619 1.19476 44.6354 1.10434 44.6517 1.01391C44.6623 0.955135 44.6729 0.896357 44.6835 0.837579C44.6906 0.798005 44.6906 0.798005 44.6979 0.757632C44.7374 0.537396 44.7741 0.316891 44.8111 0.0961635Z" fill="#242424"/>
<path d="M39.2369 0.0918484C39.2842 0.0920357 39.2842 0.0920357 39.3324 0.0922267C39.3655 0.0922217 39.3985 0.0922166 39.4325 0.0922114C39.5422 0.0922357 39.652 0.0925063 39.7617 0.0927778C39.8375 0.0928425 39.9134 0.0928919 39.9892 0.0929267C40.1893 0.0930595 40.3893 0.0934009 40.5894 0.0937845C40.7934 0.0941391 40.9974 0.0942982 41.2013 0.0944733C41.6019 0.0948462 42.0024 0.0954392 42.403 0.0961688C42.3517 0.429042 42.2997 0.761799 42.2461 1.09432C42.2373 1.14903 42.2286 1.20375 42.22 1.25848C42.168 1.5865 42.1088 1.91154 42.0383 2.23613C41.9637 2.58248 41.9025 2.93122 41.8402 3.27994C41.8268 3.3545 41.8134 3.42906 41.8 3.50361C41.7642 3.70295 41.7284 3.90232 41.6928 4.10169C41.6375 4.41031 41.5822 4.71891 41.5269 5.02752C41.4963 5.198 41.4658 5.3685 41.4354 5.539C41.4213 5.61755 41.4073 5.6961 41.3932 5.77465C41.3869 5.80989 41.3807 5.84512 41.3742 5.88142C41.3305 6.12542 41.2833 6.36856 41.2321 6.61112C41.2141 6.706 41.2111 6.79692 41.2077 6.89342C41.1898 7.1566 41.1387 7.40822 41.0846 7.66612C41.0099 8.02514 40.9456 8.38562 40.8827 8.74683C40.8774 8.77717 40.8721 8.80752 40.8666 8.83879C40.8186 9.11399 40.7709 9.38927 40.7234 9.66457C40.6623 10.0183 40.5982 10.3712 40.5315 10.7239C40.5231 10.7687 40.5146 10.8135 40.5059 10.8597C40.4613 11.0961 40.4165 11.3325 40.3713 11.5688C40.332 11.7744 40.293 11.98 40.2541 12.1857C40.2386 12.2677 40.2229 12.3496 40.2072 12.4316C40.1847 12.5486 40.1626 12.6658 40.1405 12.783C40.1339 12.8169 40.1273 12.8508 40.1205 12.8857C40.0565 13.23 40.0304 13.5636 39.9949 13.9164C38.8663 13.9164 37.7376 13.9164 36.5748 13.9164C36.6013 13.6262 36.6344 13.3424 36.6773 13.0548C36.6832 13.0135 36.6891 12.9723 36.6952 12.9298C36.7011 12.8899 36.707 12.85 36.7131 12.8089C36.721 12.7552 36.721 12.7552 36.7291 12.7005C36.7493 12.5969 36.7493 12.5969 36.7834 12.5002C36.8301 12.3539 36.8479 12.2087 36.8675 12.0567C36.9149 11.7094 36.9744 11.3653 37.039 11.0207C37.07 10.8554 37.1005 10.69 37.131 10.5247C37.1371 10.4915 37.1432 10.4584 37.1495 10.4243C37.2173 10.0556 37.2807 9.68612 37.3429 9.31643C37.3878 9.05064 37.4376 8.78628 37.4916 8.52214C37.5322 8.31978 37.5683 8.11666 37.6043 7.91345C37.6119 7.87107 37.6194 7.8287 37.6272 7.78504C37.6487 7.66436 37.6701 7.54366 37.6915 7.42297C37.7014 7.36767 37.7113 7.31237 37.7211 7.25708C37.77 6.9826 37.8181 6.70797 37.866 6.43333C37.8781 6.36447 37.8901 6.29561 37.9022 6.22675C37.9222 6.11237 37.9421 5.99798 37.9619 5.88357C38.0154 5.57574 38.0732 5.26876 38.1322 4.96189C38.1436 4.90205 38.1436 4.90205 38.1553 4.84099C38.1625 4.80363 38.1697 4.76627 38.1771 4.72778C38.1836 4.69425 38.1901 4.66073 38.1967 4.6262C38.215 4.54086 38.215 4.54086 38.2499 4.43669C38.2595 4.32025 38.2655 4.20381 38.2716 4.08714C38.2843 3.95566 38.3073 3.83158 38.3345 3.70256C38.3573 3.59036 38.3768 3.47786 38.3959 3.36499C38.4031 3.32271 38.4103 3.28043 38.4177 3.23687C38.4323 3.15026 38.4468 3.06363 38.4613 2.97699C38.4956 2.7756 38.5325 2.57637 38.5807 2.37779C38.6419 2.12165 38.6826 1.8632 38.7233 1.60323C38.7455 1.46162 38.7683 1.3201 38.7912 1.17859C38.7956 1.15096 38.8001 1.12334 38.8047 1.09488C38.8414 0.86848 38.8809 0.642689 38.9239 0.417367C38.9295 0.387869 38.935 0.358372 38.9408 0.32798C38.9863 0.0944615 38.997 0.0922499 39.2369 0.0918484Z" fill="#242424"/>
<path d="M55.8491 0.0918484C55.8964 0.0920357 55.8964 0.0920357 55.9446 0.0922267C55.9777 0.0922217 56.0107 0.0922166 56.0447 0.0922114C56.1544 0.0922357 56.2642 0.0925063 56.3739 0.0927778C56.4497 0.0928425 56.5256 0.0928919 56.6014 0.0929267C56.8015 0.0930595 57.0015 0.0934009 57.2016 0.0937845C57.4056 0.0941391 57.6096 0.0942982 57.8135 0.0944733C58.2141 0.0948462 58.6146 0.0954392 59.0152 0.0961688C59.0099 0.145671 59.0045 0.195168 58.9991 0.244662C58.9961 0.272226 58.9931 0.299789 58.99 0.328189C58.9768 0.437494 58.957 0.544913 58.936 0.652976C58.9274 0.697822 58.9187 0.742667 58.9099 0.788872C58.9053 0.812164 58.9008 0.835456 58.8962 0.859454C58.8258 1.22211 58.7582 1.58494 58.6989 1.94957C58.6453 2.2788 58.5834 2.60601 58.5192 2.93333C58.4629 3.22105 58.413 3.50933 58.3657 3.79862C58.2961 4.2203 58.2237 4.64075 58.1304 5.05793C58.0998 5.20413 58.0782 5.35112 58.0567 5.4989C58.0291 5.67361 57.9931 5.84659 57.9572 6.01976C57.934 6.1477 57.9262 6.27458 57.9187 6.4043C57.9025 6.65127 57.8571 6.88461 57.8024 7.12564C57.7136 7.53308 57.6405 7.94063 57.5782 8.35285C57.5424 8.58537 57.5003 8.81515 57.4503 9.04497C57.3558 9.48016 57.2802 9.91872 57.2026 10.3572C57.1732 10.5225 57.1438 10.6878 57.1144 10.8531C57.1072 10.8937 57.0999 10.9344 57.0925 10.9762C57.0336 11.3061 56.9727 11.6355 56.9106 11.9647C56.851 12.2822 56.797 12.6004 56.7467 12.9194C56.741 12.9557 56.7352 12.9919 56.7293 13.0293C56.7176 13.103 56.706 13.1767 56.6944 13.2504C56.6886 13.2866 56.6829 13.3227 56.6769 13.36C56.6694 13.4078 56.6694 13.4078 56.6617 13.4566C56.6348 13.6104 56.603 13.7633 56.5722 13.9164C55.4551 13.9164 54.338 13.9164 53.187 13.9164C53.2262 13.4868 53.2262 13.4868 53.2598 13.3128C53.267 13.2747 53.2742 13.2367 53.2817 13.1975C53.2893 13.1583 53.2969 13.1191 53.3048 13.0787C53.3206 12.9955 53.3364 12.9124 53.3522 12.8292C53.3598 12.7893 53.3674 12.7494 53.3753 12.7082C53.4068 12.5417 53.4362 12.3749 53.4652 12.2079C53.4851 12.0944 53.5058 11.9811 53.5282 11.8681C53.5842 11.584 53.6258 11.3026 53.6537 11.0143C53.6682 10.8942 53.694 10.7792 53.7227 10.6617C53.7992 10.3419 53.8468 10.0176 53.898 9.69306C53.9816 9.16478 54.0745 8.63888 54.1737 8.11329C54.221 7.86179 54.2677 7.61015 54.3144 7.35854C54.3245 7.30387 54.3347 7.2492 54.3448 7.19454C54.3762 7.02544 54.4076 6.85635 54.439 6.68725C54.4443 6.65835 54.4497 6.62945 54.4552 6.59968C54.595 5.84635 54.7342 5.09299 54.8638 4.33785C54.9003 4.12559 54.9387 3.91487 54.9877 3.70508C55.0111 3.59321 55.0211 3.48038 55.0323 3.36675C55.0628 3.08258 55.1171 2.80575 55.1757 2.52618C55.2163 2.33181 55.2503 2.13644 55.2826 1.94055C55.3122 1.76658 55.3122 1.76658 55.3507 1.7282C55.3607 1.63705 55.3691 1.54609 55.3769 1.45475C55.4055 1.15365 55.4544 0.857871 55.51 0.560604C55.5177 0.518803 55.5255 0.477001 55.5334 0.433933C55.5986 0.0922675 55.5986 0.0922675 55.8491 0.0918484Z" fill="#242424"/>
<path fill-rule="evenodd" clip-rule="evenodd" d="M31.0028 0.0804316C31.6217 0.0773066 32.2351 0.0788947 32.8497 0.158256C32.892 0.163702 32.9342 0.169159 32.9778 0.17477C33.9776 0.319606 34.9808 0.784692 35.6063 1.59582C35.8781 1.99191 36.0577 2.40464 36.156 2.8741L36.1797 2.98261C36.4023 4.17201 35.9989 5.44661 35.334 6.43465C34.9273 7.01318 34.4108 7.49052 33.7963 7.84101C33.7077 7.89202 33.6246 7.94458 33.5407 8.00242C33.2123 8.20886 32.7885 8.31246 32.4217 8.42997C32.4409 8.56696 32.4696 8.68159 32.5264 8.80759C32.5989 8.97497 32.6645 9.1435 32.7272 9.31472C32.8749 9.71654 33.0368 10.111 33.2048 10.5047C33.4054 10.9753 33.6038 11.4467 33.7984 11.9198C33.8254 11.9853 33.8524 12.0508 33.8794 12.1163C34.0237 12.4658 34.1645 12.8161 34.2961 13.1706C34.3557 13.3302 34.4184 13.4884 34.4815 13.6466C34.5157 13.7428 34.5157 13.7428 34.5506 13.9164H30.7465L30.1532 12.3538L29.9787 11.9371C29.9543 11.8448 29.9309 11.7522 29.9089 11.6593C29.871 11.5452 29.8286 11.4327 29.7861 11.3202C29.7742 11.2885 29.7624 11.2567 29.7501 11.224C29.7251 11.1571 29.6999 11.0901 29.6747 11.0233C29.6366 10.9223 29.5988 10.8211 29.561 10.72C29.4495 10.4225 29.3365 10.1266 29.2116 9.83446C29.1588 9.70807 29.1135 9.57951 29.0692 9.44999C29.002 9.2564 28.9314 9.06567 28.8502 8.87731C28.8271 8.81193 28.8271 8.81193 28.8271 8.70776H27.9895L27.9546 9.08972C27.9442 9.15918 27.9328 9.22851 27.9197 9.29749C27.9095 9.35141 27.9095 9.35141 27.8992 9.40641C27.8919 9.44393 27.8847 9.48146 27.8773 9.52011C27.8697 9.56004 27.8622 9.59997 27.8544 9.64111C27.8305 9.76769 27.8064 9.89423 27.7822 10.0208C27.7505 10.1874 27.7189 10.354 27.6875 10.5206C27.68 10.5602 27.6725 10.5998 27.6648 10.6406C27.6204 10.8785 27.5801 11.1158 27.5499 11.356C27.5338 11.464 27.5095 11.5685 27.4834 11.6745C27.4329 11.8811 27.404 12.0869 27.3797 12.298C27.3634 12.4086 27.3386 12.5132 27.3102 12.6211C27.2708 12.7891 27.2478 12.9603 27.2217 13.1307C27.2101 13.2055 27.1985 13.2803 27.1868 13.3551C27.1817 13.3879 27.1767 13.4207 27.1715 13.4544C27.145 13.609 27.113 13.7626 27.0821 13.9164H23.6968C23.7361 13.5648 23.7361 13.5648 23.762 13.4194L23.7791 13.3225L23.7972 13.2219L23.816 13.1154C23.8344 13.012 23.8528 12.9086 23.8713 12.8052C23.8805 12.7535 23.8897 12.7018 23.8989 12.65C23.903 12.6266 23.9072 12.6032 23.9114 12.5791C23.9196 12.533 23.9277 12.487 23.9359 12.4409C23.955 12.3332 23.9741 12.2254 23.9935 12.1176C24.0125 12.0119 24.0313 11.9061 24.0502 11.8004L24.0682 11.7007C24.1009 11.5164 24.1263 11.3334 24.1422 11.1469C24.1538 11.0381 24.1763 10.9325 24.1993 10.8255C24.2163 10.7416 24.2315 10.6579 24.2457 10.5735C24.2501 10.5472 24.2546 10.5209 24.2592 10.4937C24.268 10.4412 24.2767 10.3886 24.2852 10.3359C24.3178 10.1439 24.3178 10.1439 24.3598 10.0714C24.4113 9.95537 24.4138 9.83622 24.4236 9.71123C24.4641 9.27466 24.5498 8.84717 24.6326 8.41694C24.6643 8.25004 24.6958 8.0831 24.7273 7.91616C24.7349 7.87584 24.7426 7.83551 24.7504 7.79398C24.8079 7.48992 24.8623 7.1855 24.9139 6.8804C24.9567 6.62846 25.0015 6.37751 25.0535 6.12732C25.1257 5.77996 25.1865 5.43065 25.2477 5.08125C25.2529 5.05116 25.2582 5.02107 25.2636 4.99007C25.3177 4.68123 25.3712 4.37231 25.4241 4.06327C25.432 4.01701 25.4399 3.97076 25.4479 3.9245C25.4623 3.84041 25.4766 3.75628 25.4907 3.67214C25.5174 3.5159 25.5444 3.36145 25.5852 3.20818C25.6232 3.05448 25.6296 2.90809 25.6358 2.75053C25.6488 2.64982 25.6682 2.57434 25.7016 2.47979C25.7566 2.32419 25.7843 2.17344 25.8061 2.01034C25.8147 1.94948 25.8234 1.88862 25.8321 1.82776C25.8366 1.79521 25.8412 1.76266 25.8459 1.72912C26.0755 0.0920544 26.0755 0.092043 26.3686 0.0910455C26.3928 0.0909179 26.417 0.090804 26.4419 0.0906725C26.5237 0.0902877 26.6055 0.0901602 26.6872 0.0900282C26.7457 0.0898108 26.8041 0.0895593 26.8625 0.0893161C27.0554 0.0885828 27.2483 0.0882369 27.4412 0.0878919C27.5078 0.0877513 27.5745 0.0875963 27.6411 0.087451C27.9553 0.086788 28.2696 0.0863155 28.5837 0.0860268C28.9441 0.0856901 29.3045 0.0847613 29.6648 0.0833479C29.9445 0.0822896 30.2241 0.0818002 30.5037 0.0816863C30.6701 0.0816057 30.8365 0.0813197 31.0028 0.0804316ZM30.9799 2.86674C30.926 2.86712 30.8721 2.86739 30.8181 2.86752C30.676 2.8677 30.5339 2.86808 30.3918 2.86884C30.2448 2.86963 30.0979 2.87014 29.9509 2.8705C29.6345 2.87126 29.318 2.87248 29.0016 2.8741C28.975 3.0258 28.9484 3.17751 28.9218 3.32921C28.9106 3.39308 28.8993 3.45696 28.8881 3.52084C28.8252 3.87981 28.7624 4.23878 28.6954 4.59705C28.6439 4.87206 28.599 5.14695 28.5609 5.42416C28.5465 5.53513 28.5326 5.646 28.513 5.7562C28.4794 5.86503 28.4445 5.96528 28.4401 6.07937C28.4404 6.10782 28.4408 6.13545 28.4411 6.16306C28.4417 6.21264 28.4423 6.26222 28.4432 6.31179C28.7452 6.31326 29.0472 6.31444 29.3493 6.31518C29.5034 6.31553 29.6576 6.31586 29.8118 6.31657C29.9626 6.31734 30.1134 6.318 30.2643 6.31827C30.3218 6.31834 30.3794 6.31844 30.4369 6.31857C30.5194 6.31912 30.602 6.31964 30.6845 6.31969C30.7105 6.31968 30.7357 6.31967 30.7609 6.31966C31.0393 6.32061 31.2728 6.24928 31.5277 6.14482C32.0344 5.9153 32.3555 5.55095 32.5645 5.03734C32.5753 5.01021 32.5857 4.98388 32.5962 4.95755C32.7509 4.58326 32.7433 4.17524 32.7009 3.77693C32.6489 3.54157 32.5123 3.34064 32.3182 3.1972L32.2472 3.15189C31.8413 2.89104 31.4524 2.86357 30.9799 2.86674Z" fill="#242424"/>
<path fill-rule="evenodd" clip-rule="evenodd" d="M118.251 0.0114648C119.576 0.0101559 120.89 0.419118 121.939 1.23631L122.026 1.30141C122.17 1.4105 122.304 1.52062 122.427 1.653L122.498 1.72746C123.104 2.38001 123.533 3.16511 123.789 4.01424L123.825 4.1275C124.057 5.01892 124.031 6.07907 123.905 6.98716C123.892 7.08143 123.88 7.17584 123.869 7.27031C123.86 7.33881 123.852 7.40731 123.843 7.4758C123.839 7.50697 123.835 7.53816 123.831 7.57028C123.808 7.74315 123.771 7.89933 123.712 8.06337C123.68 8.15742 123.657 8.25188 123.635 8.34838C123.581 8.5659 123.507 8.77032 123.422 8.97762L123.376 9.09139C122.998 10.0016 122.462 10.9422 121.729 11.6188L121.555 11.7925L121.503 11.849C120.831 12.559 119.832 13.1686 118.903 13.4592C118.857 13.476 118.812 13.493 118.767 13.5102C117.877 13.8459 116.922 13.9995 115.974 13.9937C115.866 13.9931 115.759 13.9937 115.652 13.9943C115.029 13.995 114.436 13.9293 113.842 13.737L113.716 13.6981C112.334 13.2609 111.265 12.3505 110.593 11.0703C110.442 10.7753 110.321 10.4731 110.213 10.1604L110.172 10.0496C109.972 9.45968 109.95 8.8437 109.955 8.22671C109.955 8.19171 109.956 8.15671 109.956 8.12064C109.965 6.47998 110.364 4.76448 111.364 3.42393C111.396 3.37986 111.428 3.33577 111.46 3.29168C111.687 2.97965 111.932 2.69338 112.202 2.41693C112.22 2.39809 112.238 2.37927 112.257 2.35986C112.961 1.62483 113.85 1.00996 114.808 0.65454C114.882 0.627044 114.955 0.598654 115.028 0.569086C115.492 0.38231 115.977 0.251173 116.466 0.151175C116.491 0.145936 116.517 0.140703 116.542 0.135305C117.026 0.0418886 117.513 0.00924414 118.005 0.0119057C118.087 0.0122798 118.169 0.0119053 118.251 0.0114648ZM119.985 2.59055C119.265 2.1052 118.304 2.0819 117.471 2.10156C116.155 2.13795 114.955 2.66138 114.036 3.60772L113.947 3.70172C113.615 4.0455 113.334 4.42615 113.099 4.84192L113.039 4.95179C112.892 5.22027 112.761 5.49103 112.656 5.77866L112.623 5.86981C112.563 6.0349 112.513 6.19124 112.495 6.36639C112.487 6.45402 112.477 6.5318 112.457 6.61801C112.173 7.65432 112.17 9.02402 112.658 10.0063L112.725 10.1257C113.049 10.8593 113.735 11.4328 114.474 11.7242C114.503 11.7349 114.53 11.7452 114.558 11.7556C115.009 11.9265 115.467 11.9806 115.946 11.9786C116.032 11.9777 116.118 11.9769 116.204 11.9771C116.316 11.9774 116.429 11.977 116.542 11.9753C117.785 11.9437 119.052 11.3084 119.908 10.4177L119.985 10.334C120.48 9.79418 120.846 9.1992 121.136 8.52838C121.672 7.25913 121.912 5.58231 121.38 4.27006L121.346 4.18786C121.107 3.52576 120.643 3.03629 120.066 2.64291L119.985 2.59055Z" fill="#242424"/>
<path d="M71.9466 1.30046C71.9749 1.32513 72.0033 1.34979 72.0325 1.3752C72.0836 1.41918 72.0836 1.41918 72.1358 1.46405C72.7567 2.00751 73.3048 2.76003 73.4778 3.57734C73.4973 3.66263 73.5239 3.73816 73.5572 3.81892C73.603 3.94479 73.603 3.94479 73.603 4.15314C72.7047 4.15314 71.8063 4.15314 70.8808 4.15314C70.7412 3.84062 70.7412 3.84062 70.6823 3.69087C70.4055 3.07176 69.8205 2.63694 69.2056 2.3822C68.0088 1.92787 66.5276 2.04506 65.3645 2.54497C63.9795 3.16721 62.8994 4.36898 62.3624 5.7765C62.3146 5.90605 62.2687 6.03593 62.2257 6.16714C62.2135 6.20398 62.2013 6.24081 62.1888 6.27877C62.1398 6.47462 62.1127 6.67283 62.0839 6.87247C62.0779 6.91318 62.0718 6.95389 62.0656 6.99584C61.9471 7.8047 61.7762 9.0207 62.2606 9.74373C62.2755 9.78968 62.2892 9.83604 62.302 9.88262C62.5426 10.6136 63.2509 11.192 63.9051 11.5374C64.3544 11.7562 64.8405 11.8999 65.3412 11.9061C65.3886 11.9068 65.3886 11.9068 65.4369 11.9074C66.6579 11.9218 66.6579 11.9218 67.8096 11.5494C67.8547 11.5279 67.8999 11.5066 67.945 11.4852C68.5396 11.201 69.2735 10.7772 69.6175 10.1924C69.7218 10.0172 69.7991 9.90175 70.0018 9.84606C70.1663 9.82908 70.33 9.83568 70.4949 9.84193C70.5554 9.84271 70.616 9.8433 70.6766 9.84372C70.8352 9.8453 70.9936 9.84938 71.1522 9.85401C71.3143 9.85829 71.4764 9.86018 71.6386 9.86228C71.9561 9.86673 72.2735 9.87383 72.5909 9.88262C72.3874 10.2967 72.1122 10.6705 71.8231 11.0285C71.7993 11.0593 71.7755 11.0901 71.751 11.1218C71.3814 11.5908 70.9439 11.996 70.462 12.348C70.4226 12.3775 70.3832 12.4069 70.3438 12.4363C70.0564 12.6482 69.7546 12.8307 69.4438 13.0064C69.3906 13.0366 69.3378 13.0672 69.285 13.098C69.1283 13.188 68.9696 13.2573 68.8006 13.3214C68.7241 13.3522 68.6541 13.3873 68.5818 13.4267C68.4375 13.5004 68.2899 13.5349 68.1325 13.5711C68.0162 13.5988 67.9024 13.6315 67.7878 13.6654C66.3491 14.0748 64.7912 14.1475 63.3635 13.6635C63.2797 13.6352 63.1957 13.6083 63.1114 13.5817C61.8292 13.1681 60.7814 12.1892 60.1712 11.0046C59.403 9.44188 59.4207 7.52092 59.9581 5.88456C60.0972 5.48237 60.2571 5.09409 60.4565 4.71781C60.5037 4.62729 60.5449 4.53834 60.5832 4.44395C60.8566 3.82109 61.3585 3.26789 61.8069 2.76417C61.8227 2.7463 61.8384 2.72843 61.8547 2.71001C62.0368 2.50376 62.2218 2.3131 62.4351 2.13913C62.4753 2.10563 62.5155 2.07213 62.5557 2.03862C63.0768 1.60767 63.6145 1.23682 64.215 0.923788C64.2681 0.895857 64.2681 0.895857 64.3223 0.867361C64.4691 0.792207 64.6161 0.726946 64.7716 0.671767C64.8523 0.642705 64.9316 0.610862 65.0111 0.578717C67.1997 -0.294639 70.0593 -0.274817 71.9466 1.30046Z" fill="#242424"/>
<path d="M103.128 0.194577C103.888 0.194577 104.648 0.194577 105.431 0.194577C105.353 0.701212 105.353 0.701212 105.315 0.904117C105.307 0.949029 105.298 0.993942 105.29 1.04022C105.286 1.06333 105.281 1.08644 105.277 1.11025C105.2 1.52056 105.128 1.93127 105.061 2.34314C105.011 2.64256 104.958 2.93935 104.891 3.23542C104.822 3.55217 104.775 3.87299 104.725 4.19321C104.692 4.40197 104.658 4.60884 104.609 4.8146C104.584 4.92471 104.565 5.03583 104.546 5.14711C104.542 5.17162 104.537 5.19613 104.533 5.22138C104.518 5.30512 104.504 5.38889 104.489 5.47265C104.471 5.57583 104.453 5.679 104.435 5.78217C104.424 5.85035 104.412 5.91855 104.4 5.98675C104.363 6.19809 104.323 6.40841 104.28 6.61855C104.231 6.85983 104.196 7.1015 104.166 7.34568C104.133 7.6161 104.099 7.88627 104.038 8.15204C104.003 8.30659 103.973 8.4616 103.945 8.61749C103.94 8.64486 103.935 8.67223 103.93 8.70042C103.914 8.78847 103.899 8.87653 103.883 8.9646C103.872 9.02579 103.861 9.08698 103.85 9.14817C103.791 9.47513 103.734 9.80226 103.68 10.13C103.619 10.5004 103.549 10.8684 103.477 11.2369C103.419 11.5348 103.362 11.8327 103.303 12.1397C104.834 12.1397 106.366 12.1397 107.944 12.1397C107.861 12.7218 107.743 13.2987 107.63 13.8759C105.35 13.8759 103.069 13.8759 100.72 13.8759C100.799 13.2886 100.799 13.2886 100.854 13.0337C100.911 12.7587 100.961 12.483 101.008 12.206C101.015 12.1668 101.021 12.1276 101.028 12.0872C101.055 11.9256 101.082 11.764 101.109 11.6024C101.242 10.8076 101.242 10.8076 101.328 10.4587C101.36 10.3177 101.375 10.1761 101.387 10.0324C101.414 9.75185 101.414 9.75185 101.453 9.67427C101.462 9.62515 101.469 9.57576 101.475 9.52629C101.48 9.49632 101.484 9.46635 101.488 9.43548C101.492 9.40327 101.496 9.37107 101.501 9.33788C101.536 9.08305 101.578 8.83187 101.631 8.58006C101.686 8.31446 101.728 8.04652 101.774 7.7793C101.781 7.73765 101.788 7.696 101.795 7.65308C101.802 7.61603 101.808 7.57898 101.814 7.5408C101.837 7.41423 101.863 7.28831 101.888 7.16227C101.919 7.00618 101.948 6.84967 101.977 6.69315C101.984 6.65785 101.99 6.62255 101.997 6.58619C102.011 6.51166 102.025 6.43713 102.038 6.36259C102.059 6.25158 102.079 6.14059 102.1 6.02959C102.175 5.62661 102.245 5.22326 102.311 4.81883C102.346 4.60779 102.39 4.40084 102.441 4.19303C102.493 3.95584 102.522 3.71428 102.554 3.47384C102.569 3.36889 102.583 3.26395 102.598 3.15902C102.602 3.13387 102.605 3.10872 102.609 3.08281C102.648 2.80029 102.689 2.51787 102.759 2.24113C102.811 2.02411 102.847 1.80616 102.881 1.58571C102.951 1.12021 103.043 0.657515 103.128 0.194577Z" fill="#242424"/>
<path fill-rule="evenodd" clip-rule="evenodd" d="M95.75 0.216888C96.7913 0.209308 97.871 0.505314 98.6609 1.20158L98.732 1.26248C99.2615 1.74836 99.6016 2.49871 99.6464 3.20839C99.6836 4.64258 99.143 5.84219 98.1892 6.88847C97.5702 7.53131 96.6781 8.00755 95.7991 8.18113H95.6944L95.7511 8.30267C95.8173 8.45018 95.8743 8.60028 95.93 8.75191C96.0131 8.97635 96.1059 9.1947 96.2048 9.41265C96.3611 9.75768 96.5093 10.1062 96.6586 10.4542C96.7225 10.6029 96.7869 10.7512 96.8516 10.8995C97.0211 11.2892 97.186 11.6788 97.3344 12.0769C97.4538 12.3934 97.5933 12.7008 97.7314 13.0096C97.8131 13.1925 97.8925 13.3762 97.9694 13.5612C97.9796 13.5854 97.9898 13.6097 98.0002 13.6346C98.0676 13.7979 98.0676 13.7979 98.0676 13.8759H95.3454L95.136 13.2856C95.0897 13.1649 95.043 13.0449 94.9942 12.9253C94.9824 12.896 94.9705 12.8667 94.9583 12.8365C94.8967 12.6849 94.8326 12.5352 94.763 12.3871C94.681 12.2122 94.6169 12.0327 94.5528 11.8506C94.3727 11.3395 94.1673 10.838 93.9643 10.3355C93.8986 10.1729 93.8332 10.0102 93.768 9.84749C93.7407 9.77946 93.7134 9.71144 93.6861 9.64341C93.6683 9.59908 93.6505 9.55472 93.6328 9.51038C93.5498 9.30345 93.4666 9.09664 93.3803 8.89108C93.3686 8.86332 93.3569 8.83558 93.3449 8.80698C93.3241 8.7578 93.3032 8.70867 93.2821 8.65964C93.2411 8.5628 93.2165 8.49594 93.2165 8.38948H91.4716V8.63255C91.4644 8.68617 91.4557 8.73962 91.4447 8.7926C91.4389 8.82132 91.4332 8.85006 91.4273 8.87965C91.421 8.90983 91.4147 8.94001 91.4083 8.97111C91.3661 9.18185 91.3254 9.39228 91.2935 9.60482C91.2889 9.6349 91.2843 9.66498 91.2796 9.69597C91.276 9.71996 91.2723 9.74397 91.2686 9.76868C91.2405 9.94902 91.2058 10.1266 91.1662 10.3047C91.0673 10.7614 90.9891 11.222 90.9083 11.6821C90.8752 11.8702 90.8419 12.0583 90.8086 12.2464C90.7966 12.3147 90.7845 12.383 90.7724 12.4513C90.7201 12.7463 90.6656 13.0408 90.6071 13.3347C90.5819 13.4629 90.5601 13.59 90.5452 13.7198C90.5293 13.8412 90.5293 13.8412 90.4944 13.8759C90.4248 13.8792 90.3551 13.88 90.2854 13.8799C90.2407 13.8799 90.1959 13.8798 90.1499 13.8798C90.1007 13.8797 90.0515 13.8795 90.0024 13.8793C89.9523 13.8792 89.9023 13.8792 89.8523 13.8792C89.7204 13.879 89.5885 13.8787 89.4566 13.8783C89.3221 13.8779 89.1876 13.8778 89.0531 13.8776C88.789 13.8772 88.5249 13.8766 88.2608 13.8759C88.2984 13.5279 88.3444 13.1859 88.4157 12.8429C88.495 12.448 88.5574 12.0527 88.6098 11.6535H88.6796L88.6759 11.5795C88.6705 11.384 88.6811 11.2066 88.7264 11.0159C88.7673 10.8336 88.8026 10.6519 88.8317 10.4674C88.8356 10.4427 88.8395 10.4181 88.8435 10.3927C88.8516 10.3413 88.8597 10.2898 88.8677 10.2383C88.9521 9.69935 89.0479 9.16317 89.1525 8.62773C89.1623 8.57784 89.172 8.52794 89.1817 8.47805C89.1864 8.45402 89.1911 8.42998 89.1959 8.40521C89.2376 8.18879 89.2738 7.97154 89.3083 7.75386C89.339 7.56345 89.339 7.56343 89.3776 7.48665C89.3881 7.42853 89.3971 7.37014 89.4054 7.31167C89.4107 7.27549 89.416 7.23931 89.4214 7.20204C89.4271 7.16275 89.4328 7.12346 89.4387 7.08298C89.4834 6.78326 89.5347 6.48693 89.6001 6.191C89.6794 5.82898 89.7417 5.46509 89.8007 5.09936C89.8052 5.07147 89.8098 5.04357 89.8144 5.01482C89.8559 4.75718 89.8967 4.49945 89.9339 4.24116C89.9385 4.20966 89.9431 4.17816 89.9478 4.1457C89.9555 4.0916 89.9629 4.03745 89.97 3.98327C89.9927 3.82098 90.0351 3.67096 90.0841 3.51467C90.1289 3.36067 90.1567 3.20404 90.1846 3.0463C90.1937 2.99581 90.1938 2.9958 90.203 2.94429C90.2377 2.74702 90.2631 2.55248 90.2749 2.35246C90.2865 2.22651 90.3075 2.10323 90.3304 1.97894C90.335 1.95343 90.3396 1.9279 90.3443 1.90162C90.3594 1.81873 90.3745 1.73585 90.3897 1.65299C90.4 1.59634 90.4103 1.53968 90.4206 1.48303C90.4469 1.3388 90.4734 1.19461 90.5 1.05044C90.511 0.991193 90.5219 0.931936 90.5327 0.87268C90.5487 0.785624 90.5647 0.69857 90.5808 0.611536C90.5881 0.571841 90.5881 0.571834 90.5955 0.531338C90.6147 0.427755 90.6353 0.329384 90.6689 0.229299C91.3867 0.226858 92.1045 0.22503 92.8223 0.223907C93.1556 0.223372 93.489 0.222663 93.8223 0.221466C94.1131 0.220422 94.4039 0.21973 94.6947 0.219499C94.8485 0.219364 95.0022 0.219077 95.1559 0.218312C95.3012 0.217596 95.4463 0.217377 95.5915 0.217532C95.6444 0.217504 95.6972 0.217293 95.75 0.216888ZM94.9565 1.95449C94.893 1.95505 94.8294 1.95545 94.7659 1.95564C94.5982 1.95591 94.4305 1.9565 94.2628 1.95764C94.0895 1.95883 93.9161 1.95957 93.7428 1.96012C93.3696 1.96124 92.9964 1.96308 92.6232 1.96551C92.5807 2.15084 92.5411 2.33646 92.5057 2.52326C92.5001 2.55301 92.4947 2.58188 92.4892 2.61075C92.4772 2.67461 92.4652 2.73848 92.4532 2.80235C92.4347 2.90091 92.4163 2.99948 92.3976 3.09801C92.3315 3.4469 92.2686 3.79563 92.2174 4.14703C92.1908 4.33672 92.1589 4.52284 92.1157 4.70956C92.0929 4.80747 92.093 4.80748 92.0487 5.03069C92.0423 5.0629 92.0361 5.09415 92.03 5.12541C92.0075 5.23757 91.9852 5.34977 91.9635 5.46207L91.9405 5.58116C91.8938 5.81442 91.8538 6.04465 91.8396 6.28219C91.8376 6.31956 91.8376 6.31958 91.8355 6.35621C91.8304 6.44365 91.8254 6.53109 91.8206 6.61855C92.1483 6.62076 92.476 6.62253 92.8037 6.62363C92.9718 6.62415 93.1398 6.62462 93.3078 6.6257C93.4714 6.62686 93.635 6.62789 93.7987 6.62828C93.8618 6.62838 93.925 6.62852 93.9881 6.62872C94.4629 6.63314 94.9123 6.5962 95.3803 6.51437V6.44492H95.485C95.8653 6.33071 96.2277 6.12251 96.4967 5.83115L96.5669 5.75044C97.0634 5.21115 97.2638 4.57459 97.2792 3.85255L97.2802 3.73861C97.2847 3.29667 97.227 2.89058 96.9159 2.55582C96.3501 2.04652 95.6894 1.94821 94.9565 1.95449Z" fill="#242424"/>
<path fill-rule="evenodd" clip-rule="evenodd" d="M83.6541 0.194577C83.9747 1.84674 83.9747 1.84675 84.0843 2.49739C84.1278 2.75385 84.1771 3.00861 84.2299 3.26333C84.3079 3.63946 84.3707 4.01736 84.4293 4.39688C84.4692 4.6527 84.5181 4.90459 84.5741 5.15739C84.6005 5.28406 84.6154 5.40677 84.6269 5.53559C84.6514 5.77747 84.6955 6.01317 84.7451 6.2511C84.8398 6.71407 84.927 7.17825 85.013 7.64291C85.0284 7.72613 85.0439 7.80934 85.0593 7.89256C85.1393 8.32353 85.2184 8.75466 85.2965 9.18597C85.3934 9.72036 85.4964 10.2536 85.5998 10.7867C85.6643 11.1193 85.7279 11.4521 85.7891 11.7853C85.7975 11.8309 85.7975 11.8309 85.8061 11.8775C85.864 12.1953 85.911 12.5146 85.9574 12.8342C85.9755 12.9572 85.9937 13.0802 86.012 13.2031C86.016 13.2307 86.02 13.2582 86.0241 13.2866C86.0453 13.4294 86.0699 13.5709 86.0987 13.7124C86.1049 13.7431 86.1111 13.7739 86.1176 13.8056C86.1223 13.8288 86.127 13.852 86.1319 13.8759C85.8231 13.8767 85.5143 13.8773 85.2054 13.8777C85.0621 13.8779 84.9187 13.8781 84.7753 13.8785C84.637 13.8789 84.4988 13.8791 84.3605 13.8792C84.3077 13.8793 84.2548 13.8794 84.2019 13.8796C84.1282 13.8798 84.0543 13.8798 83.9806 13.8798C83.9385 13.8799 83.8964 13.88 83.8531 13.8801C83.7588 13.8759 83.7588 13.8759 83.7239 13.8412C83.7049 13.7482 83.6879 13.6555 83.6719 13.562C83.6669 13.5334 83.6619 13.5047 83.6568 13.4752C83.6405 13.3816 83.6244 13.288 83.6082 13.1944C83.5971 13.1305 83.586 13.0666 83.5749 13.0027C83.5478 12.8469 83.5208 12.691 83.4939 12.5352C83.468 12.3854 83.442 12.2357 83.4159 12.0859C83.405 12.0232 83.3941 11.9604 83.3833 11.8976C83.3541 11.7288 83.321 11.5615 83.2833 11.3943C83.2701 11.3063 83.2702 11.3063 83.2702 11.0632L77.5117 11.098L77.1278 11.8619C77.0596 11.99 76.9914 12.1173 76.9206 12.2439C76.9037 12.2744 76.8869 12.305 76.8695 12.3365C76.7967 12.4683 76.7235 12.5998 76.6503 12.7314C76.592 12.8365 76.5338 12.9417 76.4756 13.0469C76.4576 13.0792 76.4395 13.1115 76.4209 13.1448C76.4043 13.1749 76.3877 13.205 76.3705 13.2359C76.3558 13.2624 76.3411 13.2888 76.326 13.316C76.2916 13.3869 76.2713 13.4518 76.2553 13.5287H76.1855L76.0808 13.8759H73.7077C73.7387 13.7215 73.7717 13.6355 73.8458 13.5007C73.8672 13.4614 73.8886 13.4222 73.9106 13.3817C73.9338 13.3396 73.9571 13.2974 73.9803 13.2552C74.028 13.168 74.0754 13.0807 74.1229 12.9934C74.1349 12.9714 74.1469 12.9495 74.1593 12.9268C74.2779 12.7091 74.3934 12.4897 74.5082 12.2699C74.5261 12.2356 74.544 12.2014 74.5625 12.166C74.6033 12.0878 74.6441 12.0096 74.6849 11.9313H74.7547L74.7665 11.8561C74.7911 11.7511 74.8291 11.6687 74.879 11.5733L74.9271 11.4803L74.9641 11.4105H75.0339C75.0373 11.3864 75.0407 11.3623 75.0442 11.3375C75.0735 11.2173 75.1228 11.124 75.182 11.0152C75.1935 10.9941 75.2049 10.973 75.2166 10.9512C75.2537 10.8828 75.291 10.8146 75.3283 10.7464C75.3538 10.6994 75.3792 10.6525 75.4047 10.6055C75.4552 10.5121 75.5058 10.4188 75.5565 10.3255C75.6504 10.1525 75.7426 9.97861 75.8344 9.80449C75.8485 9.77767 75.8627 9.75087 75.8773 9.72324C75.945 9.59503 75.945 9.59502 76.011 9.46593H76.0808C76.0866 9.44687 76.0924 9.42781 76.0983 9.40818C76.1608 9.21066 76.2412 9.03341 76.3404 8.85175C76.3556 8.82356 76.3707 8.79537 76.3863 8.76633C76.5198 8.51858 76.6559 8.2722 76.7917 8.02572C76.9907 7.66372 77.1817 7.29756 77.3721 6.93107H77.4419L77.477 6.80777C77.5619 6.55494 77.6965 6.32479 77.8236 6.09117C77.8504 6.04163 77.8771 5.99208 77.9038 5.94251C78.0756 5.62382 78.2489 5.30584 78.4246 4.98919C78.5326 4.79395 78.6344 4.59619 78.7332 4.3962H78.803L78.8135 4.30424C78.8398 4.17891 78.8813 4.10071 78.9492 3.99253C79.0302 3.85931 79.1061 3.72706 79.1738 3.58669C79.2776 3.37537 79.3945 3.17231 79.5119 2.96817C79.7072 2.62816 79.8882 2.28333 80.0594 1.93079H80.1292L80.1401 1.83312C80.1664 1.71199 80.1859 1.70077 80.2688 1.61827C80.3032 1.54775 80.3032 1.54775 80.3277 1.47286L80.3543 1.39758L80.3735 1.34047H80.4433L80.4561 1.26306C80.4776 1.16944 80.5064 1.1008 80.5518 1.01656L80.5968 0.93233L80.644 0.845655L80.6895 0.760608C80.7915 0.570722 80.8966 0.38283 81.0017 0.194577H83.6541ZM81.8044 2.97251C81.7695 3.04196 81.7695 3.04196 81.7324 3.15047L81.6997 3.2503H81.6299C81.3987 3.71026 81.1573 4.16561 80.9114 4.61794C80.7679 4.88157 80.6236 5.14481 80.4864 5.41178C80.474 5.43616 80.4619 5.45984 80.4498 5.4835C80.3932 5.59313 80.3433 5.69636 80.3142 5.81704L80.3037 5.88934H80.2339C80.0735 6.21184 79.9103 6.5325 79.7404 6.85015C79.703 6.91996 79.6656 6.98975 79.6283 7.05962C79.5184 7.26559 79.4083 7.47147 79.2951 7.67567L79.2335 7.7856C79.1962 7.85237 79.1589 7.91911 79.1215 7.98581C79.0054 8.18776 78.9169 8.37817 78.8545 8.60308C78.8489 8.62491 78.8434 8.64609 78.8379 8.66727H78.7681C78.7396 8.72199 78.7112 8.77673 78.683 8.8316L78.6481 8.89949C78.5731 9.04306 78.5214 9.16564 78.4889 9.32703H82.9561V9.08396C82.9198 8.98309 82.9198 8.98308 82.9034 8.88874C82.897 8.8513 82.8907 8.81497 82.8845 8.77863C82.8737 8.71621 82.8737 8.71621 82.8632 8.65503C82.8517 8.58781 82.8402 8.52058 82.8287 8.45337C82.7947 8.25622 82.761 8.05902 82.7282 7.86167C82.6601 7.44697 82.5879 7.03352 82.5089 6.62072C82.4183 6.14795 82.3354 5.67407 82.2563 5.19927C82.2034 4.88139 82.1469 4.56523 82.0785 4.25025C82.034 4.05093 81.9998 3.85481 81.9767 3.6518C81.9505 3.41885 81.9036 3.19785 81.8393 2.97251H81.8044Z" fill="#242424"/>
</svg>
