<svg width="583" height="258" viewBox="0 0 583 258" fill="none" xmlns="http://www.w3.org/2000/svg">
<path d="M4.0518 82.0359C5.13228 75.7931 7.44331 70.2407 10.9849 65.3785C14.5865 60.4563 19.0285 56.6446 24.3108 53.9434C29.5931 51.1822 35.2957 49.8016 41.4184 49.8016C48.9217 49.8016 54.9844 51.7825 59.6065 55.7442C64.2886 59.706 66.9297 65.1084 67.53 71.9514H50.6025C49.8221 69.3703 48.3815 67.4194 46.2806 66.0988C44.2397 64.7182 41.7185 64.0279 38.7172 64.0279C33.9751 64.0279 29.8633 65.6786 26.3817 68.9801C22.9002 72.2215 20.6792 76.5735 19.7188 82.0359C19.4186 83.7166 19.2686 85.1873 19.2686 86.4479C19.2686 90.6497 20.4391 93.9812 22.7801 96.4423C25.1212 98.9034 28.3326 100.134 32.4144 100.134C35.3557 100.134 38.0869 99.4436 40.608 98.063C43.1892 96.6824 45.3501 94.7015 47.0909 92.1204H64.0184C61.0171 98.9634 56.4851 104.366 50.4224 108.328C44.3597 112.229 37.5767 114.18 30.0734 114.18C24.671 114.18 19.9589 113.13 15.9371 111.029C11.9153 108.928 8.82392 105.957 6.66296 102.115C4.502 98.2731 3.42152 93.8011 3.42152 88.6989C3.42152 86.4178 3.63161 84.1969 4.0518 82.0359ZM134.945 50.5219L105.682 92.8407L101.9 113.73H86.5031L90.2848 92.8407L75.7884 50.5219H93.2561L100.819 76.9036L117.657 50.5219H134.945ZM187.249 66.9092C186.588 70.6308 185.058 73.7222 182.657 76.1833C180.256 78.6444 177.374 80.3552 174.013 81.3156C177.014 81.9759 179.385 83.4465 181.126 85.7275C182.867 88.0086 183.737 90.6797 183.737 93.7411C183.737 94.7015 183.647 95.6319 183.467 96.5323C182.567 101.815 179.986 106.017 175.724 109.138C171.462 112.199 166.029 113.73 159.426 113.73H129.983L141.148 50.5219H169.601C175.303 50.5219 179.715 51.6924 182.837 54.0335C185.958 56.3745 187.519 59.6159 187.519 63.7578C187.519 64.7782 187.429 65.8287 187.249 66.9092ZM162.038 76.1833C164.619 76.1833 166.69 75.613 168.25 74.4725C169.811 73.332 170.771 71.6813 171.132 69.5203C171.192 69.1602 171.222 68.68 171.222 68.0797C171.222 66.3389 170.651 65.0183 169.511 64.1179C168.37 63.1575 166.69 62.6773 164.469 62.6773H154.384L152.043 76.1833H162.038ZM168.16 94.4614C168.28 93.7411 168.34 93.2009 168.34 92.8407C168.34 91.0999 167.71 89.7493 166.45 88.7889C165.189 87.7684 163.448 87.2582 161.227 87.2582H150.062L147.541 101.485H158.886C161.527 101.485 163.628 100.884 165.189 99.6837C166.75 98.4832 167.74 96.7424 168.16 94.4614ZM213.737 62.6773L211.486 75.8231H232.105L230.034 87.4383H209.415L206.894 101.575H230.214L228.053 113.73H189.336L200.501 50.5219H239.218L237.057 62.6773H213.737ZM275.055 50.5219C281.598 50.5219 286.58 52.0226 290.002 55.0239C293.423 57.9652 295.134 61.8069 295.134 66.549C295.134 67.9296 295.014 69.2202 294.774 70.4207C294.054 74.6226 292.223 78.3743 289.282 81.6757C286.34 84.9772 282.409 87.3182 277.486 88.6989L287.661 113.73H270.283L261.369 89.8694H257.678L253.446 113.73H238.049L249.214 50.5219H275.055ZM279.017 71.051C279.137 70.0906 279.197 69.4603 279.197 69.1602C279.197 67.2393 278.567 65.7687 277.306 64.7482C276.106 63.6677 274.305 63.1275 271.904 63.1275H262.36L259.568 78.9745H269.113C271.934 78.9745 274.155 78.2842 275.776 76.9036C277.456 75.523 278.537 73.5721 279.017 71.051Z" fill="#FFE04B"/>
<path d="M23.7706 158.562L31.0638 206.283L55.1045 158.562H71.4918L37.9068 221.77H18.6383L7.38328 158.562H23.7706ZM91.1627 170.717L88.9117 183.863H109.531L107.46 195.478H86.8408L84.3196 209.615H107.64L105.479 221.77H66.7618L77.9268 158.562H116.644L114.483 170.717H91.1627ZM152.481 158.562C159.024 158.562 164.006 160.063 167.428 163.064C170.849 166.005 172.56 169.847 172.56 174.589C172.56 175.97 172.44 177.26 172.2 178.461C171.48 182.663 169.649 186.414 166.708 189.716C163.766 193.017 159.835 195.358 154.912 196.739L165.087 221.77H147.709L138.795 197.909H135.104L130.872 221.77H115.475L126.64 158.562H152.481ZM156.443 179.091C156.563 178.131 156.623 177.5 156.623 177.2C156.623 175.279 155.993 173.809 154.732 172.788C153.532 171.708 151.731 171.168 149.33 171.168H139.786L136.994 187.015H146.539C149.36 187.015 151.581 186.324 153.202 184.944C154.882 183.563 155.963 181.612 156.443 179.091ZM200.774 158.562L189.609 221.77H174.212L185.377 158.562H200.774ZM253.08 158.562L250.919 170.717H225.168L222.826 184.313H242.095L239.934 196.019H220.666L216.164 221.77H200.767L211.932 158.562H253.08ZM276.569 158.562L265.404 221.77H250.007L261.172 158.562H276.569ZM279.623 190.076C280.704 183.833 283.015 178.281 286.557 173.419C290.158 168.496 294.6 164.685 299.882 161.983C305.165 159.222 310.867 157.842 316.99 157.842C324.493 157.842 330.556 159.822 335.178 163.784C339.86 167.746 342.501 173.148 343.102 179.991H326.174C325.394 177.41 323.953 175.459 321.852 174.139C319.811 172.758 317.29 172.068 314.289 172.068C309.547 172.068 305.435 173.719 301.953 177.02C298.472 180.262 296.251 184.614 295.29 190.076C294.99 191.757 294.84 193.227 294.84 194.488C294.84 198.69 296.011 202.021 298.352 204.482C300.693 206.943 303.904 208.174 307.986 208.174C310.927 208.174 313.659 207.484 316.18 206.103C318.761 204.722 320.922 202.742 322.663 200.16H339.59C336.589 207.003 332.057 212.406 325.994 216.368C319.931 220.269 313.148 222.22 305.645 222.22C300.243 222.22 295.531 221.17 291.509 219.069C287.487 216.968 284.396 213.997 282.235 210.155C280.074 206.313 278.993 201.841 278.993 196.739C278.993 194.458 279.203 192.237 279.623 190.076ZM386.476 210.605H362.885L357.123 221.77H341.005L375.041 158.562H392.868L404.574 221.77H388.276L386.476 210.605ZM384.675 198.9L380.983 175.489L368.918 198.9H384.675ZM448.541 158.562C455.084 158.562 460.066 160.063 463.487 163.064C466.909 166.005 468.62 169.847 468.62 174.589C468.62 175.97 468.499 177.26 468.259 178.461C467.539 182.663 465.708 186.414 462.767 189.716C459.826 193.017 455.894 195.358 450.972 196.739L461.146 221.77H443.768L434.855 197.909H431.163L426.931 221.77H411.534L422.699 158.562H448.541ZM452.502 179.091C452.622 178.131 452.682 177.5 452.682 177.2C452.682 175.279 452.052 173.809 450.792 172.788C449.591 171.708 447.79 171.168 445.389 171.168H435.845L433.054 187.015H442.598C445.419 187.015 447.64 186.324 449.261 184.944C450.942 183.563 452.022 181.612 452.502 179.091ZM487.739 210.065H507.908L505.837 221.77H470.271L481.436 158.562H496.833L487.739 210.065ZM543.254 222.4C537.912 222.4 533.2 221.29 529.118 219.069C525.096 216.848 521.975 213.726 519.754 209.705C517.533 205.683 516.422 201.061 516.422 195.838C516.422 188.455 518.013 181.882 521.194 176.12C524.376 170.297 528.788 165.765 534.43 162.524C540.133 159.282 546.586 157.662 553.789 157.662C559.191 157.662 563.933 158.772 568.015 160.993C572.097 163.154 575.248 166.245 577.469 170.267C579.69 174.229 580.801 178.791 580.801 183.953C580.801 191.336 579.21 197.969 576.029 203.852C572.847 209.675 568.405 214.237 562.703 217.538C557 220.78 550.517 222.4 543.254 222.4ZM545.595 208.174C549.557 208.174 553.039 207.154 556.04 205.113C559.041 203.072 561.352 200.34 562.973 196.919C564.654 193.437 565.494 189.686 565.494 185.664C565.494 181.342 564.294 177.951 561.893 175.489C559.491 173.028 556.13 171.798 551.808 171.798C547.846 171.798 544.335 172.818 541.273 174.859C538.272 176.9 535.931 179.631 534.25 183.053C532.63 186.414 531.819 190.136 531.819 194.218C531.819 198.54 533.02 201.961 535.421 204.482C537.822 206.943 541.213 208.174 545.595 208.174Z" fill="#FFE04B"/>
<path d="M370.79 5C371.84 11.54 375.28 17.81 378.69 23.41C389.92 41.81 407.72 50.76 400.74 75.97C388.07 121.68 318.02 110.2 322.02 61.18C323 49.22 329.94 41.08 336.11 31.6C337.44 30.67 342.32 39.2 346.53 38.56C351.2 37.85 349.74 32.92 350.26 29.77C352.23 17.88 358.52 10.32 369.16 5.01H370.79V5Z" stroke="#FFE04B" stroke-width="10" stroke-miterlimit="10"/>
</svg>
