<svg width="16" height="16" viewBox="0 0 16 16" fill="none" xmlns="http://www.w3.org/2000/svg">
<path d="M8.00135 5.16634C7.47092 5.16634 6.96221 5.37705 6.58714 5.75213C6.21206 6.1272 6.00135 6.63591 6.00135 7.16634C6.00135 7.69677 6.21206 8.20548 6.58714 8.58055C6.96221 8.95563 7.47092 9.16634 8.00135 9.16634C8.53178 9.16634 9.04049 8.95563 9.41556 8.58055C9.79064 8.20548 10.0013 7.69677 10.0013 7.16634C10.0013 6.63591 9.79064 6.1272 9.41556 5.75213C9.04049 5.37705 8.53178 5.16634 8.00135 5.16634ZM6.83468 7.16634C6.83468 6.85692 6.9576 6.56018 7.17639 6.34138C7.39518 6.12259 7.69193 5.99967 8.00135 5.99967C8.31077 5.99967 8.60752 6.12259 8.82631 6.34138C9.0451 6.56018 9.16802 6.85692 9.16802 7.16634C9.16802 7.47576 9.0451 7.77251 8.82631 7.9913C8.60752 8.21009 8.31077 8.33301 8.00135 8.33301C7.69193 8.33301 7.39518 8.21009 7.17639 7.9913C6.9576 7.77251 6.83468 7.47576 6.83468 7.16634ZM12.333 10.6663L8.97035 14.2363C8.84569 14.3687 8.69528 14.4742 8.52835 14.5463C8.36142 14.6184 8.18151 14.6556 7.99968 14.6556C7.81785 14.6556 7.63794 14.6184 7.47102 14.5463C7.30409 14.4742 7.15368 14.3687 7.02902 14.2363L3.66635 10.6663H3.67902L3.67335 10.6597L3.66635 10.6513C2.8032 9.63059 2.33066 8.33644 2.33302 6.99967C2.33302 3.87001 4.87002 1.33301 7.99968 1.33301C11.1294 1.33301 13.6664 3.87001 13.6664 6.99967C13.6687 8.33644 13.1962 9.63059 12.333 10.6513L12.326 10.6597L12.3204 10.6663H12.333ZM11.6854 10.1267C12.4281 9.2543 12.8351 8.14543 12.833 6.99967C12.833 4.33034 10.669 2.16634 7.99968 2.16634C5.33035 2.16634 3.16635 4.33034 3.16635 6.99967C3.16427 8.14543 3.57124 9.2543 4.31402 10.1267L4.41668 10.2477L7.63568 13.6647C7.68243 13.7143 7.73884 13.7539 7.80143 13.7809C7.86403 13.8079 7.9315 13.8219 7.99968 13.8219C8.06787 13.8219 8.13534 13.8079 8.19793 13.7809C8.26053 13.7539 8.31694 13.7143 8.36368 13.6647L11.5827 10.2477L11.6854 10.1267Z" fill="white"/>
</svg>
