<svg xmlns="http://www.w3.org/2000/svg" viewBox="0 0 200 200" width="200" height="200">
  <rect fill="#ffffff" width="200" height="200"/>
  <rect fill="#000000" x="20" y="20" width="40" height="40"/>
  <rect fill="#ffffff" x="30" y="30" width="20" height="20"/>
  <rect fill="#000000" x="35" y="35" width="10" height="10"/>
  
  <rect fill="#000000" x="140" y="20" width="40" height="40"/>
  <rect fill="#ffffff" x="150" y="30" width="20" height="20"/>
  <rect fill="#000000" x="155" y="35" width="10" height="10"/>
  
  <rect fill="#000000" x="20" y="140" width="40" height="40"/>
  <rect fill="#ffffff" x="30" y="150" width="20" height="20"/>
  <rect fill="#000000" x="35" y="155" width="10" height="10"/>
  
  <!-- QR pattern -->
  <rect fill="#000000" x="70" y="20" width="10" height="10"/>
  <rect fill="#000000" x="90" y="20" width="10" height="10"/>
  <rect fill="#000000" x="110" y="20" width="10" height="10"/>
  <rect fill="#000000" x="70" y="40" width="10" height="10"/>
  <rect fill="#000000" x="100" y="40" width="10" height="10"/>
  <rect fill="#000000" x="120" y="40" width="10" height="10"/>
  
  <rect fill="#000000" x="20" y="70" width="10" height="10"/>
  <rect fill="#000000" x="40" y="80" width="10" height="10"/>
  <rect fill="#000000" x="20" y="100" width="10" height="10"/>
  <rect fill="#000000" x="50" y="90" width="10" height="10"/>
  
  <rect fill="#000000" x="70" y="70" width="60" height="60" rx="5"/>
  <rect fill="#ffffff" x="80" y="80" width="40" height="40" rx="3"/>
  <rect fill="#722ED1" x="90" y="90" width="20" height="20" rx="2"/>
  
  <rect fill="#000000" x="140" y="80" width="10" height="10"/>
  <rect fill="#000000" x="160" y="70" width="10" height="10"/>
  <rect fill="#000000" x="170" y="90" width="10" height="10"/>
  
  <rect fill="#000000" x="70" y="150" width="10" height="10"/>
  <rect fill="#000000" x="90" y="140" width="10" height="10"/>
  <rect fill="#000000" x="110" y="160" width="10" height="10"/>
  <rect fill="#000000" x="100" y="170" width="10" height="10"/>
  
  <rect fill="#000000" x="140" y="150" width="10" height="10"/>
  <rect fill="#000000" x="160" y="160" width="10" height="10"/>
  <rect fill="#000000" x="170" y="140" width="10" height="10"/>
</svg>
