<svg width="32" height="32" viewBox="0 0 32 32" fill="none" xmlns="http://www.w3.org/2000/svg">
<path fill-rule="evenodd" clip-rule="evenodd" d="M20.4891 3C20.2027 3 19.9298 3.00267 19.6703 3.008C17.0719 3.05831 15.0874 4.71225 14.5028 7.00192C13.6258 7.00345 12.8119 7.01431 12.061 7.03451C9.63807 7.09911 7.52854 7.92865 5.9197 9.28874H5.89915C4.75928 9.28874 3.76087 8.35343 3.76087 7.26662C3.76087 6.17981 4.75928 5.24451 5.89915 5.24451H5.91617C7.11591 5.25022 7.28261 5.81392 7.28261 5.95742C7.28261 6.18486 7.37537 6.40298 7.54048 6.5638C7.7056 6.72463 7.92954 6.81498 8.16304 6.81498C8.39655 6.81498 8.62049 6.72463 8.7856 6.5638C8.95072 6.40298 9.04348 6.18486 9.04348 5.95742C9.04348 4.53102 7.70228 3.5294 5.89915 3.5294H5.87743C3.83659 3.54083 2 5.18048 2 7.26662C2 8.87654 3.0935 10.22 4.53037 10.7552C3.30128 12.3794 2.59693 14.4312 2.58754 16.6952C2.58666 16.9029 2.58666 17.1106 2.58754 17.3183C2.59693 19.5497 3.27957 21.5844 4.4928 23.2091C4.2222 23.7956 3.96 24.3856 3.70628 24.9791C3.27604 25.9842 3.55074 27.1796 4.48341 27.8662C4.73815 28.0538 5.02928 28.255 5.29224 28.4019C5.56048 28.5517 5.89563 28.6975 6.19791 28.8187C7.26383 29.2475 8.44713 28.8873 9.12389 28.0377C9.40915 27.6793 9.75428 27.2391 10.1229 26.7537C10.7455 26.8856 11.3915 26.9607 12.061 26.979C12.8464 27.0001 13.6975 27.0115 14.6196 27.0115C15.5417 27.0115 16.3928 27.0001 17.1781 26.979C17.8299 26.9623 18.4787 26.8869 19.1162 26.7537C19.4848 27.2397 19.83 27.6799 20.1152 28.0377C20.792 28.8873 21.9753 29.2469 23.0412 28.8187C23.3517 28.6977 23.6544 28.5583 23.9475 28.4014C24.2104 28.255 24.501 28.0538 24.7557 27.8662C25.689 27.1796 25.9631 25.9842 25.5334 24.9791C25.3221 24.4875 25.0521 23.8712 24.7463 23.2091C25.3198 22.4383 25.7709 21.5878 26.0846 20.6862C26.2669 20.6992 26.4465 20.7089 26.6234 20.7154C27.8736 20.7588 28.8327 19.8292 28.9219 18.6778C28.9654 18.1227 29 17.3818 29 16.435C29 15.4883 28.9648 14.7474 28.9219 14.1922C28.8327 13.0403 27.8736 12.1112 26.6234 12.1547C26.2982 12.1661 25.9613 12.1896 25.6191 12.2233C24.8074 10.5939 23.5483 9.24872 21.9565 8.33514C21.9507 6.62574 21.8027 5.45432 21.6454 4.68996C21.5873 4.3953 21.5108 4.10434 21.4165 3.81868C21.3786 3.70757 21.335 3.59842 21.2856 3.49166L21.2809 3.48195L21.2786 3.47794L21.2774 3.47566L21.2768 3.47394C21.2037 3.33149 21.0912 3.21169 20.9521 3.12798C20.813 3.04427 20.6527 2.99995 20.4891 3ZM19.9022 11.4326C20.4692 11.4326 20.9293 11.8808 20.9293 12.4331V13.0048C20.9293 13.2702 20.8211 13.5246 20.6285 13.7123C20.4359 13.8999 20.1746 14.0053 19.9022 14.0053C19.6297 14.0053 19.3685 13.8999 19.1759 13.7123C18.9832 13.5246 18.875 13.2702 18.875 13.0048V12.4331C18.875 11.8808 19.3352 11.4326 19.9022 11.4326ZM13.1246 10.8609C13.3581 10.8581 13.5809 10.7651 13.744 10.6023C13.907 10.4395 13.997 10.2202 13.9942 9.99279C13.9913 9.76535 13.8958 9.54834 13.7286 9.3895C13.5615 9.23067 13.3364 9.14301 13.1029 9.14581C12.8023 9.14962 12.5138 9.15496 12.2371 9.16182C10.2955 9.21041 8.60267 9.92333 7.39237 11.1085C7.30849 11.1878 7.24167 11.2826 7.1958 11.3873C7.14993 11.492 7.12592 11.6046 7.12519 11.7184C7.12446 11.8323 7.14702 11.9451 7.19154 12.0504C7.23606 12.1557 7.30167 12.2513 7.38452 12.3316C7.46737 12.4119 7.56582 12.4754 7.67411 12.5182C7.7824 12.5611 7.89838 12.5825 8.01527 12.5813C8.13215 12.5801 8.24762 12.5561 8.35492 12.511C8.46222 12.4658 8.55921 12.4003 8.64024 12.3182C9.51187 11.4646 10.765 10.9147 12.2829 10.8764C12.5509 10.8695 12.8315 10.8644 13.1246 10.8609Z" fill="#131211"/>
</svg>
