<svg width="32" height="32" viewBox="0 0 32 32" fill="none" xmlns="http://www.w3.org/2000/svg">
<path d="M19.0935 9.16645L19.5935 10.0324C19.7344 9.9511 19.8533 9.83662 19.9399 9.69893C20.0265 9.56123 20.0783 9.40449 20.0906 9.24229C20.1029 9.08008 20.0755 8.91732 20.0107 8.76811C19.9459 8.61891 19.8457 8.48776 19.7187 8.38605L19.0935 9.16645ZM5.31954 17.1184L4.33154 17.27C4.35618 17.4308 4.41964 17.5831 4.51643 17.7138C4.61322 17.8444 4.74041 17.9495 4.88699 18.0199C5.03357 18.0904 5.19511 18.124 5.35761 18.1179C5.52011 18.1117 5.67867 18.0661 5.81954 17.9848L5.31954 17.1184ZM18.5935 8.30045L4.81954 16.2524L5.81954 17.9844L19.5935 10.0324L18.5935 8.30045ZM3.69994 13.1472L4.33074 17.27L6.30794 16.9676L5.67674 12.8448L3.69994 13.1472ZM5.75194 8.87445C5.01947 9.29725 4.43171 9.93133 4.06558 10.6937C3.69945 11.4561 3.57201 12.3112 3.69994 13.1472L5.67674 12.8448C5.60972 12.407 5.67682 11.9591 5.86851 11.5598C6.06021 11.1605 6.36838 10.8284 6.75194 10.6068L5.75194 8.87445ZM11.7375 5.41885L5.75154 8.87485L6.75194 10.6068L12.7371 7.15085L11.7375 5.41885ZM16.4631 5.77845C15.8032 5.24969 14.9989 4.93247 14.1557 4.86831C13.3125 4.80415 12.4699 4.99603 11.7375 5.41885L12.7371 7.15085C13.1207 6.92931 13.5623 6.82873 14.004 6.86227C14.4457 6.89581 14.8674 7.06192 15.2131 7.33885L16.4631 5.77845ZM19.7187 8.38605L16.4631 5.77805L15.2127 7.33925L18.4679 9.94725L19.7187 8.38605Z" fill="#131211"/>
<path fill-rule="evenodd" clip-rule="evenodd" d="M23.0744 13.9936C23.0339 13.9996 22.9949 14.0133 22.9596 14.034L20.0728 15.7008C20.0182 15.7322 19.9737 15.7785 19.9444 15.8344L22.9276 14.112C22.9841 14.0792 23.0331 14.04 23.0744 13.9936ZM10.6692 21.1892C10.6062 21.1866 10.5438 21.202 10.4892 21.2336L7.60201 22.9004C7.56661 22.9205 7.53538 22.9473 7.51001 22.9792C7.57187 22.966 7.63127 22.9432 7.68601 22.9116L10.6692 21.1892ZM24.2588 15.6172L24.8484 16.6384C24.9545 16.8221 24.9832 17.0405 24.9283 17.2454C24.8734 17.4503 24.7393 17.6251 24.5556 17.7312L22.4772 18.9312C22.2935 19.0372 22.0751 19.066 21.8702 19.0111C21.6652 18.9562 21.4905 18.8221 21.3844 18.6384L20.81 17.6436L23.9276 15.8436C24.0455 15.7753 24.1559 15.6998 24.2588 15.6172ZM8.32401 24.8172C8.44721 24.7692 8.56774 24.7113 8.68561 24.6436L11.8032 22.8436L12.3776 23.8384C12.4837 24.0221 12.5124 24.2405 12.4575 24.4454C12.4026 24.6503 12.2685 24.8251 12.0848 24.9312L10.0064 26.1312C9.82267 26.2372 9.60431 26.266 9.39937 26.2111C9.19443 26.1562 9.0197 26.0221 8.91361 25.8384L8.32401 24.8172Z" fill="#131211"/>
<path fill-rule="evenodd" clip-rule="evenodd" d="M4.79997 21.114C4.5898 20.75 4.45338 20.3483 4.3985 19.9316C4.34361 19.5149 4.37134 19.0915 4.4801 18.6856C4.58886 18.2796 4.77652 17.8991 5.03236 17.5657C5.2882 17.2323 5.60721 16.9525 5.97117 16.7424L18.442 9.54237C18.8059 9.33228 19.2077 9.19594 19.6243 9.14112C20.041 9.08629 20.4643 9.11407 20.8702 9.22287C21.2761 9.33166 21.6566 9.51934 21.99 9.77518C22.3234 10.031 22.6031 10.35 22.8132 10.714L24.0132 12.7924C24.2253 13.1599 24.2828 13.5966 24.173 14.0065C24.0632 14.4163 23.795 14.7658 23.4276 14.978L8.18557 23.778C8.00359 23.883 7.80269 23.9512 7.59437 23.9786C7.38604 24.006 7.17435 23.9921 6.9714 23.9376C6.76845 23.8832 6.5782 23.7894 6.41152 23.6614C6.24484 23.5335 6.105 23.374 5.99997 23.192L4.79997 21.114ZM7.42477 20.0604C7.34473 19.9238 7.29249 19.7728 7.27105 19.616C7.24961 19.4592 7.2594 19.2998 7.29985 19.1468C7.3403 18.9938 7.41062 18.8503 7.50675 18.7246C7.60288 18.5988 7.72292 18.4934 7.85998 18.4143C7.99703 18.3351 8.14838 18.2839 8.30532 18.2635C8.46225 18.2431 8.62167 18.2539 8.7744 18.2954C8.92713 18.3369 9.07015 18.4081 9.19522 18.5051C9.32029 18.6021 9.42495 18.7228 9.50317 18.8604C9.65979 19.1358 9.70109 19.4621 9.61807 19.7679C9.53504 20.0737 9.33443 20.3343 9.06 20.4927C8.78558 20.6511 8.45962 20.6946 8.15327 20.6136C7.84691 20.5326 7.58503 20.3337 7.42477 20.0604ZM18.9492 12.0212C19.0857 11.9411 19.2367 11.8889 19.3935 11.8675C19.5503 11.846 19.7098 11.8558 19.8628 11.8963C20.0158 11.9367 20.1593 12.007 20.285 12.1032C20.4107 12.1993 20.5162 12.3193 20.5953 12.4564C20.6744 12.5934 20.7257 12.7448 20.7461 12.9017C20.7665 13.0587 20.7556 13.2181 20.7141 13.3708C20.6727 13.5235 20.6014 13.6665 20.5044 13.7916C20.4075 13.9167 20.2867 14.0214 20.1492 14.0996C19.8737 14.2562 19.5475 14.2975 19.2417 14.2145C18.9358 14.1314 18.6753 13.9308 18.5168 13.6564C18.3584 13.382 18.3149 13.056 18.3959 12.7497C18.4769 12.4433 18.6758 12.1814 18.9492 12.0212ZM25.5588 22.9C25.0253 22.592 24.4125 22.4489 23.7978 22.4888C23.1831 22.5288 22.594 22.7499 22.1049 23.1244C21.6157 23.4988 21.2485 24.0098 21.0495 24.5928C20.8505 25.1757 20.8287 25.8046 20.9868 26.4H27.0132C27.189 25.7378 27.1418 25.0362 26.8789 24.4036C26.616 23.7709 26.1521 23.2425 25.5588 22.9Z" fill="#131211"/>
<path d="M20.9867 26.4001L20.2131 26.6054C20.2583 26.7759 20.3587 26.9267 20.4985 27.0342C20.6384 27.1418 20.8098 27.2001 20.9863 27.2001L20.9867 26.4001ZM27.0131 26.4001V27.2001C27.1895 27.2001 27.361 27.1418 27.5008 27.0342C27.6407 26.9267 27.741 26.7759 27.7863 26.6054L27.0131 26.4001ZM22.8411 23.5929C23.1935 23.3898 23.5931 23.2828 23.9999 23.2828C24.4067 23.2828 24.8063 23.3898 25.1587 23.5929L25.9587 22.2074C25.363 21.8637 24.6875 21.6829 23.9999 21.6829C23.3122 21.6829 22.6367 21.8637 22.0411 22.2074L22.8411 23.5929ZM21.6823 25.6001C21.6825 25.1934 21.7897 24.7938 21.9931 24.4415C22.1965 24.0892 22.4889 23.7966 22.8411 23.5929L22.0411 22.2074C21.4457 22.5514 20.9513 23.046 20.6074 23.6415C20.2636 24.237 20.0825 24.9125 20.0823 25.6001H21.6823ZM21.7595 26.1949C21.7081 26.0009 21.6822 25.8009 21.6823 25.6001H20.0823C20.0823 25.9441 20.1271 26.2813 20.2131 26.6054L21.7595 26.1949ZM20.9863 27.2001H27.0131V25.6001H20.9863V27.2001ZM26.3175 25.6001C26.3175 25.8037 26.2907 26.0033 26.2399 26.1949L27.7863 26.6054C27.8723 26.2813 27.9175 25.9437 27.9175 25.6001H26.3175ZM25.1587 23.5929C25.5108 23.7966 25.8033 24.0892 26.0067 24.4415C26.2101 24.7938 26.3172 25.1934 26.3175 25.6001H27.9175C27.9175 24.2001 27.1707 22.907 25.9587 22.2074L25.1587 23.5929Z" fill="#131211"/>
</svg>
