<svg width="14" height="9" viewBox="0 0 14 9" fill="none" xmlns="http://www.w3.org/2000/svg">
<path d="M0.750003 9C0.537503 9 0.359503 8.928 0.216003 8.784C0.0725027 8.64 0.000502586 8.462 2.5862e-06 8.25C-0.000497414 8.038 0.0715027 7.86 0.216003 7.716C0.360503 7.572 0.538503 7.5 0.750003 7.5H12.75C12.9625 7.5 13.1408 7.572 13.2848 7.716C13.4288 7.86 13.5005 8.038 13.5 8.25C13.4995 8.462 13.4275 8.64025 13.284 8.78475C13.1405 8.92925 12.9625 9.001 12.75 9H0.750003ZM0.750003 5.25C0.537503 5.25 0.359503 5.178 0.216003 5.034C0.0725027 4.89 0.000502586 4.712 2.5862e-06 4.5C-0.000497414 4.288 0.0715027 4.11 0.216003 3.966C0.360503 3.822 0.538503 3.75 0.750003 3.75H12.75C12.9625 3.75 13.1408 3.822 13.2848 3.966C13.4288 4.11 13.5005 4.288 13.5 4.5C13.4995 4.712 13.4275 4.89025 13.284 5.03475C13.1405 5.17925 12.9625 5.251 12.75 5.25H0.750003ZM0.750003 1.5C0.537503 1.5 0.359503 1.428 0.216003 1.284C0.0725027 1.14 0.000502586 0.962 2.5862e-06 0.75C-0.000497414 0.538 0.0715027 0.36 0.216003 0.216C0.360503 0.0720001 0.538503 0 0.750003 0H12.75C12.9625 0 13.1408 0.0720001 13.2848 0.216C13.4288 0.36 13.5005 0.538 13.5 0.75C13.4995 0.962 13.4275 1.14025 13.284 1.28475C13.1405 1.42925 12.9625 1.501 12.75 1.5H0.750003Z" fill="#131211"/>
</svg>
