<?xml version="1.0" standalone="no"?>
<!DOCTYPE svg PUBLIC "-//W3C//DTD SVG 20010904//EN"
 "http://www.w3.org/TR/2001/REC-SVG-20010904/DTD/svg10.dtd">
<svg version="1.0" xmlns="http://www.w3.org/2000/svg"
 width="2000.000000pt" height="1483.000000pt" viewBox="0 0 2000.000000 1483.000000"
 preserveAspectRatio="xMidYMid meet">

<g transform="translate(0.000000,1483.000000) scale(0.100000,-0.100000)"
fill="#000000" stroke="none">
<path d="M9800 14824 c-413 -28 -669 -66 -982 -144 -971 -243 -1848 -787
-2503 -1551 -595 -695 -985 -1557 -1114 -2459 -36 -255 -45 -392 -45 -695 -1
-304 8 -431 45 -695 171 -1205 808 -2320 1764 -3087 918 -736 2051 -1109 3228
-1062 373 15 696 63 1047 155 1576 414 2852 1615 3364 3167 322 974 326 2035
11 3017 -102 318 -301 749 -478 1037 -759 1232 -2008 2058 -3427 2267 -256 38
-718 63 -910 50z m675 -648 c535 -66 989 -204 1450 -440 785 -401 1411 -1026
1835 -1830 61 -115 63 -120 50 -155 -6 -20 -66 -144 -131 -276 -276 -558 -559
-992 -844 -1294 -83 -88 -209 -201 -224 -201 -5 0 -12 33 -15 73 -4 39 -18
153 -32 252 -250 1791 -1231 2970 -2833 3405 -362 98 -734 152 -1166 168
l-180 7 125 47 c396 147 741 221 1220 262 110 9 622 -3 745 -18z m-1993 -387
c446 -137 892 -377 1242 -668 140 -117 250 -220 243 -228 -4 -3 -86 -16 -184
-28 -1874 -240 -3064 -1173 -3487 -2735 -108 -400 -151 -757 -150 -1250 0
-325 7 -444 40 -685 l5 -40 -26 49 c-15 26 -51 107 -80 180 -139 343 -230 693
-282 1091 -26 202 -26 798 0 1000 120 922 485 1709 1104 2377 336 364 720 654
1178 890 219 114 191 110 397 47z m1621 -1026 c136 -152 234 -273 336 -417
381 -536 697 -1291 780 -1863 35 -240 44 -408 38 -672 -10 -401 -68 -739 -190
-1111 -183 -557 -529 -1137 -925 -1550 l-97 -103 -103 108 c-415 434 -778
1063 -991 1716 -140 429 -188 769 -178 1244 7 334 32 523 107 830 145 590 458
1199 863 1679 66 78 238 256 248 256 3 0 53 -53 112 -117z m3811 -1193 c141
-347 231 -697 283 -1095 26 -202 26 -798 0 -1000 -108 -822 -400 -1514 -911
-2155 -132 -165 -477 -509 -644 -642 -247 -197 -508 -363 -786 -499 -120 -59
-166 -77 -185 -73 -14 4 -105 32 -201 64 -426 141 -780 334 -1140 621 -106 84
-270 236 -270 250 0 5 13 9 30 9 16 0 114 11 217 25 1750 238 2897 1097 3362
2517 104 318 162 606 203 1008 19 185 16 755 -5 940 -18 154 -20 176 -13 169
3 -2 29 -65 60 -139z m-6476 -1737 c56 -538 201 -1106 396 -1543 435 -977
1193 -1655 2234 -1999 351 -116 765 -196 1139 -221 92 -6 211 -14 263 -18 l95
-7 -150 -53 c-1164 -407 -2436 -296 -3500 306 -142 80 -416 267 -555 379 -158
126 -423 382 -558 538 -202 234 -374 485 -532 773 -58 106 -71 138 -66 160 12
49 293 604 392 772 187 319 393 609 567 797 91 99 237 233 253 233 6 0 15 -48
22 -117z"/>
<path d="M11210 3605 c-341 -71 -594 -216 -760 -437 -98 -129 -173 -296 -187
-415 l-6 -53 2049 2 2049 3 0 460 0 460 -1515 2 -1515 2 -115 -24z"/>
<path d="M0 3150 l0 -470 1543 0 c1675 0 1615 2 1728 -55 72 -37 151 -120 189
-200 l31 -65 -3 -642 c-3 -637 -3 -643 -25 -690 -29 -64 -68 -113 -108 -138
-32 -20 -47 -20 -1049 -20 l-1016 0 -2 703 -3 702 -642 3 -643 2 0 -1140 0
-1140 1926 0 c2157 0 1989 -6 2159 74 185 87 321 241 407 462 l29 74 -3 1113
-3 1112 -23 70 c-89 263 -280 474 -594 656 l-103 59 -1897 0 -1898 0 0 -470z"/>
<path d="M6050 3606 c-222 -82 -428 -280 -583 -560 -54 -96 -147 -310 -147
-335 0 -8 590 -11 1975 -11 l1975 0 0 460 0 460 -1592 -1 c-1277 0 -1600 -3
-1628 -13z"/>
<path d="M15620 1755 l0 -1755 560 0 560 0 0 1755 0 1755 -560 0 -560 0 0
-1755z"/>
<path d="M17830 2682 l-864 -787 608 -3 c505 -2 613 0 630 12 12 7 418 363
904 790 l883 776 -648 0 -648 -1 -865 -787z"/>
<path d="M5320 1175 l0 -1175 625 0 625 0 0 680 0 680 1348 2 1347 3 3 493 2
492 -1975 0 -1975 0 0 -1175z"/>
<path d="M10254 2336 c-8 -20 12 -155 32 -212 32 -98 116 -225 206 -311 137
-131 387 -278 648 -379 l125 -49 1015 -5 1015 -5 41 -22 c56 -30 109 -94 123
-148 16 -63 14 -174 -5 -227 -22 -67 -75 -122 -152 -160 l-67 -33 -1442 -3
-1443 -2 0 -390 0 -390 1528 0 c1465 0 1532 1 1660 20 375 55 630 183 794 399
232 306 275 839 97 1194 -165 326 -528 580 -1002 702 l-138 35 -1515 0 c-1288
0 -1515 -2 -1520 -14z"/>
<path d="M16980 1566 c19 -18 403 -378 852 -800 l817 -766 675 2 674 3 -862
797 -861 797 -665 1 -665 0 35 -34z"/>
</g>
</svg>
