<?xml version="1.0" standalone="no"?>
<!DOCTYPE svg PUBLIC "-//W3C//DTD SVG 20010904//EN"
 "http://www.w3.org/TR/2001/REC-SVG-20010904/DTD/svg10.dtd">
<svg version="1.0" xmlns="http://www.w3.org/2000/svg"
 width="2000.000000pt" height="1029.000000pt" viewBox="0 0 2000.000000 1029.000000"
 preserveAspectRatio="xMidYMid meet">

<g transform="translate(0.000000,1029.000000) scale(0.100000,-0.100000)"
fill="#000000" stroke="none">
<path d="M9580 10284 c-561 -50 -954 -153 -1385 -364 -971 -477 -1676 -1352
-1941 -2411 -117 -471 -137 -1001 -54 -1502 228 -1398 1286 -2561 2655 -2922
321 -84 578 -117 930 -117 588 0 1075 114 1600 372 391 193 686 408 1000 731
173 177 286 318 420 519 327 493 519 1015 591 1610 25 202 25 647 0 850 -86
704 -353 1342 -786 1880 -410 508 -948 899 -1551 1125 -271 103 -582 178 -869
210 -138 16 -514 27 -610 19z m500 -474 c1072 -96 2043 -762 2535 -1739 l66
-131 -52 -123 c-160 -382 -360 -699 -574 -912 -97 -96 -269 -230 -285 -220 -4
2 -10 47 -13 99 -4 51 -16 158 -27 237 -85 583 -274 1057 -588 1479 -118 158
-371 410 -534 531 -493 366 -1088 575 -1718 605 -128 7 -140 9 -116 21 80 42
507 135 696 152 138 12 477 13 610 1z m-1395 -271 c214 -67 432 -175 645 -320
482 -327 894 -824 1119 -1351 336 -785 329 -1600 -21 -2438 -122 -291 -324
-639 -536 -922 -44 -60 -79 -108 -77 -108 14 0 258 56 335 76 355 96 601 186
880 326 825 410 1334 1034 1555 1903 79 308 115 605 115 938 0 120 4 207 9
207 18 0 107 -256 156 -450 123 -486 123 -1065 -1 -1555 -207 -819 -727 -1525
-1444 -1960 -107 -65 -352 -190 -392 -200 -79 -20 -468 139 -700 286 -240 152
-516 392 -707 614 -622 723 -873 1656 -690 2560 109 536 341 1044 709 1550 60
82 108 151 106 152 -6 7 -284 -59 -441 -104 -891 -254 -1519 -674 -1931 -1290
-337 -504 -503 -1127 -517 -1943 l-2 -125 -48 130 c-127 339 -185 650 -194
1040 -7 321 18 550 93 853 197 795 698 1487 1399 1932 132 84 421 230 454 230
15 0 71 -14 126 -31z m-881 -3006 c3 -21 8 -72 11 -113 8 -106 22 -205 51
-360 91 -495 274 -923 559 -1307 111 -151 377 -415 537 -534 479 -356 1048
-560 1685 -603 l178 -12 -80 -26 c-181 -61 -450 -116 -674 -138 -133 -13 -440
-13 -572 0 -778 78 -1462 408 -1996 964 -231 239 -432 527 -569 809 l-46 96
42 106 c190 472 458 857 750 1076 57 44 108 79 111 79 4 0 10 -17 13 -37z"/>
<path d="M4 1987 c-2 -7 -3 -107 -2 -222 l3 -210 762 -5 763 -5 27 -28 28 -27
0 -491 0 -491 -33 -29 -32 -29 -520 0 -520 0 0 410 0 410 -237 -2 -238 -3 -3
-633 -2 -632 812 0 c902 0 881 -1 1009 66 125 66 229 191 272 329 22 69 22 81
22 605 l0 535 -24 73 c-62 189 -223 338 -408 377 -95 20 -1671 22 -1679 2z"/>
<path d="M2903 1985 c-202 -45 -374 -211 -428 -415 -12 -45 -15 -151 -15 -570
0 -318 4 -532 11 -560 22 -95 78 -191 158 -270 88 -87 148 -123 257 -150 73
-19 112 -20 698 -20 690 0 687 0 819 66 149 75 273 246 298 410 6 46 9 251 7
570 l-3 499 -26 66 c-37 96 -75 157 -138 220 -63 63 -124 101 -220 138 l-66
26 -645 2 c-515 1 -658 -1 -707 -12z m1297 -450 c16 -9 38 -30 47 -48 16 -29
18 -71 18 -492 0 -501 1 -489 -58 -525 -31 -19 -56 -20 -630 -20 l-597 0 -38
34 -37 34 0 480 0 480 25 27 c14 15 34 31 45 35 11 5 285 9 608 9 507 1 592
-1 617 -14z"/>
<path d="M5100 1000 l0 -1000 260 0 260 0 2 646 3 645 365 -383 c512 -537 736
-773 804 -845 l59 -63 259 0 258 0 0 1000 0 1000 -270 0 -270 0 0 -635 c0
-349 -2 -635 -4 -635 -6 0 -180 181 -886 918 l-335 350 -252 1 -253 1 0 -1000z"/>
<path d="M8333 1985 c-179 -39 -343 -191 -406 -374 -21 -64 -22 -79 -25 -585
-3 -493 -2 -522 17 -598 52 -202 203 -359 397 -408 74 -19 112 -20 886 -20
l808 0 0 635 0 635 -610 0 -610 0 0 -265 0 -265 375 0 375 0 0 -145 0 -145
-523 0 -523 0 -30 31 -29 30 0 490 0 491 33 29 32 29 755 0 755 0 0 225 0 225
-807 -1 c-639 0 -821 -3 -870 -14z"/>
<path d="M10984 1985 c-99 -21 -180 -69 -264 -154 -77 -79 -131 -169 -145
-243 l-7 -38 861 0 861 0 0 225 0 225 -622 -1 c-477 0 -637 -4 -684 -14z"/>
<path d="M12820 1000 l0 -1000 970 0 970 0 0 225 0 225 -665 0 -665 0 0 145 0
145 665 0 665 0 0 265 0 265 -665 0 -665 0 0 140 0 140 665 0 665 0 0 225 0
225 -970 0 -970 0 0 -1000z"/>
<path d="M15120 1000 l0 -1000 260 0 260 0 2 645 3 645 225 -237 c124 -131
281 -296 350 -368 69 -71 244 -255 389 -407 l264 -278 253 0 254 0 0 1000 0
1000 -265 0 -265 0 0 -635 c0 -368 -4 -635 -9 -635 -5 0 -24 17 -42 38 -17 20
-190 201 -383 402 -193 201 -452 470 -575 598 l-223 232 -249 0 -249 0 0
-1000z"/>
<path d="M18350 1993 c-210 -35 -389 -203 -445 -418 -22 -85 -22 -1072 0
-1155 53 -198 210 -354 410 -405 51 -13 177 -15 872 -15 l813 0 0 635 0 635
-610 0 -610 0 0 -265 0 -265 375 0 375 0 0 -145 0 -145 -523 0 c-576 0 -549
-3 -581 64 -14 30 -16 88 -16 474 0 242 3 454 6 471 4 18 20 45 36 62 l30 29
759 0 759 0 0 225 0 225 -812 -1 c-447 -1 -824 -4 -838 -6z"/>
<path d="M10550 635 l0 -635 265 0 265 0 0 370 0 370 605 0 605 0 0 265 0 265
-870 0 -870 0 0 -635z"/>
</g>
</svg>
