<svg width="24" height="24" viewBox="0 0 24 24" fill="none" xmlns="http://www.w3.org/2000/svg">
<path d="M9.7892 1.20173C9.20049 1.52421 8.70235 1.98976 8.34075 2.55552C8.15947 2.83915 7.82005 2.97896 7.4916 2.9053C6.83472 2.75797 6.1513 2.77894 5.50467 2.96629C4.85806 3.15363 4.26917 3.50128 3.79261 3.97704C3.31603 4.45278 2.96725 5.04125 2.77858 5.68786C2.58992 6.33448 2.5675 7.01827 2.71344 7.67587C2.7865 8.00507 2.64528 8.34474 2.36037 8.5251C1.79054 8.88587 1.32115 9.38498 0.995866 9.976C0.670584 10.567 0.5 11.2308 0.5 11.9055C0.5 12.5803 0.670584 13.244 0.995866 13.8351C1.32115 14.4261 1.79054 14.9252 2.36037 15.286C2.64528 15.4663 2.7865 15.806 2.71344 16.1352C2.5675 16.7928 2.58992 17.4766 2.77858 18.1232C2.96725 18.7698 3.31605 19.3582 3.79261 19.8341M9.7892 1.20173L9.40488 0.500092M9.7892 1.20173C10.3779 0.879256 11.0383 0.71024 11.7094 0.71024C12.3806 0.71024 13.0409 0.879256 13.6296 1.20173C14.2184 1.52421 14.7165 1.98976 15.0781 2.55552C15.2595 2.8393 15.5991 2.97909 15.9277 2.90518C16.5856 2.75722 17.2702 2.77811 17.9179 2.9659C18.5654 3.1537 19.1552 3.50232 19.632 3.97936M19.632 3.97936L20.1978 3.41379M19.632 3.97936C20.109 4.4564 20.4574 5.04638 20.6451 5.69442C20.833 6.34245 20.8538 7.02749 20.7059 7.68578C20.632 8.01421 20.7718 8.35371 21.0554 8.5351C21.6208 8.89682 22.0862 9.39515 22.4086 9.98418C22.731 10.5732 22.9 11.234 22.9 11.9055C22.9 12.5771 22.731 13.2379 22.4086 13.8269C22.0862 14.4159 21.6208 14.9143 21.0554 15.276C20.7718 15.4573 20.6322 15.7965 20.7058 16.1248C20.8531 16.7821 20.8322 17.4659 20.6448 18.113C20.4574 18.76 20.1099 19.3491 19.6344 19.8259C19.1587 20.3027 18.5706 20.6515 17.9245 20.8403C17.2782 21.029 16.5949 21.0514 15.9376 20.9054C15.609 20.8325 15.2698 20.973 15.0891 21.2571C14.728 21.8251 14.2294 22.2926 13.6397 22.6165C13.05 22.9405 12.3881 23.1102 11.7154 23.1102C11.0427 23.1102 10.3808 22.9405 9.79113 22.6165C9.20141 22.2926 8.70288 21.8251 8.34174 21.2571C8.16077 20.9725 7.8207 20.832 7.4916 20.9058C6.83472 21.0531 6.1513 21.0322 5.50469 20.8448C4.85806 20.6574 4.26917 20.3098 3.79261 19.8341M3.79261 19.8341L3.22739 20.4002" stroke="#131211" stroke-linecap="round" stroke-linejoin="round"/>
<path d="M16.3186 7.2946H9.39559C8.78354 7.2946 8.19658 7.53774 7.76379 7.97052C7.33101 8.40329 7.08789 8.99027 7.08789 9.6023C7.08789 10.2143 7.33101 10.8013 7.76379 11.2341C8.19658 11.6669 8.78354 11.91 9.39559 11.91H14.011C14.623 11.91 15.21 12.1531 15.6428 12.5859C16.0756 13.0187 16.3186 13.6056 16.3186 14.2177C16.3186 14.8297 16.0756 15.4167 15.6428 15.8495C15.21 16.2822 14.623 16.5254 14.011 16.5254H7.08789" stroke="#131211" stroke-linecap="round" stroke-linejoin="round"/>
<path d="M11.7002 18.3709V5.44774" stroke="#131211" stroke-linecap="round" stroke-linejoin="round"/>
</svg>
