<svg width="20" height="20" viewBox="0 0 20 20" fill="none" xmlns="http://www.w3.org/2000/svg">
<g clip-path="url(#clip0_364_5936)">
<path d="M11.4303 19.3292H8.7122C8.58045 19.3292 8.47448 19.2232 8.47448 19.0914V17.6135C7.56655 17.4188 6.71018 17.0665 5.93114 16.5624L4.88573 17.6078C4.79408 17.6995 4.64228 17.6995 4.55063 17.6078L2.62881 15.686C2.53716 15.5943 2.53716 15.4425 2.62881 15.3509L3.67421 14.3055C3.17013 13.5264 2.81498 12.6701 2.62022 11.7621H1.14519C1.01344 11.7593 0.907471 11.6533 0.907471 11.5244V8.80637C0.907471 8.67462 1.01344 8.56865 1.14519 8.56865H2.62308C2.81784 7.66072 3.17013 6.80435 3.67708 6.02531L2.63167 4.97991C2.54002 4.88826 2.54002 4.73646 2.63167 4.6448L4.5535 2.72298C4.64515 2.63133 4.79695 2.63133 4.8886 2.72298L5.934 3.76838C6.71304 3.2643 7.56655 2.90915 8.47734 2.71439V1.2365C8.47734 1.10475 8.58331 0.998779 8.71506 0.998779H11.4331C11.5649 0.998779 11.6708 1.10475 11.6708 1.2365V2.71439C12.5788 2.90915 13.4351 3.26143 14.2142 3.76838L15.2596 2.72298C15.3054 2.67715 15.3627 2.65424 15.4286 2.65424C15.4916 2.65424 15.5517 2.68002 15.5975 2.72298L17.5194 4.6448C17.611 4.73646 17.611 4.88826 17.5194 4.97991L16.474 6.02531C16.9781 6.80435 17.3332 7.65786 17.528 8.56865H19.0058C19.1376 8.56865 19.2436 8.67462 19.2436 8.80637V11.5244C19.2436 11.6562 19.1376 11.7621 19.0058 11.7621H17.528C17.3332 12.6701 16.9809 13.5264 16.474 14.3055L17.5194 15.3509C17.611 15.4425 17.611 15.5943 17.5194 15.686L15.5975 17.6078C15.5517 17.6536 15.4944 17.6766 15.4286 17.6766C15.3656 17.6766 15.3054 17.6508 15.2596 17.6078L14.2142 16.5624C13.4351 17.0665 12.5788 17.4216 11.6708 17.6135V19.0914C11.668 19.2232 11.562 19.3292 11.4303 19.3292ZM8.75803 19.0485H11.3873V17.5763C11.3873 17.4646 11.4675 17.3672 11.5763 17.3472C12.4757 17.161 13.3206 16.8087 14.091 16.3075C14.1855 16.2445 14.3058 16.2588 14.386 16.3361L15.4257 17.3758L17.2845 15.517L16.2448 14.4773C16.1675 14.4 16.1532 14.274 16.2133 14.1823C16.7174 13.4147 17.0668 12.5698 17.253 11.6705C17.2759 11.5617 17.3733 11.4815 17.4821 11.4815H18.9543V8.8522H17.4821C17.3704 8.8522 17.2759 8.772 17.253 8.66317C17.0668 7.76383 16.7146 6.91605 16.2133 6.14847C16.1532 6.05682 16.1646 5.9308 16.2448 5.85346L17.2845 4.81379L15.4257 2.95497L14.386 3.99465C14.3058 4.07485 14.1855 4.0863 14.091 4.02615C13.3234 3.52207 12.4785 3.17265 11.5763 2.98648C11.4675 2.96357 11.3873 2.86619 11.3873 2.75449V1.27946H8.75803V2.75162C8.75803 2.86332 8.67783 2.9607 8.56899 2.98075C7.66966 3.16692 6.82188 3.51921 6.0543 4.02043C5.96264 4.08057 5.83662 4.06912 5.75929 3.98892L4.71962 2.94925L2.8608 4.80806L3.90048 5.84774C3.97781 5.92507 3.99213 6.05109 3.93198 6.14274C3.4279 6.91032 3.07847 7.75524 2.89231 8.65744C2.86939 8.76627 2.77201 8.84647 2.66031 8.84647H1.18815V11.4757H2.66031C2.77201 11.4757 2.86939 11.5559 2.89231 11.6648C3.07847 12.5641 3.43076 13.409 3.93198 14.1766C3.99213 14.2711 3.98067 14.3943 3.90048 14.4716L2.8608 15.5113L4.71962 17.3701L5.75929 16.3304C5.83662 16.2531 5.96264 16.2388 6.0543 16.3018C6.82188 16.8059 7.6668 17.1553 8.56899 17.3415C8.67783 17.3644 8.75803 17.4617 8.75803 17.5706V19.0485Z" fill="#131211"/>
<path d="M10.0732 15.9891C6.8625 15.9891 4.24756 13.3771 4.24756 10.1635C4.24756 6.94997 6.8625 4.33789 10.0732 4.33789C13.2839 4.33789 15.8988 6.95283 15.8988 10.1635C15.8988 13.3742 13.2839 15.9891 10.0732 15.9891ZM10.0732 4.62144C7.01716 4.62144 4.53111 7.1075 4.53111 10.1635C4.53111 13.2195 7.01716 15.7056 10.0732 15.7056C13.1292 15.7056 15.6153 13.2195 15.6153 10.1635C15.6153 7.1075 13.1292 4.62144 10.0732 4.62144Z" fill="#131211"/>
<path d="M12.6084 14.0964C12.5397 14.0964 12.4738 14.0706 12.4222 14.0191L11.9496 13.5465C11.8465 13.4434 11.8465 13.2773 11.9496 13.1742L12.7745 12.3493C12.8776 12.2462 13.0437 12.2462 13.1468 12.3493L13.6194 12.8219C13.7225 12.925 13.7225 13.0911 13.6194 13.1942L12.7946 14.0191C12.743 14.0706 12.6743 14.0964 12.6084 14.0964ZM12.9464 12.5498L12.1473 13.3747L12.6199 13.8215L13.4046 13.0109L12.9464 12.5498Z" fill="#131211"/>
<path d="M10.1009 8.22219C10.0293 8.22219 9.96338 8.19355 9.91469 8.14486L8.92084 7.15101C8.87215 7.10232 8.84351 7.03358 8.84351 6.96485C8.84351 6.89324 8.87215 6.82737 8.92084 6.77868L9.45929 6.24022C9.55954 6.13998 9.73138 6.13998 9.83163 6.24022L10.8255 7.23407C10.8742 7.28276 10.9028 7.34864 10.9028 7.42024C10.9028 7.49184 10.8742 7.55772 10.8255 7.60641L10.287 8.14486C10.2383 8.19642 10.1725 8.22219 10.1009 8.22219ZM9.634 6.44071L9.12133 6.97917L10.1152 7.94724L10.6193 7.41738L9.634 6.44071Z" fill="#131211"/>
<path d="M6.66695 11.1631C6.66122 11.1631 6.65263 11.1631 6.64403 11.1602C6.58675 11.1516 6.54093 11.1087 6.52947 11.0543C6.24592 9.87997 6.81875 8.58253 8.02454 7.66887C8.18207 7.55144 8.34532 7.47411 8.50858 7.44261C8.77208 7.39392 8.9296 7.03876 8.9296 7.0359C8.96111 6.9643 9.0413 6.92993 9.11577 6.96143C9.18737 6.99294 9.22174 7.07313 9.19024 7.1476C9.18164 7.16765 8.97543 7.64596 8.56013 7.72329C8.43984 7.7462 8.31668 7.80349 8.19352 7.89514C7.19967 8.6484 6.66695 9.67376 6.74714 10.6418C7.34001 9.82842 8.0274 9.54773 8.79499 9.81123C8.86946 9.83701 8.90955 9.91721 8.88378 9.98881C8.858 10.0633 8.7778 10.1034 8.7062 10.0776C7.97871 9.83128 7.35147 10.1635 6.78724 11.0944C6.76146 11.1373 6.71564 11.1631 6.66695 11.1631Z" fill="#131211"/>
<path d="M9.54627 9.29333C9.48612 9.29333 9.42884 9.25323 9.41165 9.19022C9.23981 8.58303 9.40306 8.15341 9.91001 7.88132C9.97875 7.84408 10.0647 7.86986 10.1019 7.9386C10.1391 8.00734 10.1134 8.09326 10.0446 8.13049C9.65797 8.33958 9.54913 8.63172 9.68375 9.11289C9.70379 9.18736 9.66083 9.26469 9.58637 9.2876C9.57204 9.29046 9.55772 9.29333 9.54627 9.29333Z" fill="#131211"/>
<path d="M12.067 13.3976C12.0297 13.3976 11.9954 13.3833 11.9667 13.3575L8.6558 10.0437C8.60139 9.98933 8.60139 9.90054 8.6558 9.84326L9.44916 9.0499C9.50072 8.99834 9.59524 8.99834 9.64965 9.0499L12.9606 12.3608C13.015 12.4152 13.015 12.504 12.9606 12.5613C12.9062 12.6157 12.8174 12.6157 12.7601 12.5613L9.54941 9.35063L8.95654 9.9435L12.1672 13.157C12.2216 13.2115 12.2216 13.3003 12.1672 13.3575C12.1414 13.3862 12.1042 13.3976 12.067 13.3976Z" fill="#131211"/>
<path d="M10.8868 10.6336C10.8496 10.6336 10.8152 10.6193 10.7866 10.5935C10.7321 10.5391 10.7321 10.4503 10.7866 10.393L11.7947 9.38485C11.832 9.34761 11.8892 9.33329 11.9379 9.35048C12.3532 9.49082 12.8058 9.38485 13.1122 9.07838C13.3843 8.80629 13.496 8.42536 13.4273 8.05876L12.926 8.55998C12.8258 8.66022 12.6711 8.66022 12.5709 8.55998L12.0153 8.00434C11.9179 7.90696 11.9179 7.74943 12.0124 7.65205L12.5165 7.14797C12.1499 7.07923 11.7689 7.19379 11.4997 7.46302C11.1933 7.77234 11.0873 8.21915 11.2276 8.63445C11.2448 8.686 11.2305 8.74042 11.1933 8.77765L10.1822 9.78869C10.1278 9.8431 10.039 9.8431 9.98173 9.78869C9.92731 9.73427 9.92731 9.64548 9.98173 9.5882L10.9326 8.63731C10.8009 8.14468 10.9355 7.62341 11.2992 7.25967C11.7031 6.85583 12.3074 6.73267 12.8373 6.94461C12.8802 6.9618 12.9146 7.0019 12.9232 7.04772C12.9318 7.09355 12.9175 7.14224 12.886 7.17661L12.2387 7.8239L12.7485 8.33371L13.3958 7.68642C13.4301 7.65205 13.476 7.63773 13.5246 7.64919C13.5705 7.65778 13.6106 7.68929 13.6278 7.73511C13.8426 8.26497 13.7194 8.8693 13.3156 9.27314C12.9518 9.63689 12.4306 9.77437 11.9351 9.63975L10.987 10.5878C10.9584 10.6193 10.924 10.6336 10.8868 10.6336Z" fill="#131211"/>
<path d="M9.05073 12.4694C9.01349 12.4694 8.97912 12.4551 8.95048 12.4294C8.89606 12.3749 8.89606 12.2861 8.95048 12.2289L9.99302 11.1863C10.0474 11.1319 10.1362 11.1319 10.1935 11.1863C10.2479 11.2407 10.2479 11.3295 10.1935 11.3868L9.15097 12.4294C9.12233 12.4551 9.08796 12.4694 9.05073 12.4694Z" fill="#131211"/>
<path d="M8.25019 11.6706C8.21295 11.6706 8.17859 11.6563 8.14994 11.6305C8.09553 11.5761 8.09553 11.4873 8.14994 11.43L9.19248 10.3875C9.2469 10.3331 9.33569 10.3331 9.39297 10.3875C9.44739 10.4419 9.44739 10.5307 9.39297 10.588L8.35043 11.6305C8.32179 11.6563 8.28456 11.6706 8.25019 11.6706Z" fill="#131211"/>
<path d="M7.83913 14.1649C7.65869 14.1649 7.47825 14.1305 7.3064 14.0618C7.26344 14.0446 7.22907 14.0045 7.22048 13.9587C7.21188 13.9128 7.22621 13.8642 7.25771 13.8298L7.905 13.1825L7.39519 12.6727L6.7479 13.32C6.71353 13.3543 6.66484 13.3687 6.61901 13.3572C6.57319 13.3486 6.53309 13.3142 6.5159 13.2713C6.30396 12.7414 6.42712 12.1371 6.83096 11.7332C7.21475 11.3495 7.77612 11.2177 8.29452 11.3924C8.36899 11.4182 8.40909 11.4984 8.38331 11.57C8.35753 11.6445 8.2802 11.6846 8.20573 11.6588C7.79044 11.5213 7.34077 11.6244 7.03144 11.9309C6.76222 12.2001 6.64765 12.5839 6.71639 12.9505L7.21761 12.4493C7.31213 12.3548 7.47825 12.3548 7.57276 12.4493L8.1284 13.0049C8.17709 13.0536 8.20287 13.1166 8.20287 13.1825C8.20287 13.2484 8.17709 13.3114 8.1284 13.3601L7.62718 13.8613C7.99379 13.9329 8.37758 13.8183 8.64681 13.5462C8.95613 13.2369 9.05924 12.7872 8.9189 12.3719C8.89312 12.2975 8.93322 12.2173 9.00769 12.1944C9.08216 12.1715 9.16235 12.2087 9.18526 12.2832C9.35998 12.8016 9.22823 13.3629 8.84443 13.7467C8.57234 14.0217 8.2086 14.1649 7.83913 14.1649Z" fill="#131211"/>
</g>
<defs>
<clipPath id="clip0_364_5936">
<rect width="20" height="20" fill="white"/>
</clipPath>
</defs>
</svg>
