<?xml version="1.0" standalone="no"?>
<!DOCTYPE svg PUBLIC "-//W3C//DTD SVG 20010904//EN"
 "http://www.w3.org/TR/2001/REC-SVG-20010904/DTD/svg10.dtd">
<svg version="1.0" xmlns="http://www.w3.org/2000/svg"
 width="2000.000000pt" height="1764.000000pt" viewBox="0 0 2000.000000 1764.000000"
 preserveAspectRatio="xMidYMid meet">

<g transform="translate(0.000000,1764.000000) scale(0.100000,-0.100000)"
fill="#000000" stroke="none">
<path d="M9525 17629 c-1558 -62 -3009 -414 -4210 -1019 -1343 -677 -2223
-1589 -2538 -2630 -82 -270 -112 -485 -111 -800 0 -268 12 -385 63 -610 254
-1111 1182 -2113 2621 -2829 2710 -1348 6590 -1348 9300 0 1439 716 2367 1718
2621 2829 51 225 63 342 63 610 1 257 -7 340 -51 560 -80 401 -262 810 -529
1190 -713 1017 -2058 1852 -3719 2310 -1090 301 -2318 437 -3510 389z m455
-290 c0 -11 -36 -210 -80 -442 -43 -232 -170 -901 -280 -1487 -110 -585 -206
-1081 -212 -1102 -6 -21 -20 -46 -31 -55 -18 -17 -145 -18 -2611 -14 -1425 2
-2594 5 -2598 7 -3 2 9 41 28 87 508 1212 1773 2199 3448 2692 649 190 1352
301 2056 324 129 4 245 9 258 9 16 2 22 -3 22 -19z m380 6 c526 -14 1143 -101
1685 -236 951 -237 1811 -641 2475 -1162 524 -412 914 -870 1174 -1380 67
-131 136 -290 136 -313 0 -14 -1245 -19 -4471 -19 -803 0 -744 -6 -767 73 -6
21 -102 517 -212 1102 -110 586 -237 1255 -280 1487 -44 232 -80 431 -80 442
0 19 4 20 73 16 39 -2 160 -7 267 -10z m-5450 -3311 c410 -85 948 -197 1195
-249 248 -52 862 -180 1365 -285 503 -105 1023 -214 1155 -241 275 -57 314
-74 315 -140 0 -16 -364 -709 -941 -1790 -517 -970 -944 -1768 -949 -1773 -12
-12 -282 101 -535 225 -1144 559 -1969 1373 -2340 2309 -218 548 -267 1162
-139 1738 34 154 102 362 117 362 7 0 348 -70 757 -156z m10989 32 c154 -482
177 -1020 65 -1521 -247 -1111 -1144 -2112 -2479 -2764 -253 -124 -523 -237
-535 -225 -5 5 -432 803 -949 1773 -590 1106 -941 1774 -941 1791 0 35 41 77
89 90 20 6 284 62 586 125 303 62 863 179 1245 259 382 80 1096 229 1585 331
490 102 971 203 1070 224 99 22 190 40 202 40 20 1 27 -13 62 -123z m-4452
-3062 c780 -811 1419 -1479 1421 -1483 6 -17 -446 -164 -743 -241 -1473 -384
-3115 -352 -4565 89 -218 66 -431 142 -428 152 2 4 641 672 1421 1483 1248
1299 1421 1476 1447 1476 26 0 199 -177 1447 -1476z"/>
<path d="M16465 7733 c-723 -43 -1368 -229 -1926 -556 -508 -297 -917 -714
-1149 -1172 -287 -566 -273 -1323 34 -1864 250 -440 640 -825 1118 -1105 480
-280 1016 -453 1653 -533 178 -22 763 -25 955 -5 883 94 1562 352 2141 813
146 117 303 272 468 464 172 199 203 243 227 314 47 145 -31 259 -201 290 -39
7 -327 11 -869 11 -785 0 -811 -1 -850 -20 -48 -23 -135 -105 -261 -244 -160
-177 -382 -323 -600 -395 -527 -172 -1087 -57 -1500 307 -243 214 -414 518
-470 837 -22 121 -22 343 0 464 53 301 194 568 417 789 204 202 439 329 729
394 91 20 130 23 314 23 194 -1 219 -3 329 -29 301 -70 572 -216 804 -430 73
-68 114 -99 142 -106 27 -7 314 -10 887 -8 923 3 882 1 968 59 55 38 78 90 73
163 -10 114 -73 202 -322 451 -226 225 -460 407 -721 558 -310 179 -735 340
-1115 421 -414 89 -911 131 -1275 109z"/>
<path d="M4426 7594 c-174 -42 -299 -174 -353 -375 -16 -59 -18 -182 -23
-1589 -6 -1712 1 -1559 -83 -1730 -51 -104 -152 -215 -241 -265 -115 -64 -120
-65 -842 -65 -396 0 -672 4 -704 10 -198 38 -365 206 -440 445 -16 52 -24 112
-30 235 -12 231 -41 311 -134 365 -89 52 -137 55 -887 55 l-689 0 0 -260 c0
-276 9 -399 41 -545 69 -324 215 -592 448 -826 225 -224 462 -354 771 -422 94
-21 117 -21 1545 -25 1006 -2 1483 0 1558 8 335 34 633 173 886 415 244 233
415 554 483 906 l22 114 3 1783 4 1782 -638 -1 c-515 -1 -649 -3 -697 -15z"/>
<path d="M8905 7596 c-103 -33 -216 -111 -276 -191 -35 -47 -2699 -4496 -2740
-4577 -44 -86 -30 -170 33 -205 31 -17 77 -18 688 -21 448 -2 671 1 707 8 92
20 191 76 268 154 63 64 160 216 965 1516 491 795 913 1475 937 1511 71 109
151 148 238 115 24 -10 59 -34 77 -54 37 -41 738 -1167 768 -1234 24 -52 25
-86 4 -116 -33 -47 -26 -47 -644 -52 -575 -5 -586 -5 -644 -27 -33 -13 -84
-37 -114 -55 -99 -61 -140 -113 -297 -385 -82 -141 -155 -275 -163 -297 -8
-23 -15 -64 -16 -93 -1 -62 21 -98 80 -128 38 -20 64 -20 1224 -25 1367 -6
1237 5 1350 -109 49 -49 102 -125 205 -291 148 -240 198 -300 302 -363 125
-76 83 -72 808 -75 358 -2 670 0 694 3 32 5 54 16 78 40 28 28 33 40 33 82 0
26 -9 67 -19 90 -15 33 -972 1637 -2665 4467 -87 146 -168 227 -283 283 l-78
38 -740 2 c-578 1 -749 -1 -780 -11z"/>
<path d="M19090 1363 c-177 -23 -316 -96 -375 -197 -31 -53 -47 -149 -34 -207
28 -124 118 -192 433 -324 300 -127 326 -143 326 -209 0 -46 -39 -117 -79
-143 -52 -35 -107 -46 -207 -41 -69 4 -104 11 -147 31 -61 28 -82 53 -92 110
l-7 37 -120 0 -119 0 7 -62 c17 -163 121 -269 311 -314 86 -21 287 -24 363 -5
133 33 257 135 301 248 29 76 33 212 6 260 -47 88 -132 140 -400 248 -312 125
-337 142 -337 226 0 44 4 55 30 79 43 40 114 54 246 48 85 -4 118 -9 150 -26
57 -29 94 -75 94 -118 l0 -34 121 0 122 0 -6 58 c-2 32 -15 78 -27 102 -47 92
-171 181 -300 215 -59 16 -202 26 -260 18z"/>
<path d="M320 670 l0 -670 110 0 110 0 2 442 3 441 235 -386 c129 -212 238
-382 242 -379 4 4 109 174 233 377 125 204 231 374 236 379 5 6 9 -161 9 -432
l0 -442 110 0 110 0 0 670 0 670 -103 0 -102 0 -245 -410 c-134 -226 -247
-410 -251 -410 -4 0 -116 184 -250 410 l-244 409 -102 1 -103 0 0 -670z"/>
<path d="M4652 1320 c-210 -55 -353 -204 -409 -425 -26 -105 -24 -353 5 -456
59 -219 199 -359 412 -416 102 -27 294 -24 390 6 130 40 212 93 291 188 97
116 142 261 142 458 1 216 -54 365 -178 490 -124 125 -257 175 -460 174 -85 0
-142 -6 -193 -19z m383 -234 c126 -62 204 -177 227 -333 46 -318 -178 -573
-469 -532 -212 30 -336 173 -350 405 -20 319 146 512 430 500 77 -3 97 -8 162
-40z"/>
<path d="M7872 1238 l3 -103 228 -3 227 -2 0 -565 0 -565 110 0 110 0 2 563 3
562 228 3 227 2 0 105 0 105 -570 0 -571 0 3 -102z"/>
<path d="M11882 1320 c-210 -55 -351 -202 -408 -425 -27 -104 -25 -351 4 -456
28 -106 72 -187 136 -256 113 -121 252 -175 456 -177 137 -1 198 10 298 55
160 72 274 212 324 398 28 103 30 315 4 416 -31 119 -82 212 -161 290 -125
125 -257 175 -460 174 -85 0 -142 -6 -193 -19z m383 -234 c123 -61 201 -171
226 -319 54 -325 -171 -587 -468 -546 -124 18 -211 69 -274 162 -58 88 -74
150 -74 292 1 174 34 266 130 354 80 73 168 102 298 97 78 -3 97 -8 162 -40z"/>
<path d="M15180 671 l0 -671 110 0 110 0 0 250 0 250 93 -1 92 0 194 -250 194
-249 128 0 c71 0 129 3 129 6 0 3 -88 117 -195 254 l-195 249 43 12 c231 62
359 298 287 531 -37 119 -105 198 -220 252 l-65 31 -352 3 -353 3 0 -670z
m677 432 c121 -65 146 -221 49 -317 -59 -59 -92 -66 -315 -66 l-191 0 0 206 0
205 208 -3 c192 -3 210 -5 249 -25z"/>
</g>
</svg>
