<?xml version="1.0" standalone="no"?>
<!DOCTYPE svg PUBLIC "-//W3C//DTD SVG 20010904//EN"
 "http://www.w3.org/TR/2001/REC-SVG-20010904/DTD/svg10.dtd">
<svg version="1.0" xmlns="http://www.w3.org/2000/svg"
 width="1299.000000pt" height="2000.000000pt" viewBox="0 0 1299.000000 2000.000000"
 preserveAspectRatio="xMidYMid meet">

<g transform="translate(0.000000,2000.000000) scale(0.100000,-0.100000)"
fill="#000000" stroke="none">
<path d="M9646 16258 c-1748 -2053 -3182 -3734 -3186 -3736 -5 -2 -1450 1664
-3211 3702 -1762 2037 -3205 3703 -3207 3702 -1 -2 -7 -1641 -12 -3642 -6
-2001 -14 -5123 -20 -6937 -11 -3612 -14 -3370 46 -3505 88 -199 261 -256 504
-166 l69 26 2892 3374 c1591 1856 2897 3373 2903 3371 11 -3 283 -319 3863
-4489 l1962 -2285 63 -16 c102 -25 161 -29 229 -17 160 29 279 146 323 316 9
39 10 477 5 2054 -4 1103 -13 3607 -19 5565 -7 1958 -15 4202 -19 4988 l-6
1428 -3179 -3733z"/>
<path d="M6331 10875 c-95 -27 -207 -94 -299 -180 -65 -61 -598 -720 -2241
-2775 l-2155 -2695 -14 -75 c-18 -101 -11 -238 17 -312 27 -71 86 -132 159
-166 l57 -27 4585 0 4585 0 67 32 c191 90 286 282 257 516 -22 175 165 -70
-2108 2772 -1135 1419 -2086 2600 -2113 2625 -136 121 -298 221 -438 271 -84
29 -276 37 -359 14z"/>
<path d="M4440 3790 l-395 -5 -3 -1880 c-1 -1034 0 -1884 2 -1890 2 -7 191 -9
547 -7 l544 2 -3 953 c-2 811 0 948 11 927 8 -14 198 -431 422 -927 224 -497
413 -909 419 -917 9 -12 82 -16 430 -23 398 -8 418 -7 428 10 5 10 201 433
434 940 234 507 429 926 433 930 8 8 21 -827 21 -1402 0 -196 3 -386 6 -423
l7 -67 538 -1 538 0 -5 1847 c-3 1017 -7 1854 -10 1861 -4 14 -719 17 -1166 5
l-246 -6 -484 -974 c-265 -535 -486 -973 -489 -973 -3 0 -225 457 -494 1015
l-488 1015 -301 -2 c-166 -2 -479 -5 -696 -8z"/>
<path d="M9627 3685 c-114 -57 -170 -99 -255 -190 -106 -114 -183 -277 -218
-463 -12 -63 -16 -280 -21 -1198 l-6 -1120 28 -85 c111 -340 314 -545 601
-609 86 -19 132 -20 1271 -20 1019 0 1192 2 1255 15 223 47 393 140 507 277
68 82 144 238 176 362 25 97 25 104 25 477 l0 379 -157 0 c-87 0 -316 -3 -510
-7 l-351 -6 1 -234 2 -235 -25 -20 c-27 -22 11 -22 -1348 -2 -413 6 -414 6
-440 29 l-27 23 0 805 c0 777 1 806 19 826 10 11 33 25 50 29 17 4 414 5 882
2 784 -5 853 -7 878 -23 l26 -17 0 -220 0 -220 489 0 488 0 8 498 7 499 -32
64 c-104 207 -239 342 -401 401 l-64 23 -1385 2 -1385 3 -88 -45z"/>
<path d="M2727 2370 c3 -740 3 -1358 -1 -1373 -3 -15 -15 -36 -26 -47 -20 -20
-37 -20 -807 -20 -773 0 -789 0 -821 20 -56 35 -62 63 -62 313 l0 224 -52 7
c-29 3 -239 6 -465 6 l-413 0 0 -535 0 -535 25 -66 c64 -171 161 -260 306
-283 40 -6 575 -12 1409 -14 1074 -3 1357 -2 1406 9 185 38 318 168 389 379
46 136 45 108 45 1728 l0 1532 -470 0 -470 0 7 -1345z"/>
</g>
</svg>
