<svg aria-label="Logo de Maxus" class="svg-largo" fill="none" height="30" viewBox="0 0 180 30" xmlns="http://www.w3.org/2000/svg">
						&gt;
						<path d="M24.2992 0C10.8794 0 0 6.28326 0 14.7882C0 23.2931 10.8794 30 24.2992 30C37.719 30 48.5984 23.0714 48.5984 14.7882C48.5984 6.50493 37.719 0 24.2992 0ZM24.2992 8.91871C24.4222 8.91871 24.5427 8.95566 24.6459 9.02463C28.1724 11.4064 30.4791 13.4458 31.7923 14.7389C31.8612 14.8079 31.871 14.8892 31.8686 14.931C31.8686 14.9729 31.8538 15.0517 31.78 15.1158C30.4939 16.2438 28.2142 17.9901 24.6705 19.9187C24.5574 19.9803 24.4271 20.0148 24.2968 20.0148C24.1664 20.0148 24.0385 19.9827 23.923 19.9187C20.3768 17.9901 18.0996 16.2414 16.811 15.1158C16.7372 15.0517 16.7249 14.9704 16.7225 14.931C16.7225 14.8892 16.7298 14.8079 16.7987 14.7389C18.1119 13.4483 20.4186 11.4064 23.9451 9.02463C24.0484 8.95566 24.1689 8.91871 24.2918 8.91871M3.39859 14.8719C3.39859 13.1527 3.93469 11.5074 4.98968 9.98276C6.02008 8.49508 7.51035 7.16502 9.41867 6.03201C13.314 3.71921 18.5841 2.44582 24.2648 2.44089L23.982 2.66258C21.0531 4.94829 14.7649 10.3079 5.543 20.5197C4.12159 18.7562 3.40106 16.8547 3.40106 14.8719M40.3134 23.0837C36.3295 25.9951 30.4914 27.665 24.2918 27.665C18.0922 27.665 12.2541 25.9951 8.27024 23.0837C8.26532 23.0837 8.25548 23.0739 8.25548 23.0542C8.25548 23.0394 8.25548 23.0271 8.26778 23.0172C9.35228 21.8005 11.509 19.4803 13.7764 17.633C13.828 17.5911 13.8944 17.5665 13.9633 17.5665C14.0174 17.5665 14.069 17.5813 14.1157 17.6084C15.392 18.3571 16.3364 18.9606 17.3372 19.601C18.9185 20.6108 20.5514 21.6527 23.5639 23.2955C23.7877 23.4162 24.041 23.4827 24.2968 23.4827C24.5525 23.4827 24.8058 23.4187 25.0296 23.2955C28.0421 21.6527 29.675 20.6108 31.2562 19.601C32.2571 18.9606 33.2014 18.3571 34.4778 17.6084C34.5245 17.5813 34.5761 17.5665 34.6302 17.5665C34.6991 17.5665 34.7655 17.5887 34.8171 17.633C37.0845 19.4827 39.2412 21.8005 40.3257 23.0172C40.3355 23.0271 40.338 23.0394 40.338 23.0542C40.338 23.0714 40.3257 23.0813 40.3232 23.0837M43.0529 20.5197C33.831 10.3054 27.5429 4.94829 24.614 2.66258L24.3312 2.44089C30.0094 2.44582 35.2819 3.71921 39.1773 6.03201C41.0856 7.16502 42.5758 8.49261 43.6062 9.98276C44.6612 11.5074 45.1974 13.1527 45.1974 14.8719C45.1974 16.8571 44.4768 18.7562 43.0554 20.5197" fill="black"></path>
<path d="M115.928 20.6626L121.511 15.6355L127.1 20.6626H132.432L125.374 14.4114L132.26 8.76849H127.1L121.511 13.1922L115.928 8.76849H110.747L117.642 14.4114L110.609 20.6626H115.928Z" fill="black"></path>
<path d="M80.8186 8.79559H73.8493C72.8386 8.79559 71.9312 9.29066 71.4221 10.0247C70.918 9.29066 70.0204 8.79559 68.9801 8.79559H59.1606V20.6897H63.6855V11.9631C63.6855 11.5419 64.0544 11.1971 64.5388 11.1971H68.5326C69.0047 11.1971 69.381 11.5394 69.381 11.9631V20.6897H73.4485V11.9631C73.4485 11.5419 73.837 11.1971 74.2969 11.1971H78.2906C78.7775 11.1971 79.1587 11.5394 79.1587 11.9631V20.6897H83.659V11.3793C83.659 9.95815 82.3876 8.79559 80.8186 8.79559Z" fill="black"></path>
<path d="M151.173 17.5173C151.173 17.9606 150.795 18.3104 150.313 18.3104H140.535C140.051 18.3104 139.66 17.9606 139.66 17.5173V8.79559H134.685V18.1183C134.685 19.537 135.978 20.6897 137.542 20.6897H153.303C154.867 20.6897 156.158 19.537 156.158 18.1183V8.79559H151.173V17.5173Z" fill="black"></path>
<path d="M165.115 11.2193H180V8.79559H161.891C160.317 8.79559 159.045 9.95815 159.045 11.3793V13.0838C159.045 14.505 160.319 15.6651 161.891 15.6651H173.827C174.45 15.6651 174.969 16.1207 174.969 16.702V16.9656C174.969 17.5419 174.45 18.005 173.827 18.005H158.851V20.4188H177.029C178.603 20.4188 179.894 19.2611 179.894 17.8202V15.8326C179.894 14.4089 178.603 13.2439 177.029 13.2439H165.112C164.468 13.2439 163.961 12.7882 163.961 12.2291C163.961 11.6725 164.468 11.2168 165.112 11.2168" fill="black"></path>
<path d="M103.35 20.6232H108.421V11.3178C108.421 9.89413 107.152 8.72174 105.573 8.72174H89.6201C88.0339 8.72174 86.7748 9.89413 86.7748 11.3178V20.6232H91.8309V16.0148H103.35V20.6232ZM91.8309 13.6503V11.9656C91.8309 11.5444 92.2342 11.1996 92.7063 11.1996H102.494C102.978 11.1996 103.35 11.5419 103.35 11.9656V13.6503H91.8309Z" fill="black"></path>
</svg>