<svg width="24" height="29" viewBox="0 0 24 29" fill="none" xmlns="http://www.w3.org/2000/svg">
<path d="M9.06016 7.38696C8.39016 7.38696 7.83016 7.84696 7.68016 8.46696C7.63016 8.63696 7.77016 8.81696 7.95016 8.81696H8.39016C8.35383 8.6818 8.34906 8.54009 8.37622 8.40279C8.40338 8.26549 8.46174 8.13628 8.54679 8.02513C8.63185 7.91397 8.74132 7.82387 8.86675 7.76176C8.99217 7.69966 9.1302 7.66722 9.27016 7.66696C9.78016 7.66696 10.1802 8.07696 10.1802 8.57696C10.1802 8.65696 10.1702 8.73696 10.1502 8.81696H10.2302C10.3802 8.81696 10.4902 8.68696 10.4602 8.53696C10.3302 7.87696 9.75016 7.38696 9.06016 7.38696ZM13.9502 7.38696C14.6202 7.38696 15.1802 7.84696 15.3302 8.46696C15.3702 8.64696 15.2402 8.81696 15.0602 8.81696H14.6202C14.6402 8.73696 14.6502 8.65696 14.6502 8.57696C14.6502 8.07696 14.2402 7.66696 13.7402 7.66696C13.6203 7.66562 13.5014 7.68825 13.3903 7.7335C13.2793 7.77876 13.1785 7.84574 13.0937 7.93051C13.0089 8.01528 12.942 8.11613 12.8967 8.22714C12.8514 8.33815 12.8288 8.45709 12.8302 8.57696C12.8302 8.65696 12.8402 8.73696 12.8602 8.81696H12.7802C12.7453 8.8178 12.7106 8.81068 12.6789 8.79613C12.6471 8.78159 12.6191 8.76 12.5969 8.73302C12.5748 8.70603 12.559 8.67436 12.5509 8.64039C12.5428 8.60642 12.5426 8.57105 12.5502 8.53696C12.6802 7.87696 13.2502 7.38696 13.9502 7.38696Z" fill="#131211"/>
<path d="M9.2702 8.04694C9.35987 8.04601 9.44823 8.06846 9.52658 8.11209C9.60493 8.15572 9.67055 8.21901 9.71699 8.29572C9.76342 8.37244 9.78906 8.45993 9.79138 8.54958C9.79369 8.63922 9.77261 8.72792 9.7302 8.80694H8.8102C8.76826 8.72735 8.74769 8.63824 8.7505 8.54833C8.7533 8.45841 8.77938 8.37076 8.8262 8.29394C8.83861 8.31316 8.85499 8.32949 8.87425 8.34184C8.89351 8.3542 8.91519 8.36227 8.93783 8.36553C8.96048 8.36879 8.98356 8.36715 9.00551 8.36074C9.02747 8.35432 9.0478 8.34326 9.06512 8.32832C9.08245 8.31338 9.09637 8.2949 9.10594 8.27412C9.11551 8.25334 9.12052 8.23075 9.12062 8.20787C9.12072 8.185 9.11592 8.16236 9.10653 8.1415C9.09714 8.12064 9.08339 8.10203 9.0662 8.08694C9.13065 8.05946 9.20015 8.04583 9.2702 8.04694ZM13.7402 8.04694C13.6752 8.04614 13.6107 8.05803 13.5502 8.08194C13.5687 8.09701 13.5836 8.11601 13.5937 8.13757C13.6039 8.15912 13.6092 8.18268 13.6091 8.20653C13.609 8.23037 13.6036 8.25389 13.5932 8.27537C13.5829 8.29685 13.5679 8.31574 13.5493 8.33067C13.5307 8.34561 13.509 8.35619 13.4858 8.36167C13.4626 8.36714 13.4385 8.36735 13.4152 8.3623C13.3919 8.35724 13.37 8.34705 13.3511 8.33245C13.3323 8.31785 13.3169 8.29923 13.3062 8.27794C13.2549 8.3557 13.2254 8.44582 13.2208 8.53888C13.2162 8.63194 13.2367 8.72452 13.2802 8.80694H14.2002C14.2402 8.73694 14.2602 8.65694 14.2602 8.56694C14.2602 8.27694 14.0302 8.04694 13.7402 8.04694ZM11.1902 8.49694L10.6602 10.2069C10.5502 10.5569 10.8102 10.9169 11.1802 10.9169H11.9602C12.3302 10.9169 12.5902 10.5569 12.4802 10.2069L11.9502 8.49694C11.8402 8.11694 11.3102 8.11694 11.1902 8.49694ZM10.0202 11.5069C10.4502 11.7369 10.9602 11.8669 11.5002 11.8669C12.0502 11.8669 12.5502 11.7369 12.9802 11.5069C13.1202 11.4369 13.2802 11.5969 13.1902 11.7369C12.8302 12.2869 12.2102 12.6569 11.5002 12.6569C10.7902 12.6569 10.1702 12.2869 9.8102 11.7369C9.7202 11.5969 9.8702 11.4269 10.0202 11.5069Z" fill="#131211"/>
<path d="M16.2801 1.245C15.3701 0.355 13.9901 0 12.5501 0H10.4401C9.00011 0 7.62011 0.354 6.71011 1.245C6.01011 1.929 5.63011 3.183 5.91011 4.593L5.97811 4.585C5.84611 4.697 5.71544 4.81467 5.58611 4.938L5.25211 5.255L5.73711 5.858L5.75011 6.402C5.75211 6.482 5.75578 6.562 5.76111 6.642L5.77611 6.856C5.38884 7.0412 5.06622 7.33859 4.85017 7.70953C4.63411 8.08047 4.53461 8.50782 4.56459 8.93605C4.59457 9.36427 4.75264 9.77359 5.01827 10.1108C5.2839 10.448 5.64481 10.6976 6.05411 10.827L6.15111 12.222L6.15211 12.235C6.19711 12.694 6.31511 13.123 6.49311 13.513C6.60044 13.7477 6.72878 13.9667 6.87811 14.17L6.52011 14.315C4.56107 15.2469 2.90768 16.717 1.75314 18.5537C0.598591 20.3903 -0.00943257 22.5176 0.000110636 24.687V28.187C0.000110636 28.3196 0.0527892 28.4468 0.146557 28.5406C0.240326 28.6343 0.367502 28.687 0.500111 28.687H22.4901C22.5354 28.687 22.5801 28.6803 22.6241 28.667H22.6301C22.9935 28.667 23.3419 28.5227 23.5988 28.2657C23.8558 28.0088 24.0001 27.6603 24.0001 27.297V23.785C24.0013 23.7298 23.998 23.6746 23.9901 23.62V21.765C23.9895 21.5288 23.9332 21.2961 23.8259 21.0857C23.7185 20.8753 23.5631 20.6931 23.3722 20.5541C23.1813 20.415 22.9603 20.3228 22.7271 20.2851C22.4939 20.2474 22.2551 20.2652 22.0301 20.337V19.253C22.0301 19.153 22.0901 19.053 22.1801 19.003C22.9701 18.583 23.5001 17.753 23.5001 16.803C23.4901 15.873 22.9601 15.043 22.1801 14.623C21.9901 14.523 21.7501 14.653 21.7501 14.873V16.423C21.7501 16.843 21.4101 17.193 20.9901 17.183C20.7943 17.1791 20.6079 17.0981 20.4712 16.9578C20.3346 16.8174 20.2588 16.6289 20.2601 16.433V14.873C20.2601 14.653 20.0201 14.513 19.8301 14.613C19.4668 14.8075 19.1577 15.0895 18.9307 15.4334C18.7038 15.7774 18.5661 16.1725 18.5301 16.583V17.032C18.6091 17.897 19.1401 18.64 19.8801 19.023C19.9701 19.073 20.0301 19.173 20.0301 19.273V22.417H19.3301C19.2872 22.4172 19.2445 22.4229 19.2031 22.434C18.9574 22.4592 18.724 22.5539 18.5301 22.707V19.254C18.1288 18.8509 17.8327 18.3554 17.6679 17.811C17.5031 17.2666 17.4747 16.69 17.5851 16.132L17.5931 16.138C17.6594 15.7998 17.7754 15.4733 17.9371 15.169C17.4684 14.8483 16.9794 14.563 16.4701 14.313L16.4831 14.295C16.3523 14.2542 16.2194 14.2202 16.0851 14.193C16.5067 13.6203 16.7636 12.9432 16.8281 12.235V12.222L16.9261 10.831C17.3381 10.7032 17.7019 10.4539 17.9698 10.1158C18.2376 9.77765 18.397 9.36646 18.4271 8.93613C18.4571 8.50581 18.3564 8.07644 18.1382 7.70435C17.92 7.33226 17.5944 7.0348 17.2041 6.851L17.2191 6.641C17.2244 6.567 17.2281 6.493 17.2301 6.419L17.2451 5.917L17.7781 5.255L17.4441 4.938C17.3185 4.81863 17.1894 4.70292 17.0571 4.591L17.0801 4.593C17.3601 3.191 16.9801 1.929 16.2801 1.245ZM16.1821 7.138L15.8321 12.145C15.6831 13.643 14.5131 14.687 13.1001 14.687H9.88011C9.39591 14.6898 8.91986 14.5623 8.50184 14.318C8.08382 14.0736 7.73921 13.7213 7.50411 13.298C7.30727 12.9423 7.18606 12.5498 7.14811 12.145L6.79811 7.137C7.09711 7.164 7.40611 7.107 7.68511 6.958L7.69611 6.952C7.79697 7.04747 7.93126 7.09953 8.07011 7.097C8.18011 7.097 8.30011 7.067 8.40011 6.997C8.42011 6.977 8.92011 6.607 9.67011 6.707C9.75112 6.71663 9.83325 6.70812 9.91056 6.68208C9.98787 6.65605 10.0584 6.61314 10.1171 6.55647C10.1758 6.4998 10.2211 6.43079 10.2498 6.35443C10.2785 6.27808 10.2899 6.19629 10.2831 6.115C11.0901 5.99683 11.9101 5.99683 12.7171 6.115C12.7103 6.19629 12.7217 6.27808 12.7504 6.35443C12.7791 6.43079 12.8244 6.4998 12.8831 6.55647C12.9418 6.61314 13.0124 6.65605 13.0897 6.68208C13.167 6.70812 13.2491 6.71663 13.3301 6.707C14.0491 6.62 14.5401 6.957 14.5961 6.994L14.6001 6.997C14.7001 7.067 14.8101 7.107 14.9301 7.107C15.0711 7.10346 15.2064 7.05035 15.3121 6.957C15.5861 7.106 15.8891 7.163 16.1821 7.138ZM17.0071 9.673L17.1231 8.009C17.2303 8.12317 17.3128 8.25825 17.3653 8.40578C17.4178 8.55331 17.4393 8.7101 17.4285 8.86633C17.4176 9.02256 17.3745 9.17485 17.302 9.31366C17.2295 9.45247 17.1291 9.57481 17.0071 9.673ZM5.97211 9.665C5.85332 9.56658 5.75575 9.44508 5.68529 9.30784C5.61484 9.17061 5.57296 9.02051 5.56221 8.86662C5.55146 8.71273 5.57205 8.55827 5.62274 8.41257C5.67343 8.26688 5.75316 8.13298 5.85711 8.019L5.97211 9.665ZM13.9301 15.596C14.3121 15.51 14.6721 15.366 15.0001 15.172V19.267C14.9988 19.2863 14.9961 19.2983 14.9921 19.303C14.9855 19.3108 14.9778 19.3175 14.9691 19.323C14.9595 19.3269 14.9494 19.3292 14.9391 19.33L14.9191 19.325L12.4351 17.18C12.7847 17.041 13.0997 16.8271 13.358 16.5535C13.6162 16.2799 13.8115 15.9531 13.9301 15.596ZM12.5281 15.687H12.7781C12.6344 15.8933 12.443 16.0618 12.2201 16.1781C11.9972 16.2945 11.7495 16.3553 11.4981 16.3553C11.2467 16.3553 10.999 16.2945 10.7761 16.1781C10.5533 16.0618 10.3618 15.8933 10.2181 15.687H12.5281ZM8.00011 15.184C8.32811 15.375 8.68711 15.517 9.06811 15.6C9.18588 15.9572 9.38089 16.284 9.63928 16.5572C9.89767 16.8305 10.2131 17.0435 10.5631 17.181L8.08011 19.325L8.06111 19.33C8.05081 19.3292 8.04069 19.3269 8.03111 19.323C8.02247 19.3175 8.01471 19.3108 8.00811 19.303C8.00324 19.2916 8.00052 19.2794 8.00011 19.267V15.184ZM8.03111 4.444C9.12221 3.93632 10.3111 3.67319 11.5145 3.67301C12.7179 3.67284 13.9069 3.93563 14.9981 4.443C15.4991 4.679 15.9611 4.974 16.4141 5.356L16.3001 5.496L16.2981 5.5C16.224 5.59215 16.1197 5.65507 16.0036 5.67759C15.8876 5.70011 15.7673 5.68077 15.6641 5.623H15.6621C14.392 4.92907 12.9674 4.56688 11.5201 4.57C10.0729 4.56658 8.64827 4.92841 7.37811 5.622L7.37611 5.624C7.27007 5.6817 7.14715 5.70039 7.02876 5.67682C6.91036 5.65324 6.80397 5.58891 6.72811 5.495L6.61611 5.355C7.04178 4.98696 7.5171 4.68062 8.02811 4.445L8.03111 4.444ZM16.4601 15.432V20.777C16.4601 21.007 16.2801 21.187 16.0501 21.187H6.98011C6.75011 21.187 6.57011 21.007 6.57011 20.777V15.409C6.71144 15.3343 6.85478 15.263 7.00011 15.195V19.267C7.00011 20.134 7.96811 20.627 8.66811 20.137L8.68811 20.122L11.4121 17.769C11.4366 17.748 11.4678 17.7364 11.5001 17.7364C11.5324 17.7364 11.5636 17.748 11.5881 17.769L14.3121 20.122L14.3321 20.136C15.0321 20.628 16.0001 20.134 16.0001 19.267V15.199C16.1554 15.2723 16.3088 15.35 16.4601 15.432ZM4.50011 16.844V27.687H1.00011V24.687C0.993932 23.2063 1.30282 21.7411 1.90625 20.3889C2.50969 19.0367 3.39388 17.8283 4.50011 16.844ZM22.9901 22.374H22.0301V21.571C22.0682 21.4804 22.1322 21.4031 22.214 21.3487C22.2958 21.2943 22.3919 21.2652 22.4901 21.265C22.7641 21.265 22.9901 21.491 22.9901 21.765V22.374ZM19.3301 27.667C19.1751 27.667 19.0661 27.549 19.0601 27.431C19.0592 27.3863 19.0694 27.342 19.0898 27.3022C19.1103 27.2624 19.1402 27.2283 19.1771 27.203C19.2468 27.1566 19.3036 27.0934 19.3425 27.0192C19.3814 26.9451 19.401 26.8624 19.3997 26.7787C19.3983 26.695 19.3759 26.613 19.3345 26.5402C19.2932 26.4674 19.2343 26.4061 19.1631 26.362C19.1303 26.3414 19.1035 26.3126 19.0854 26.2783C19.0673 26.2441 19.0586 26.2057 19.0601 26.167C19.0601 26.089 19.1041 26.011 19.1731 25.967C19.2438 25.9211 19.3018 25.858 19.3416 25.7836C19.3814 25.7093 19.4018 25.6261 19.4008 25.5417C19.3998 25.4574 19.3774 25.3747 19.3359 25.3013C19.2943 25.2279 19.2349 25.1662 19.1631 25.122C19.1303 25.1014 19.1035 25.0726 19.0854 25.0383C19.0673 25.0041 19.0586 24.9657 19.0601 24.927C19.0601 24.849 19.1041 24.771 19.1731 24.727C19.2427 24.6818 19.2999 24.6201 19.3396 24.5473C19.3793 24.4745 19.4004 24.393 19.4008 24.3101C19.4011 24.2272 19.3809 24.1454 19.3419 24.0723C19.3028 23.9991 19.2462 23.9368 19.1771 23.891C19.1408 23.8682 19.111 23.8365 19.0905 23.7988C19.07 23.7611 19.0595 23.7189 19.0601 23.676V23.669C19.0631 23.549 19.1731 23.427 19.3301 23.427C19.3637 23.427 19.3972 23.4237 19.4301 23.417H22.6301C22.8101 23.417 22.9601 23.545 22.9931 23.715L23.0001 23.789V27.297C23.0001 27.3951 22.9611 27.4892 22.8917 27.5586C22.8224 27.628 22.7282 27.667 22.6301 27.667H19.3301ZM10.2001 23.927C10.2001 24.647 9.63011 25.217 8.91011 25.217H7.46011C6.75011 25.217 6.17011 24.637 6.17011 23.927C6.17011 23.217 6.75011 22.637 7.46011 22.637H8.91011C9.62011 22.637 10.2001 23.217 10.2001 23.927Z" fill="#131211"/>
</svg>
