<?xml version="1.0" standalone="no"?>
<!DOCTYPE svg PUBLIC "-//W3C//DTD SVG 20010904//EN"
 "http://www.w3.org/TR/2001/REC-SVG-20010904/DTD/svg10.dtd">
<svg version="1.0" xmlns="http://www.w3.org/2000/svg"
 width="2000.000000pt" height="879.000000pt" viewBox="0 0 2000.000000 879.000000"
 preserveAspectRatio="xMidYMid meet">

<g transform="translate(0.000000,879.000000) scale(0.100000,-0.100000)"
fill="#000000" stroke="none">
<path d="M9760 8784 c-632 -45 -1153 -178 -1675 -428 -480 -230 -959 -582
-1308 -961 -179 -195 -386 -458 -476 -607 l-23 -38 -3136 0 -3137 0 320 -320
320 -320 2642 0 c1719 0 2643 -3 2643 -10 0 -5 -17 -54 -39 -107 -51 -129
-133 -384 -162 -505 l-23 -98 -2168 0 c-1192 0 -2168 -3 -2168 -7 0 -5 141
-149 312 -320 l313 -313 1802 0 1802 0 -2 -272 c-1 -150 0 -311 2 -358 l4 -85
-1444 -3 -1444 -2 320 -320 320 -320 1176 0 1177 0 22 -93 c30 -123 122 -406
171 -525 21 -53 39 -97 39 -99 0 -2 -420 -3 -932 -3 l-933 0 320 -320 320
-320 782 0 782 0 50 -73 c1053 -1562 2935 -2280 4756 -1815 594 151 1163 437
1650 829 335 269 644 603 868 936 l82 122 803 1 803 0 313 318 314 317 -945 3
c-749 2 -944 5 -940 15 79 191 155 417 202 600 l28 107 1191 0 1191 0 320 320
320 320 -1463 0 -1463 0 8 48 c10 60 10 585 0 635 l-8 37 1823 0 1823 0 320
320 320 320 -2190 0 -2190 0 -29 113 c-33 129 -131 428 -175 535 l-30 72 2667
0 2667 0 313 313 c171 171 312 315 312 320 0 4 -1417 7 -3148 7 l-3149 0 -58
88 c-261 392 -627 779 -1011 1067 -643 483 -1384 774 -2194 860 -141 15 -559
27 -670 19z m647 -669 c876 -102 1652 -477 2262 -1094 596 -603 954 -1354
1063 -2231 20 -163 17 -670 -5 -845 -91 -714 -358 -1349 -801 -1905 -128 -160
-416 -448 -576 -576 -233 -185 -454 -324 -723 -454 -395 -190 -755 -295 -1217
-352 -166 -21 -691 -17 -860 5 -739 100 -1379 375 -1935 832 -285 234 -527
504 -740 825 -338 508 -535 1057 -606 1690 -20 173 -17 621 5 800 86 715 355
1359 801 1922 120 151 370 405 528 536 612 509 1345 803 2147 861 160 12 493
5 657 -14z"/>
<path d="M6990 4390 l0 -990 208 2 207 3 5 719 5 719 204 -674 c113 -371 211
-695 219 -721 l14 -48 218 0 219 0 16 53 c8 28 107 354 219 722 l205 670 3
-720 3 -720 210 0 210 0 3 988 2 987 -292 0 -293 0 -130 -398 c-71 -218 -184
-563 -251 -767 l-121 -370 -254 768 -254 767 -287 0 -288 0 0 -990z"/>
<path d="M9620 4390 l0 -990 198 2 197 3 3 988 2 987 -200 0 -200 0 0 -990z"/>
<path d="M10490 4390 l0 -990 193 2 192 3 5 685 5 685 383 -677 c211 -372 389
-683 395 -692 11 -14 39 -15 245 -9 l232 6 0 989 0 988 -195 0 -195 0 -1 -627
c-1 -346 -4 -667 -8 -714 l-6 -87 -390 714 -390 713 -232 1 -233 0 0 -990z"/>
<path d="M12600 4390 l0 -990 198 2 197 3 3 988 2 987 -200 0 -200 0 0 -990z"/>
</g>
</svg>
