<?xml version="1.0" standalone="no"?>
<!DOCTYPE svg PUBLIC "-//W3C//DTD SVG 20010904//EN"
 "http://www.w3.org/TR/2001/REC-SVG-20010904/DTD/svg10.dtd">
<svg version="1.0" xmlns="http://www.w3.org/2000/svg"
 width="2000.000000pt" height="1409.000000pt" viewBox="0 0 2000.000000 1409.000000"
 preserveAspectRatio="xMidYMid meet">

<g transform="translate(0.000000,1409.000000) scale(0.100000,-0.100000)"
fill="#000000" stroke="none">
<path d="M9035 14064 c-331 -63 -575 -144 -859 -286 -152 -76 -210 -119 -274
-205 -28 -37 -60 -74 -71 -80 -11 -7 -80 -35 -153 -62 -305 -112 -494 -199
-547 -251 -58 -59 -39 -124 106 -359 139 -226 226 -332 303 -371 62 -31 215
-74 231 -65 5 4 18 24 29 45 11 21 36 52 57 69 104 85 415 165 516 132 73 -24
194 -195 198 -281 3 -54 -8 -76 -48 -95 -94 -45 -429 -88 -545 -71 -26 4 -63
18 -83 32 -20 13 -41 24 -47 24 -6 0 -26 -15 -44 -34 -19 -19 -61 -49 -94 -67
-69 -37 -84 -57 -76 -103 14 -72 191 -330 295 -429 73 -70 136 -100 211 -101
62 0 101 17 216 95 83 56 135 79 177 79 60 0 137 -77 137 -136 0 -17 -16 -57
-36 -90 -44 -74 -187 -263 -247 -328 -42 -44 -49 -48 -81 -43 -19 3 -304 144
-633 313 -663 341 -1075 545 -1201 593 -203 78 -422 107 -722 97 -237 -8 -366
-27 -446 -66 -71 -35 -264 -212 -340 -313 -128 -169 -134 -259 -30 -464 52
-105 69 -110 213 -67 101 30 261 38 324 16 71 -25 120 -98 134 -200 9 -65 25
-82 78 -82 69 -1 188 -26 247 -53 96 -43 297 -181 428 -295 62 -54 80 -93 48
-105 -8 -3 -90 -15 -183 -27 -746 -95 -1288 -260 -1414 -432 -88 -121 -227
-464 -237 -585 -8 -108 54 -245 167 -365 72 -76 87 -77 201 -12 224 127 425
178 510 128 32 -18 69 -60 111 -124 17 -27 17 -27 168 15 132 36 1030 44 1601
15 367 -19 538 -68 726 -208 69 -51 126 -98 332 -278 25 -21 33 -36 29 -48 -4
-9 -94 -166 -201 -349 -495 -848 -849 -1517 -920 -1736 -62 -191 -71 -273 -58
-506 7 -110 12 -252 12 -316 0 -165 -8 -173 -215 -222 -61 -14 -213 -42 -340
-62 -657 -103 -814 -161 -892 -331 -43 -95 -113 -530 -129 -799 -9 -156 -11
-153 142 -131 359 51 903 68 1449 47 348 -14 998 -47 1165 -60 85 -7 122 -6
140 2 30 15 30 12 11 317 -7 118 -13 294 -13 390 -2 191 10 245 69 334 24 37
1314 1475 1433 1599 44 44 63 57 86 57 32 0 31 1 230 -151 197 -150 1053 -772
1136 -826 130 -84 272 -129 453 -142 133 -10 154 -20 194 -90 45 -82 24 -189
-41 -210 -18 -5 -82 -19 -143 -31 -329 -64 -477 -104 -552 -147 -100 -58 -170
-175 -202 -338 -24 -119 -65 -419 -82 -598 -12 -124 -12 -129 8 -149 19 -18
25 -19 74 -9 103 22 307 41 563 52 350 16 824 0 1516 -50 135 -10 256 -15 270
-11 15 4 43 33 74 76 84 119 182 228 352 392 141 137 164 163 164 189 0 43
-67 233 -143 403 -340 764 -932 1790 -1381 2395 -72 98 -95 147 -96 203 0 64
18 90 137 195 114 100 370 358 464 467 197 229 272 447 248 728 -21 251 -122
506 -544 1382 -405 841 -452 949 -530 1225 -84 300 -90 452 -28 648 35 113 67
171 124 233 81 84 215 126 292 89 51 -24 64 -51 72 -146 14 -176 58 -355 136
-553 50 -126 111 -233 203 -356 203 -272 614 -587 715 -548 32 12 41 25 41 61
0 30 -261 1075 -337 1347 -101 364 -172 490 -349 616 -176 127 -448 199 -653
174 -282 -35 -505 -200 -686 -508 -28 -47 -57 -90 -66 -95 -20 -12 -62 15
-203 134 -193 162 -366 351 -422 461 -14 27 -34 84 -44 126 -32 128 -30 126
-366 256 -596 229 -903 323 -1292 395 -194 37 -255 37 -427 5z m357 -143 c318
-66 862 -226 1148 -338 152 -59 287 -131 311 -164 11 -15 30 -66 44 -114 48
-165 132 -310 273 -471 88 -100 287 -286 428 -399 103 -83 145 -128 175 -186
54 -106 126 -669 151 -1184 18 -364 -3 -475 -98 -531 -60 -35 -118 -51 -514
-144 -497 -117 -571 -140 -648 -205 -73 -61 -91 -171 -48 -289 44 -124 37
-114 551 -751 1011 -1252 1437 -1836 1915 -2625 347 -571 626 -1095 800 -1500
88 -206 89 -200 -26 -298 -79 -67 -206 -202 -284 -302 -28 -36 -63 -80 -78
-99 l-27 -33 -210 16 c-299 23 -632 36 -1080 44 l-390 7 -3 39 c-4 48 10 137
44 276 45 183 57 195 250 259 124 41 269 76 664 161 360 77 542 121 572 136
67 34 75 140 21 256 -68 144 -529 888 -834 1344 -1100 1648 -1984 2491 -3604
3436 -749 437 -2350 1281 -2565 1352 -233 77 -609 130 -840 119 -108 -5 -128
-4 -142 10 -28 29 5 123 61 169 43 36 178 53 431 53 296 0 457 -30 695 -130
61 -25 625 -306 1255 -624 1432 -722 1514 -762 1645 -797 132 -36 236 -4 309
95 124 169 429 823 490 1054 47 174 43 259 -15 406 -69 173 -294 507 -595 881
-231 288 -266 316 -439 356 -115 26 -380 24 -573 -5 -263 -40 -677 -159 -1039
-300 -73 -28 -143 -51 -156 -51 -28 0 -62 35 -109 110 -41 65 -59 115 -51 137
9 23 184 102 372 168 298 103 298 103 390 224 65 86 118 124 277 204 224 112
529 207 769 240 85 12 239 6 327 -12z m2828 -3296 c41 -93 122 -258 180 -365
186 -349 387 -757 415 -844 86 -265 -61 -465 -516 -696 -268 -136 -373 -150
-484 -65 -20 15 -172 187 -338 383 -166 195 -348 410 -405 476 -120 141 -146
195 -140 292 5 76 38 132 105 174 64 41 265 106 648 210 206 56 290 93 336
149 45 55 57 110 64 281 4 85 8 161 11 168 2 7 14 12 26 10 18 -2 36 -35 98
-173z m-4786 -992 c30 -32 104 -120 165 -195 l111 -138 -717 0 c-395 0 -823
-5 -952 -11 -219 -10 -236 -10 -247 6 -11 14 -11 23 1 45 29 57 173 168 278
215 80 36 174 47 907 109 151 13 303 24 338 25 l63 1 53 -57z m1474 -1063 c37
-23 111 -74 165 -112 l97 -70 -32 -43 c-370 -484 -600 -804 -867 -1205 -361
-540 -528 -827 -565 -975 -27 -103 -30 -227 -16 -540 14 -322 9 -372 -42 -431
-61 -69 -85 -76 -488 -149 -567 -103 -641 -121 -706 -170 -17 -13 -42 -40 -54
-59 -22 -37 -62 -185 -80 -301 -6 -38 -16 -75 -23 -81 -14 -13 -293 -38 -309
-28 -18 12 -2 149 37 319 39 172 70 253 113 298 31 33 99 70 157 86 57 15 357
71 730 136 344 60 380 71 422 134 20 30 23 46 23 135 0 56 -7 180 -15 276 -26
315 -17 455 38 600 62 163 293 649 427 901 232 432 634 1102 753 1253 70 88
125 95 235 26z"/>
<path d="M8465 13546 c-93 -24 -182 -50 -197 -56 -35 -16 -58 -66 -58 -124 0
-79 8 -79 275 20 231 86 235 87 246 121 6 19 8 45 5 59 -6 21 -12 24 -54 24
-26 -1 -123 -20 -217 -44z"/>
<path d="M9828 1789 c-549 -45 -983 -278 -1138 -610 -50 -108 -63 -178 -58
-314 7 -192 59 -311 198 -458 89 -94 163 -149 285 -210 228 -114 489 -175 825
-193 278 -15 772 46 1113 137 l37 10 -2 332 -3 332 -227 3 -228 2 0 -244 c0
-183 -3 -246 -12 -254 -26 -20 -207 -71 -310 -86 -213 -32 -478 -13 -653 47
-317 109 -495 331 -495 617 1 305 172 525 490 629 113 37 225 52 400 52 267 0
473 -38 808 -149 95 -32 175 -56 178 -53 2 2 4 64 4 137 0 121 -2 134 -19 144
-35 18 -298 79 -434 99 -238 37 -538 48 -759 30z"/>
<path d="M15710 1794 c-551 -40 -1000 -268 -1169 -593 -55 -107 -74 -185 -75
-311 -1 -128 13 -187 70 -306 111 -234 378 -416 744 -509 494 -125 1103 -83
1496 104 341 163 516 402 516 706 0 448 -411 790 -1072 889 -104 16 -404 28
-510 20z m305 -218 c296 -17 562 -166 674 -376 67 -125 90 -323 56 -468 -63
-267 -299 -458 -639 -517 -114 -19 -345 -20 -456 0 -335 59 -567 245 -635 510
-20 79 -20 250 1 334 61 246 270 426 574 496 73 17 259 34 310 29 14 -2 66 -5
115 -8z"/>
<path d="M0 906 l0 -846 235 0 235 0 2 258 3 257 380 6 c410 7 528 19 746 74
223 56 434 165 529 272 90 101 125 225 95 338 -62 236 -366 397 -875 461 -110
14 -249 18 -742 21 l-608 5 0 -846z m1198 629 c125 -20 255 -56 323 -91 114
-57 189 -160 189 -260 0 -297 -309 -424 -1031 -424 l-209 0 0 401 0 402 313
-6 c217 -4 343 -10 415 -22z"/>
<path d="M2962 1073 l3 -678 26 -67 c48 -123 124 -191 269 -240 65 -23 68 -23
848 -26 l782 -3 0 106 0 105 -593 0 c-386 0 -614 4 -652 11 -99 18 -151 53
-191 129 -16 30 -19 63 -22 223 l-4 187 671 0 671 0 0 105 0 105 -670 0 -670
0 0 255 0 255 700 0 700 0 0 105 0 105 -935 0 -936 0 3 -677z"/>
<path d="M5677 1743 c-4 -3 -7 -272 -7 -597 0 -643 3 -674 57 -786 40 -82 140
-176 243 -227 182 -91 383 -128 700 -127 391 1 757 67 1088 196 l102 40 0 754
0 754 -230 0 -230 0 0 -711 0 -710 -37 -16 c-83 -35 -264 -64 -439 -70 -406
-14 -673 77 -755 260 l-24 52 -3 598 -3 597 -228 0 c-125 0 -231 -3 -234 -7z"/>
<path d="M11937 1743 c-11 -10 -8 -1218 3 -1299 27 -206 142 -326 352 -369 65
-13 191 -15 823 -15 l745 0 0 105 0 104 -627 3 c-570 3 -632 5 -672 21 -66 26
-105 60 -132 114 -21 44 -24 64 -27 230 l-4 183 676 0 677 0 -3 103 -3 102
-673 3 -672 2 2 253 3 252 698 3 697 2 0 105 0 105 -928 0 c-511 0 -932 -3
-935 -7z"/>
<path d="M17677 1743 c-4 -3 -7 -57 -7 -120 l0 -113 465 0 465 0 0 -725 0
-725 235 0 235 0 2 722 3 723 463 3 463 2 -3 118 -3 117 -1156 3 c-635 1
-1159 -1 -1162 -5z"/>
</g>
</svg>
