<?xml version="1.0" standalone="no"?>
<!DOCTYPE svg PUBLIC "-//W3C//DTD SVG 20010904//EN"
 "http://www.w3.org/TR/2001/REC-SVG-20010904/DTD/svg10.dtd">
<svg version="1.0" xmlns="http://www.w3.org/2000/svg"
 width="2000.000000pt" height="1679.000000pt" viewBox="0 0 2000.000000 1679.000000"
 preserveAspectRatio="xMidYMid meet">

<g transform="translate(0.000000,1679.000000) scale(0.100000,-0.100000)"
fill="#000000" stroke="none">
<path d="M8905 16780 c-421 -10 -530 -20 -603 -56 -104 -51 -193 -184 -724
-1079 -960 -1619 -1462 -2528 -2097 -3795 -227 -453 -253 -523 -254 -660 0
-149 28 -218 318 -795 591 -1174 1223 -2307 2135 -3825 476 -793 527 -868 632
-919 67 -32 180 -39 803 -51 585 -11 1602 0 1822 20 176 16 235 61 380 289
248 391 1146 1911 1490 2521 470 834 1278 2392 1338 2580 40 124 39 241 -3
367 -46 137 -527 1088 -924 1828 -372 692 -886 1588 -1493 2600 -444 741 -514
846 -601 904 -60 39 -113 49 -324 61 -244 14 -1474 20 -1895 10z m1864 -462
c-221 -428 -497 -1002 -681 -1416 -125 -282 -258 -600 -258 -616 0 -7 42 -91
94 -187 454 -842 1289 -2511 1391 -2784 37 -96 34 -165 -10 -275 -87 -217
-537 -1125 -945 -1905 -726 -1388 -1629 -3048 -1745 -3207 -34 -47 -81 -86
-91 -76 -2 3 27 65 66 138 301 562 745 1513 959 2052 l23 57 -75 138 c-492
907 -1343 2613 -1422 2847 -20 61 -21 146 -2 206 51 166 694 1462 1275 2570
532 1016 1009 1886 1300 2373 136 227 186 297 215 297 11 0 -17 -63 -94 -212z"/>
<path d="M25 2488 c-2 -7 -9 -41 -15 -75 l-11 -62 48 -83 48 -82 3 -1073 2
-1073 320 0 320 0 0 395 0 395 397 -2 397 -3 211 -390 211 -390 352 -3 c194
-1 352 0 352 3 0 4 -114 203 -254 443 -140 240 -257 444 -260 452 -4 10 13 27
54 53 33 22 97 78 143 127 176 185 257 429 228 692 -31 283 -146 457 -376 568
-104 51 -173 72 -315 98 -119 21 -1848 31 -1855 10z m1615 -472 c41 -8 92 -21
113 -30 56 -25 112 -80 138 -139 21 -46 24 -66 24 -182 -1 -111 -4 -138 -23
-186 -29 -72 -89 -141 -150 -171 -47 -23 -47 -23 -524 -26 l-478 -3 0 376 0
375 413 0 c305 -1 431 -4 487 -14z"/>
<path d="M3280 1270 l0 -1230 1070 0 1070 0 -2 228 -3 227 -747 3 -748 2 0
280 0 280 665 0 665 0 0 220 0 220 -662 2 -663 3 -3 267 -2 268 727 2 728 3 3
228 2 227 -1050 0 -1050 0 0 -1230z"/>
<path d="M6006 2477 c-3 -13 -8 -47 -12 -77 -6 -52 -4 -59 37 -130 l44 -75 3
-1077 2 -1078 290 0 290 0 0 813 1 812 27 -34 c156 -200 365 -434 1225 -1373
l200 -218 278 0 279 0 0 1230 0 1230 -285 0 -285 0 0 -810 c0 -445 -3 -810 -7
-809 -5 0 -28 26 -53 57 -139 176 -417 488 -1055 1181 l-350 380 -311 0 -312
1 -6 -23z"/>
<path d="M10160 2388 c-340 -726 -606 -1339 -865 -1993 -68 -171 -126 -320
-130 -333 l-6 -22 321 2 322 3 77 205 77 205 659 0 660 0 53 -140 c29 -77 64
-170 78 -207 l26 -68 319 0 c175 0 319 4 319 8 0 24 -286 733 -467 1157 -164
383 -443 1001 -564 1248 l-23 47 -402 0 -401 0 -53 -112z m588 -643 c148 -346
332 -792 332 -805 0 -7 -163 -10 -465 -10 -279 0 -465 4 -465 9 0 12 242 597
350 846 46 105 89 205 97 224 8 19 18 30 23 25 4 -5 62 -135 128 -289z"/>
<path d="M12366 2488 c-3 -7 -9 -40 -15 -74 l-11 -61 47 -84 48 -84 5 -700 6
-700 26 -97 c68 -248 210 -419 443 -533 217 -107 471 -155 810 -155 781 0
1192 271 1255 825 6 53 10 412 10 883 l0 792 -315 0 -314 0 -3 -827 c-3 -799
-4 -830 -23 -880 -46 -119 -130 -194 -265 -237 -203 -65 -541 -61 -724 8 -126
48 -192 110 -238 225 l-23 56 -3 828 -3 827 -355 0 c-275 0 -355 -3 -358 -12z"/>
<path d="M15700 1270 l0 -1230 1018 2 1017 3 0 225 0 225 -697 3 -698 2 0
1000 0 1000 -320 0 -320 0 0 -1230z"/>
<path d="M17460 2270 l0 -230 475 0 475 0 0 -1000 0 -1000 320 0 320 0 0 1000
0 1000 475 0 475 0 0 230 0 230 -1270 0 -1270 0 0 -230z"/>
</g>
</svg>
