<svg width="24" height="24" viewBox="0 0 24 24" fill="none" xmlns="http://www.w3.org/2000/svg">
<g clip-path="url(#clip0_466_3920)">
<path d="M5.54304 7.01124H7.9999C8.16222 7.01124 8.29392 6.87954 8.29392 6.71722C8.29392 6.5549 8.16222 6.4232 7.9999 6.4232H5.54304C5.38072 6.4232 5.24902 6.5549 5.24902 6.71722C5.24902 6.87954 5.38072 7.01124 5.54304 7.01124Z" fill="#131211"/>
<path d="M15.6091 10.1789C15.6091 10.0166 15.4774 9.88492 15.3151 9.88492H11.6573C11.495 9.88492 11.3633 10.0166 11.3633 10.1789C11.3633 10.3415 11.495 10.473 11.6573 10.473H15.3151C15.4774 10.473 15.6091 10.3415 15.6091 10.1789Z" fill="#131211"/>
<path d="M9.27156 9.88513C9.10904 9.88513 8.97754 10.0168 8.97754 10.1792C8.97754 10.3417 9.10904 10.4732 9.27156 10.4732H10.417C10.5793 10.4732 10.711 10.3417 10.711 10.1792C10.711 10.0168 10.5793 9.88513 10.417 9.88513H9.27156Z" fill="#131211"/>
<path d="M5.54304 10.473H8.00679C8.16912 10.473 8.30081 10.3415 8.30081 10.1789C8.30081 10.0166 8.16912 9.88492 8.00679 9.88492H5.54304C5.38072 9.88492 5.24902 10.0166 5.24902 10.1789C5.24902 10.3415 5.38072 10.473 5.54304 10.473Z" fill="#131211"/>
<path d="M10.7012 13.3466H5.54304C5.38072 13.3466 5.24902 13.4783 5.24902 13.6407C5.24902 13.8032 5.38072 13.9347 5.54304 13.9347H10.7012C10.8635 13.9347 10.9952 13.8032 10.9952 13.6407C10.9952 13.4783 10.8635 13.3466 10.7012 13.3466Z" fill="#131211"/>
<path d="M14.6114 7.01124H15.317C15.4795 7.01124 15.611 6.87954 15.611 6.71722C15.611 6.5549 15.4795 6.4232 15.317 6.4232H14.6114C14.4491 6.4232 14.3174 6.5549 14.3174 6.71722C14.3174 6.87954 14.4491 7.01124 14.6114 7.01124Z" fill="#131211"/>
<path d="M9.22078 7.01107H13.3709C13.5332 7.01107 13.6649 6.87938 13.6649 6.71705C13.6649 6.55473 13.5332 6.42303 13.3709 6.42303H9.22078C9.05845 6.42303 8.92676 6.55473 8.92676 6.71705C8.92676 6.87938 9.05845 7.01107 9.22078 7.01107Z" fill="#131211"/>
<path d="M14.1839 15.1286H14.1777C13.7352 15.1332 13.3793 15.4942 13.3809 15.9368C13.3826 16.3795 13.7409 16.7379 14.1837 16.7392H14.1896C14.6322 16.7346 14.988 16.3736 14.9865 15.931C14.9848 15.4885 14.6264 15.1301 14.1839 15.1286ZM14.1852 16.1512H14.1837C14.0648 16.1498 13.9691 16.0536 13.9687 15.9347C13.9683 15.816 14.0633 15.7188 14.182 15.7167H14.1837C14.3024 15.718 14.3981 15.8143 14.3986 15.9331C14.399 16.0518 14.3039 16.1491 14.1852 16.1512Z" fill="#131211"/>
<path d="M22.1833 15.069C21.7386 15.0706 21.3793 15.4324 21.3809 15.8772C21.3826 16.3219 21.7444 16.6812 22.1892 16.6796H22.1952C22.64 16.6764 22.9978 16.3131 22.9945 15.8684C22.9913 15.4235 22.6281 15.0656 22.1833 15.069ZM22.3441 16.0267C22.3037 16.0679 22.2488 16.0912 22.1911 16.0916H22.1894C22.0694 16.092 21.9718 15.9951 21.9714 15.8751C21.971 15.7551 22.0679 15.6575 22.1879 15.6571H22.1896C22.2771 15.6571 22.3561 15.7095 22.3898 15.7905C22.4237 15.8713 22.4057 15.9643 22.3443 16.0267H22.3441Z" fill="#131211"/>
<path d="M23.0057 13.7369L22.1027 12.1015C21.8037 11.5747 21.3654 10.9711 20.6273 10.9759L18.1986 10.9939V7.83588H21.5836C21.7461 7.83588 21.8776 7.70419 21.8776 7.54186V3.64171C21.8765 2.46372 20.9219 1.50931 19.7441 1.50797C19.7196 1.50797 19.6954 1.50892 19.6711 1.50988C19.6604 1.50854 19.6497 1.50797 19.639 1.50797H5.46653C4.15398 1.51218 3.08758 2.56823 3.07036 3.8806L2.96354 16.9514H0.294019C0.131696 16.9514 0 17.0829 0 17.2455V19.1991C0 20.9559 1.34816 22.3967 3.04432 22.5033C3.06519 22.5079 3.08643 22.5102 3.10768 22.5102H14.7695C14.7842 22.5102 14.7988 22.5089 14.8133 22.5066C14.8596 22.5087 14.906 22.5102 14.9529 22.5102C16.6412 22.5102 18.0628 21.1665 18.1894 19.4508C18.1898 19.4435 18.1901 19.4362 18.1901 19.4292V18.0934L21.3438 18.0701L21.3482 18.6748C21.3505 18.9719 21.5918 19.2113 21.8889 19.2115H21.8929L22.642 19.206C22.9404 19.2035 23.1806 18.9598 23.1787 18.6612L23.1737 18.0184C23.4905 17.9135 23.707 17.6206 23.7143 17.287L23.9978 15.0139C23.9993 15.0013 24.0001 14.9882 24.0001 14.9754C23.9995 14.6569 23.8839 14.3495 23.6743 14.1098C23.5018 13.9113 23.2652 13.7794 23.0057 13.7369ZM20.6317 11.564H20.6368C20.9766 11.564 21.2624 11.812 21.5895 12.3886L22.328 13.7264L21.7381 13.7308C21.6096 13.1171 21.0662 12.6792 20.4393 12.6838C19.8124 12.6883 19.2757 13.1344 19.1562 13.7498L14.0117 13.7877L14.759 12.4405C14.7618 12.4353 14.7647 12.4297 14.7672 12.4242C14.9129 12.1181 15.2306 11.604 15.7208 11.6003L20.6317 11.564ZM21.1273 13.7348L19.7672 13.7446C19.8729 13.4623 20.1418 13.2741 20.4433 13.2712H20.4489C20.7488 13.271 21.0182 13.4552 21.1271 13.7346L21.1273 13.7348ZM21.2896 3.64152V7.24765H18.1986V3.64171C18.2033 2.79143 18.894 2.10481 19.7441 2.10481C20.5944 2.10481 21.2848 2.79143 21.2896 3.64171V3.64152ZM3.2457 21.9226C1.78058 21.9226 0.588038 20.7011 0.588038 19.1995V17.5399H11.7053V19.1995C11.7026 20.2814 12.2257 21.2968 13.108 21.9226H3.2457ZM17.6021 19.4186C17.493 20.8236 16.3315 21.9226 14.9509 21.9226C13.4858 21.9226 12.2933 20.7011 12.2933 19.1995V17.2458C12.2933 17.0833 12.1618 16.9518 11.9993 16.9518H3.55158L3.65839 3.88634C3.67141 2.89613 4.47633 2.09945 5.46653 2.09639H18.2755C17.8509 2.49817 17.6103 3.05712 17.6105 3.6419V10.9983L15.7164 11.0121C15.1179 11.0167 14.5938 11.4252 14.2402 12.1629L13.3304 13.8034C13.0703 13.8493 12.8348 13.9869 12.6671 14.1912C12.4652 14.4356 12.3568 14.744 12.3616 15.0612C12.3616 15.0734 12.3626 15.0859 12.3641 15.0981L12.6685 17.3674C12.6807 17.7062 12.9077 17.9993 13.2326 18.0961L13.2374 18.7345C13.2397 19.0316 13.481 19.2712 13.7779 19.2712H13.7821L14.531 19.2657C14.8294 19.263 15.0694 19.0195 15.0675 18.7211L15.0631 18.1164L17.6021 18.0978V19.4186ZM14.4751 18.1212L14.4793 18.6784L13.8248 18.6832L13.8208 18.126L14.4751 18.1212ZM21.936 18.6235L21.9318 18.0663L22.5861 18.0613L22.5903 18.6185L21.936 18.6235ZM23.1287 17.2315C23.127 17.2443 23.1262 17.2571 23.1264 17.27C23.1259 17.3796 23.0382 17.4686 22.9285 17.4709L17.9277 17.5077C17.9057 17.5052 17.8833 17.5054 17.8613 17.5083L13.4567 17.5406C13.347 17.5406 13.2577 17.4526 13.2559 17.3429C13.2557 17.3306 13.255 17.3182 13.2533 17.3059L12.9495 15.0401C12.9504 14.869 13.0096 14.703 13.1172 14.5698C13.2079 14.4578 13.3407 14.3885 13.4843 14.378C13.4929 14.3788 13.5013 14.3797 13.5101 14.3797H13.5122L22.8181 14.311H22.8225H22.8248C22.9823 14.3106 23.132 14.3795 23.234 14.4996C23.3447 14.6288 23.4074 14.792 23.4117 14.962L23.1287 17.2315Z" fill="#131211"/>
<path d="M16.8788 15.1851H16.8769C16.7144 15.1863 16.5838 15.3189 16.585 15.4812L16.5884 15.9523C16.5896 16.1139 16.7209 16.2442 16.8824 16.2442H16.8847C17.0471 16.2431 17.1778 16.1104 17.1765 15.9481L17.173 15.477C17.1719 15.3153 17.0405 15.1849 16.8788 15.1851Z" fill="#131211"/>
<path d="M16.0036 15.1917C15.8413 15.1931 15.7108 15.3255 15.7119 15.4881L15.7154 15.9591C15.7165 16.1207 15.8478 16.2511 16.0094 16.2511H16.0117C16.174 16.2499 16.3046 16.1173 16.3034 15.9549L16.3 15.4837C16.2996 15.4056 16.2682 15.3309 16.2125 15.2762C16.157 15.2212 16.0817 15.191 16.0036 15.1917Z" fill="#131211"/>
<path d="M20.366 15.1592C20.2036 15.1606 20.0729 15.293 20.0742 15.4556L20.0777 15.9266C20.0788 16.0882 20.2101 16.2186 20.3717 16.2186H20.3738C20.5363 16.2174 20.6669 16.0848 20.6657 15.9224L20.6623 15.4512C20.6607 15.2888 20.5283 15.1585 20.366 15.1592Z" fill="#131211"/>
<path d="M17.748 15.179C17.5855 15.1803 17.4549 15.313 17.4561 15.4753L17.4595 15.9464C17.4607 16.1079 17.592 16.2383 17.7535 16.2383H17.7558C17.9181 16.237 18.0489 16.1045 18.0477 15.942L18.0441 15.4709C18.042 15.309 17.9099 15.1788 17.748 15.179Z" fill="#131211"/>
<path d="M18.6218 15.1722C18.4595 15.1734 18.3287 15.306 18.3301 15.4684L18.3335 15.9394C18.3347 16.101 18.466 16.2313 18.6276 16.2313H18.6297C18.7922 16.2302 18.9227 16.0975 18.9216 15.9352L18.9181 15.4639C18.9181 15.3859 18.8867 15.311 18.831 15.2561C18.7753 15.2013 18.7001 15.1711 18.6218 15.1722Z" fill="#131211"/>
<path d="M19.4962 15.1662H19.4939C19.3316 15.1673 19.201 15.3 19.2022 15.4623L19.2056 15.9336C19.2067 16.095 19.3381 16.2253 19.4996 16.2253H19.5019C19.6642 16.2242 19.795 16.0915 19.7936 15.9292L19.7902 15.4581C19.789 15.2966 19.6577 15.1662 19.4962 15.1662Z" fill="#131211"/>
</g>
<defs>
<clipPath id="clip0_466_3920">
<rect width="24" height="24" fill="white"/>
</clipPath>
</defs>
</svg>
