<?xml version="1.0" standalone="no"?>
<!DOCTYPE svg PUBLIC "-//W3C//DTD SVG 20010904//EN"
 "http://www.w3.org/TR/2001/REC-SVG-20010904/DTD/svg10.dtd">
<svg version="1.0" xmlns="http://www.w3.org/2000/svg"
 width="250.000000pt" height="250.000000pt" viewBox="0 0 250.000000 250.000000"
 preserveAspectRatio="xMidYMid meet">

<g transform="translate(0.000000,250.000000) scale(0.100000,-0.100000)"
fill="#000000" stroke="none">
<path d="M1113 2149 c-558 -43 -972 -344 -940 -684 26 -272 322 -502 762 -592
140 -28 512 -25 652 5 550 120 851 464 698 800 -140 307 -650 512 -1172 471z
m409 -98 c383 -66 651 -253 699 -489 50 -244 -192 -487 -584 -587 -135 -34
-230 -45 -390 -45 -445 0 -821 166 -944 417 -25 51 -28 69 -28 153 0 128 26
184 139 295 121 119 285 199 502 244 133 28 135 28 326 30 124 1 194 -4 280
-18z"/>
<path d="M1490 1745 l-244 -244 244 -240 c135 -131 246 -238 246 -238 1 1 -31
106 -72 232 -40 127 -74 237 -74 245 0 8 34 120 75 249 41 129 74 235 72 237
-1 2 -113 -107 -247 -241z"/>
<path d="M765 1960 c4 -14 39 -123 77 -242 l69 -218 -76 -236 c-41 -131 -74
-239 -72 -240 2 -2 111 105 242 236 l240 240 -244 243 c-153 153 -240 233
-236 217z"/>
<path d="M224 690 c-31 -12 -54 -49 -54 -86 0 -42 32 -68 103 -84 65 -15 97
-35 97 -60 0 -25 -46 -60 -79 -60 -32 0 -71 25 -71 46 0 9 -11 14 -30 14 -34
0 -36 -9 -15 -49 20 -39 63 -54 136 -49 54 4 66 8 90 36 35 39 39 92 10 121
-11 11 -50 29 -87 41 -72 22 -94 35 -94 56 0 43 84 60 120 24 21 -21 70 -28
70 -9 0 6 -13 24 -29 40 -26 26 -36 29 -88 28 -32 0 -68 -4 -79 -9z"/>
<path d="M490 525 l0 -175 25 0 c25 0 25 1 25 78 l0 77 77 -2 78 -1 3 -76 3
-76 73 0 73 0 63 143 c34 78 69 157 76 175 l14 32 -47 0 -48 0 -75 -173 -75
-172 -3 173 -2 172 -25 0 c-24 0 -25 -2 -25 -75 l0 -75 -80 0 -80 0 0 75 c0
73 -1 75 -25 75 l-25 0 0 -175z"/>
<path d="M1010 526 l0 -176 26 0 25 0 -3 135 c-2 74 -1 135 2 135 3 -1 48 -60
100 -133 78 -107 101 -133 123 -135 l27 -3 0 175 0 176 -25 0 -25 0 0 -136 0
-136 -98 133 c-79 108 -103 135 -125 137 l-27 3 0 -175z"/>
<path d="M1330 675 c0 -25 1 -25 90 -25 89 0 90 0 90 25 0 25 -1 25 -90 25
-89 0 -90 0 -90 -25z"/>
<path d="M1530 676 c0 -25 2 -26 60 -26 67 0 100 -21 100 -63 0 -41 -29 -57
-103 -57 -37 0 -67 -2 -67 -5 0 -3 33 -44 73 -90 63 -75 76 -85 105 -85 l33 0
-19 28 c-11 15 -34 40 -51 56 -17 17 -31 33 -31 37 0 3 14 9 30 13 79 15 107
115 51 178 -27 30 -34 33 -105 36 l-76 4 0 -26z"/>
<path d="M1827 547 c-87 -207 -85 -197 -50 -197 25 0 31 6 48 50 l19 50 69 0
69 0 21 -50 c18 -43 25 -50 49 -50 15 0 28 2 28 3 0 2 -31 80 -69 173 -61 151
-71 169 -93 172 -24 3 -29 -7 -91 -151z m96 -45 c-25 -2 -47 -1 -49 1 -3 2 5
31 17 63 l23 59 27 -60 27 -60 -45 -3z"/>
<path d="M2030 696 c0 -3 27 -51 60 -108 57 -98 60 -106 60 -170 l0 -68 30 0
30 0 0 67 c0 63 3 71 60 169 33 56 60 105 60 108 0 3 -15 6 -32 6 -31 0 -36
-5 -71 -75 -22 -41 -42 -75 -45 -75 -4 0 -25 34 -46 75 -37 70 -42 75 -73 75
-18 0 -33 -2 -33 -4z"/>
<path d="M1330 525 c0 -25 1 -25 90 -25 89 0 90 0 90 25 0 25 -1 25 -90 25
-89 0 -90 0 -90 -25z"/>
<path d="M1330 375 c0 -25 1 -25 90 -25 89 0 90 0 90 25 0 25 -1 25 -90 25
-89 0 -90 0 -90 -25z"/>
</g>
</svg>
