<?xml version="1.0" standalone="no"?>
<!DOCTYPE svg PUBLIC "-//W3C//DTD SVG 20010904//EN"
 "http://www.w3.org/TR/2001/REC-SVG-20010904/DTD/svg10.dtd">
<svg version="1.0" xmlns="http://www.w3.org/2000/svg"
 width="2000.000000pt" height="369.000000pt" viewBox="0 0 2000.000000 369.000000"
 preserveAspectRatio="xMidYMid meet">

<g transform="translate(0.000000,369.000000) scale(0.100000,-0.100000)"
fill="#000000" stroke="none">
<path d="M1828 3646 c-278 -256 -1310 -884 -1735 -1056 -46 -19 -83 -36 -83
-39 0 -4 536 -375 1190 -825 l1189 -819 -31 -43 c-17 -25 -36 -40 -42 -37 -6
4 -210 143 -453 309 -243 167 -464 314 -490 327 -209 106 -525 158 -752 123
-213 -33 -375 -112 -518 -254 -46 -46 -83 -88 -81 -93 2 -5 424 -285 938 -623
l934 -615 36 30 c369 309 1294 872 1708 1040 64 26 79 36 70 45 -7 6 -515 370
-1128 809 -613 439 -1117 800 -1119 802 -7 5 19 27 59 51 l35 21 425 -310
c342 -249 436 -313 485 -328 223 -73 556 -79 795 -15 169 45 332 143 418 251
l32 40 -912 624 c-501 343 -914 625 -917 626 -3 1 -27 -17 -53 -41z"/>
<path d="M5510 2959 c-519 -55 -898 -294 -940 -592 -12 -82 3 -309 25 -391 38
-143 143 -265 285 -334 168 -81 296 -103 830 -143 387 -28 460 -43 509 -105
29 -37 29 -121 0 -158 -51 -65 -175 -90 -307 -62 -145 31 -239 91 -267 172
l-13 39 -533 3 -532 2 6 -84 c28 -400 282 -614 817 -688 132 -18 979 -18 1103
0 405 60 622 217 707 512 31 106 39 329 16 420 -46 182 -164 315 -360 410
-173 83 -332 119 -680 155 -400 41 -505 62 -568 115 -28 24 -33 34 -33 73 0
77 55 120 175 137 94 13 186 -6 306 -64 94 -45 184 -118 184 -149 0 -16 36
-17 455 -17 l455 0 0 41 c0 55 -28 173 -56 236 -104 237 -354 395 -724 459
-111 19 -718 29 -860 13z"/>
<path d="M7382 2058 c4 -832 4 -844 26 -921 33 -121 84 -206 166 -284 148
-141 361 -216 691 -243 162 -13 564 -13 715 0 455 39 736 182 857 437 71 147
67 89 70 1016 l4 837 -406 0 -405 0 0 -745 c0 -606 -3 -752 -14 -778 -17 -40
-60 -83 -108 -108 -133 -68 -430 -77 -598 -18 -79 28 -131 69 -162 129 l-28
52 0 734 0 734 -405 0 -406 0 3 -842z"/>
<path d="M10080 2605 l0 -295 586 -2 587 -3 -587 -575 -586 -574 0 -243 0
-243 1265 0 1265 0 0 290 0 290 -590 2 -590 3 589 575 589 575 1 248 1 247
-1265 0 -1265 0 0 -295z"/>
<path d="M12782 2048 c4 -948 0 -895 73 -1043 103 -211 331 -336 705 -387 131
-18 768 -18 910 0 389 50 643 191 759 421 78 157 76 133 76 1046 l0 810 -402
3 -403 2 -2 -754 -3 -754 -30 -43 c-69 -98 -177 -133 -405 -133 -269 0 -418
61 -459 187 -9 26 -13 243 -14 764 l-2 728 -403 3 -403 2 3 -852z"/>
<path d="M15500 1785 l0 -1115 400 0 400 0 0 360 c0 198 3 360 8 360 4 0 185
-162 402 -360 l395 -359 545 -1 545 0 -166 167 c-664 673 -972 995 -963 1008
5 8 250 237 544 510 294 274 546 508 560 521 l25 24 -543 0 -542 0 -400 -370
c-220 -203 -402 -370 -405 -370 -3 0 -5 167 -5 370 l0 370 -400 0 -400 0 0
-1115z"/>
<path d="M18380 1785 l0 -1115 405 0 405 0 0 1115 0 1115 -405 0 -405 0 0
-1115z"/>
<path d="M19632 1202 c-72 -26 -122 -69 -155 -133 -36 -72 -43 -132 -23 -202
49 -169 231 -251 388 -174 142 70 197 240 122 377 -66 121 -206 177 -332 132z
m219 -57 c24 -17 57 -50 74 -73 25 -37 30 -55 33 -115 6 -115 -41 -194 -140
-237 -155 -67 -325 37 -336 204 -7 105 39 185 133 235 32 17 54 21 117 19 67
-3 82 -7 119 -33z"/>
<path d="M19620 945 c0 -148 1 -155 20 -155 18 0 20 7 20 70 l0 70 33 0 c29 0
36 -7 75 -70 30 -48 49 -70 63 -70 10 0 19 2 19 6 0 3 -18 32 -40 64 -22 32
-40 61 -40 64 0 4 8 6 19 6 35 0 71 38 71 76 0 73 -37 94 -167 94 l-73 0 0
-155z m174 115 c21 -8 26 -16 26 -44 0 -45 -20 -56 -99 -56 l-61 0 0 55 0 55
54 0 c30 0 66 -4 80 -10z"/>
</g>
</svg>
