<svg width="13" height="16" viewBox="0 0 13 16" fill="none" xmlns="http://www.w3.org/2000/svg">
<path fill-rule="evenodd" clip-rule="evenodd" d="M2.81184 3.375C2.81184 2.47989 3.16742 1.62145 3.80035 0.988515C4.43329 0.355579 5.29173 0 6.18684 0C7.08195 0 7.94039 0.355579 8.57333 0.988515C9.20626 1.62145 9.56184 2.47989 9.56184 3.375C9.56184 4.27011 9.20626 5.12855 8.57333 5.76149C7.94039 6.39442 7.08195 6.75 6.18684 6.75C5.29173 6.75 4.43329 6.39442 3.80035 5.76149C3.16742 5.12855 2.81184 4.27011 2.81184 3.375ZM8.95525e-05 13.9537C0.0253797 12.3296 0.68832 10.7805 1.84581 9.64093C3.0033 8.50133 4.5625 7.86259 6.18684 7.86259C7.81118 7.86259 9.37038 8.50133 10.5279 9.64093C11.6854 10.7805 12.3483 12.3296 12.3736 13.9537C12.3755 14.0631 12.3456 14.1706 12.2874 14.2632C12.2292 14.3558 12.1452 14.4294 12.0458 14.475C10.2076 15.3174 8.20892 15.7523 6.18684 15.75C4.09734 15.75 2.11209 15.294 0.32784 14.475C0.228454 14.4294 0.144521 14.3558 0.0863111 14.2632C0.0281012 14.1706 -0.00186137 14.0631 8.95525e-05 13.9537Z" fill="white"/>
</svg>
