<svg width="20" height="20" viewBox="0 0 20 20" fill="none" xmlns="http://www.w3.org/2000/svg">
<g clip-path="url(#clip0_364_5972)">
<path d="M9.9978 1.87476C5.53921 1.87476 1.91187 5.50206 1.91187 9.96069C1.91187 10.0332 1.94067 10.1028 1.99195 10.154C2.04323 10.2053 2.11278 10.2341 2.1853 10.2341H8.72401C8.79653 10.2341 8.86608 10.2053 8.91736 10.154C8.96864 10.1028 8.99745 10.0332 8.99745 9.96069C8.99745 9.69538 9.10284 9.44094 9.29045 9.25334C9.47805 9.06574 9.73249 8.96034 9.9978 8.96034C10.2631 8.96034 10.5176 9.06574 10.7052 9.25334C10.8928 9.44094 10.9982 9.69538 10.9982 9.96069C10.9982 10.0332 11.027 10.1028 11.0782 10.154C11.1295 10.2053 11.1991 10.2341 11.2716 10.2341H17.8103C17.8828 10.2341 17.9524 10.2053 18.0037 10.154C18.0549 10.1028 18.0837 10.0332 18.0837 9.96069C18.0837 5.50206 14.4564 1.87476 9.9978 1.87476ZM15.3791 6.25226C15.3983 6.28257 15.4234 6.3088 15.4528 6.32944C15.4821 6.35008 15.5153 6.36473 15.5504 6.37255C15.5854 6.38038 15.6216 6.38122 15.657 6.37504C15.6924 6.36885 15.7262 6.35576 15.7565 6.33651L16.3748 5.94382C16.6987 6.45605 16.9595 7.00563 17.1513 7.58054L16.3662 7.77089C16.3313 7.77935 16.2984 7.79461 16.2694 7.81578C16.2404 7.83696 16.2158 7.86364 16.1971 7.8943C16.1784 7.92496 16.166 7.959 16.1604 7.99448C16.1549 8.02996 16.1564 8.06619 16.1649 8.10108C16.1733 8.13598 16.1886 8.16887 16.2098 8.19787C16.2309 8.22687 16.2576 8.25142 16.2883 8.27011C16.3189 8.28881 16.353 8.30127 16.3885 8.30681C16.4239 8.31234 16.4602 8.31084 16.4951 8.30237L17.3056 8.10589C17.4371 8.6235 17.5131 9.15366 17.5322 9.68737H11.5208C11.4566 9.33015 11.2689 9.00684 10.9905 8.77399C10.7121 8.54114 10.3607 8.41356 9.9978 8.41356C9.63486 8.41356 9.28346 8.54114 9.00506 8.77399C8.72666 9.00684 8.53896 9.33015 8.47479 9.68737H2.46362C2.48271 9.15366 2.55866 8.6235 2.69019 8.10589L3.50073 8.30237C3.53563 8.31084 3.57185 8.31234 3.60733 8.30681C3.64281 8.30127 3.67686 8.28881 3.70752 8.27011C3.73818 8.25142 3.76486 8.22687 3.78603 8.19787C3.80721 8.16887 3.82246 8.13598 3.83093 8.10108C3.83939 8.06619 3.8409 8.02996 3.83536 7.99448C3.82983 7.959 3.81736 7.92496 3.79867 7.8943C3.77998 7.86364 3.75543 7.83696 3.72643 7.81578C3.69743 7.79461 3.66454 7.77935 3.62964 7.77089L2.84448 7.58054C3.04298 6.98573 3.31516 6.41811 3.65468 5.89093L4.35647 6.33663C4.41767 6.37396 4.49108 6.38577 4.56089 6.36951C4.63071 6.35326 4.69135 6.31023 4.72975 6.24971C4.76816 6.18918 4.78127 6.116 4.76624 6.0459C4.75122 5.97581 4.70928 5.91442 4.64944 5.87495L3.96733 5.44167C4.34996 4.93225 4.79507 4.47292 5.29222 4.07448L5.80565 4.71331C5.85109 4.76984 5.91713 4.806 5.98923 4.81385C6.06133 4.82169 6.1336 4.80057 6.19013 4.75513C6.24666 4.70969 6.28282 4.64365 6.29066 4.57155C6.2985 4.49945 6.27738 4.42718 6.23194 4.37065L5.73151 3.74812C6.23038 3.40434 6.76894 3.12207 7.3355 2.90745L7.58972 3.60581C7.602 3.63955 7.62081 3.67055 7.64507 3.69702C7.66933 3.7235 7.69857 3.74493 7.73112 3.76011C7.76366 3.77528 7.79888 3.7839 7.83475 3.78546C7.87063 3.78703 7.90646 3.78151 7.9402 3.76923C7.97395 3.75695 8.00494 3.73814 8.03142 3.71387C8.05789 3.68961 8.07933 3.66038 8.0945 3.62783C8.10968 3.59528 8.11829 3.56007 8.11986 3.52419C8.12142 3.48832 8.11591 3.45248 8.10362 3.41874L7.85007 2.73257C8.47183 2.54764 9.11502 2.44443 9.76343 2.42554V3.12476C9.76343 3.19728 9.79224 3.26683 9.84351 3.31811C9.89479 3.36938 9.96434 3.39819 10.0369 3.39819C10.1094 3.39819 10.1789 3.36938 10.2302 3.31811C10.2815 3.26683 10.3103 3.19728 10.3103 3.12476V2.42886C10.9758 2.45423 11.6347 2.56997 12.2689 2.77288L12.0072 3.49687C11.9824 3.56524 11.9858 3.64067 12.0166 3.70656C12.0474 3.77245 12.1031 3.82341 12.1715 3.84821C12.2399 3.87302 12.3153 3.86965 12.3812 3.83884C12.4471 3.80803 12.498 3.75231 12.5228 3.68394L12.7875 2.95737C13.3454 3.18054 13.8746 3.46967 14.3638 3.81858L13.9199 4.37085C13.8745 4.42737 13.8533 4.49963 13.8612 4.57173C13.869 4.64383 13.9052 4.70986 13.9617 4.7553C14.0182 4.80074 14.0905 4.82187 14.1626 4.81403C14.2347 4.80619 14.3007 4.77003 14.3462 4.71351L14.7976 4.1519C15.2732 4.54545 15.6991 4.99544 16.066 5.49194L15.4633 5.87476C15.433 5.894 15.4068 5.91904 15.3861 5.94843C15.3655 5.97782 15.3508 6.01099 15.343 6.04605C15.3352 6.08111 15.3343 6.11736 15.3405 6.15274C15.3467 6.18812 15.3598 6.22194 15.3791 6.25226Z" fill="#131211"/>
<path d="M9.99876 0.742222C8.16774 0.742227 6.37784 1.28519 4.85541 2.30245C3.33297 3.31971 2.14638 4.76559 1.44568 6.45723C0.744979 8.14887 0.561643 10.0103 0.918856 11.8061C1.27607 13.602 2.15779 15.2516 3.45251 16.5463C4.31158 17.4087 5.33229 18.0931 6.4562 18.5606C7.58012 19.028 8.78518 19.2692 10.0024 19.2704C11.2197 19.2715 12.4252 19.0326 13.55 18.5674C14.6748 18.1021 15.6968 17.4196 16.5576 16.5588C17.4183 15.6981 18.1008 14.6761 18.5661 13.5513C19.0314 12.4265 19.2703 11.2209 19.2691 10.0037C19.2679 8.78646 19.0267 7.5814 18.5593 6.45748C18.0919 5.33356 17.4074 4.31286 16.545 3.45378C15.6873 2.59141 14.6672 1.90772 13.5435 1.44228C12.4198 0.97684 11.215 0.738896 9.99876 0.742222ZM16.1583 16.1596C14.5247 17.7932 12.309 18.711 9.99876 18.711C7.68847 18.711 5.47281 17.7932 3.83919 16.1596C2.20557 14.526 1.28781 12.3103 1.28781 10C1.28781 7.68975 2.20557 5.47408 3.83919 3.84046C5.47281 2.20684 7.68847 1.28909 9.99876 1.28909C12.309 1.28909 14.5247 2.20684 16.1583 3.84046C17.7919 5.47408 18.7097 7.68975 18.7097 10C18.7097 12.3103 17.7919 14.526 16.1583 16.1596Z" fill="#131211"/>
<path d="M9.99756 9.64844C9.82759 9.64844 9.66144 9.69884 9.52012 9.79327C9.37879 9.8877 9.26864 10.0219 9.2036 10.1789C9.13856 10.336 9.12154 10.5088 9.1547 10.6755C9.18786 10.8422 9.2697 10.9953 9.38989 11.1155C9.51007 11.2357 9.6632 11.3175 9.8299 11.3507C9.99661 11.3838 10.1694 11.3668 10.3264 11.3018C10.4835 11.2367 10.6177 11.1266 10.7121 10.9853C10.8065 10.8439 10.8569 10.6778 10.8569 10.5078C10.8567 10.28 10.7661 10.0615 10.6049 9.90043C10.4438 9.73932 10.2254 9.6487 9.99756 9.64844ZM9.99756 10.8203C9.93575 10.8203 9.87533 10.802 9.82394 10.7676C9.77255 10.7333 9.7325 10.6845 9.70885 10.6274C9.68519 10.5703 9.67901 10.5075 9.69106 10.4468C9.70312 10.3862 9.73288 10.3305 9.77659 10.2868C9.82029 10.2431 9.87597 10.2134 9.93659 10.2013C9.99721 10.1893 10.06 10.1954 10.1171 10.2191C10.1742 10.2428 10.2231 10.2828 10.2574 10.3342C10.2917 10.3856 10.3101 10.446 10.3101 10.5078C10.31 10.5907 10.277 10.6701 10.2184 10.7287C10.1598 10.7873 10.0804 10.8202 9.99756 10.8203Z" fill="#131211"/>
<path d="M10.2684 4.64047C10.2575 4.57686 10.2245 4.51914 10.1752 4.47752C10.1259 4.43591 10.0634 4.41309 9.99887 4.41309C9.93433 4.41309 9.87188 4.43591 9.82255 4.47752C9.77322 4.51914 9.7402 4.57686 9.72934 4.64047L9.18246 7.80453C9.17567 7.84381 9.17755 7.88409 9.18797 7.92256C9.19839 7.96103 9.21709 7.99676 9.24277 8.02725C9.26844 8.05773 9.30047 8.08223 9.33662 8.09904C9.37276 8.11584 9.41213 8.12454 9.45199 8.12453H10.5457C10.5856 8.12454 10.625 8.11584 10.6611 8.09904C10.6973 8.08223 10.7293 8.05773 10.755 8.02725C10.7806 7.99676 10.7993 7.96103 10.8098 7.92256C10.8202 7.88409 10.8221 7.84381 10.8153 7.80453L10.2684 4.64047ZM9.77676 7.57766L9.99887 6.2925L10.221 7.57766H9.77676Z" fill="#131211"/>
</g>
<defs>
<clipPath id="clip0_364_5972">
<rect width="20" height="20" fill="white"/>
</clipPath>
</defs>
</svg>
