<svg xmlns="http://www.w3.org/2000/svg" viewBox="0 0 48 32" width="48" height="32">
  <rect fill="#1A1F71" width="48" height="32" rx="4"/>
  <path fill="#FFFFFF" d="M19.5 21h-2.7l1.7-10.5h2.7L19.5 21zm-4.8 0h-2.8l-2.4-8.4c-.1-.4-.3-.6-.6-.7-.9-.4-1.8-.7-2.9-.9v-.3h4.5c.6 0 1.1.4 1.2 1l1.1 5.8 2.7-6.8h2.8l-3.6 10.3zm16.1-6.8c0-2.1 1.8-2.4 3.3-2.4.8 0 1.5.1 2.3.4l.4-2.3c-.8-.3-1.6-.4-2.4-.4-2.5 0-4.3 1.3-4.3 3.2 0 1.4 1.3 2.2 2.2 2.6 1 .5 1.4.8 1.4 1.3 0 .7-.8 1-1.6 1-.9 0-1.9-.2-2.7-.6l-.4 2.3c.9.4 1.8.5 2.8.5 2.7 0 4.5-1.3 4.5-3.3 0-2.5-3.5-2.6-3.5-4.3zm12.7 6.8l-2.1-10.5h-2.3c-.5 0-.9.3-1.1.7l-4 9.8h2.8l.6-1.5h3.4l.3 1.5h2.4zm-3.5-3.7l1.4-3.9.8 3.9h-2.2z"/>
</svg>
