<svg xmlns="http://www.w3.org/2000/svg" viewBox="0 0 48 32" width="48" height="32">
  <rect fill="#25D366" width="48" height="32" rx="4"/>
  <path fill="#FFFFFF" d="M24 6c-5.5 0-10 4.5-10 10 0 1.8.5 3.4 1.3 4.9L14 26l5.3-1.4c1.4.8 3 1.2 4.7 1.2 5.5 0 10-4.5 10-10S29.5 6 24 6zm5.4 14.3c-.2.6-1.2 1.2-1.7 1.3-.4 0-.9.2-3-1-2.5-1.4-4-4-4.2-4.2-.1-.2-1-1.4-1-2.6s.7-1.9.9-2.1c.2-.3.5-.3.7-.3h.5c.2 0 .4 0 .6.5.2.5.8 2 .9 2.1.1.1.1.3 0 .5-.1.2-.2.3-.3.4-.1.2-.3.4-.4.5-.1.1-.3.3-.1.6.2.3.7 1.2 1.6 1.9 1.1 1 2 1.3 2.3 1.4.3.1.4.1.6-.1.2-.2.6-.7.8-1 .2-.3.4-.2.6-.1.2.1 1.4.7 1.6.8.3.1.4.2.5.3.1.1.1.6-.1 1.1z"/>
</svg>
